B612MonoLigaNerdFont-Regular.ufo
<glyph name="exclam" format="2">
  <advance width="1300"/>
  <unicode hex="0021"/>
  <outline>
    <contour>
      <point x="395" y="1500" type="line"/>
      <point x="395" y="429" type="line"/>
      <point x="605" y="450" type="line"/>
      <point x="605" y="1500" type="line"/>
    </contour>
    <contour>
      <point x="378" y="106" type="curve" smooth="yes"/>
      <point x="378" y="39"/>
      <point x="432" y="-17"/>
      <point x="500" y="-17" type="curve" smooth="yes"/>
      <point x="567" y="-17"/>
      <point x="620" y="39"/>
      <point x="620" y="106" type="curve" smooth="yes"/>
      <point x="620" y="173"/>
      <point x="566" y="227"/>
      <point x="499" y="227" type="curve" smooth="yes"/>
      <point x="432" y="227"/>
      <point x="378" y="173"/>
    </contour>
  </outline>
</glyph>
<glyph name="dollar" format="2">
  <advance width="1300"/>
  <unicode hex="0024"/>
  <outline>
    <contour>
      <point x="933" y="400" type="curve" smooth="yes"/>
      <point x="933" y="257"/>
      <point x="847" y="182"/>
      <point x="716" y="158" type="curve"/>
      <point x="716" y="662" type="line"/>
      <point x="837" y="595"/>
      <point x="933" y="521"/>
    </contour>
    <contour>
      <point x="413" y="1147" type="curve" smooth="yes"/>
      <point x="413" y="1303"/>
      <point x="522" y="1365"/>
      <point x="630" y="1383" type="curve"/>
      <point x="630" y="916" type="line"/>
      <point x="509" y="975"/>
      <point x="413" y="1037"/>
    </contour>
    <contour>
      <point x="1086" y="1400" type="line"/>
      <point x="994" y="1468"/>
      <point x="887" y="1509"/>
      <point x="746" y="1517" type="curve"/>
      <point x="746" y="1720" type="line"/>
      <point x="600" y="1700" type="line"/>
      <point x="600" y="1517" type="line"/>
      <point x="404" y="1496"/>
      <point x="223" y="1396"/>
      <point x="223" y="1116" type="curve" smooth="yes"/>
      <point x="223" y="909"/>
      <point x="415" y="812"/>
      <point x="600" y="721" type="curve"/>
      <point x="600" y="148" type="line"/>
      <point x="460" y="148"/>
      <point x="376" y="206"/>
      <point x="323" y="241" type="curve"/>
      <point x="205" y="100" type="line"/>
      <point x="290" y="42"/>
      <point x="446" y="-14"/>
      <point x="600" y="-17" type="curve"/>
      <point x="600" y="-200" type="line"/>
      <point x="746" y="-200" type="line"/>
      <point x="746" y="-5" type="line"/>
      <point x="966" y="35"/>
      <point x="1123" y="183"/>
      <point x="1123" y="432" type="curve" smooth="yes"/>
      <point x="1123" y="676"/>
      <point x="930" y="778"/>
      <point x="746" y="863" type="curve"/>
      <point x="746" y="1388" type="line"/>
      <point x="850" y="1380"/>
      <point x="946" y="1337"/>
      <point x="992" y="1300" type="curve"/>
    </contour>
  </outline>
</glyph>
<glyph name="ampersand" format="2">
  <advance width="1300"/>
  <unicode hex="0026"/>
  <outline>
    <contour>
      <point x="982" y="700" type="line"/>
      <point x="982" y="545"/>
      <point x="970" y="442"/>
      <point x="906" y="352" type="curve"/>
      <point x="558" y="913"/>
      <point x="465" y="1053"/>
      <point x="449" y="1112" type="curve"/>
      <point x="442" y="1135"/>
      <point x="439" y="1156"/>
      <point x="439" y="1175" type="curve" smooth="yes"/>
      <point x="439" y="1244"/>
      <point x="481" y="1359"/>
      <point x="609" y="1359" type="curve" smooth="yes"/>
      <point x="757" y="1359"/>
      <point x="837" y="1269"/>
      <point x="877" y="1200" type="curve"/>
      <point x="957" y="1338" type="line"/>
      <point x="896" y="1413"/>
      <point x="792" y="1517"/>
      <point x="617" y="1517" type="curve" smooth="yes"/>
      <point x="360" y="1517"/>
      <point x="260" y="1367"/>
      <point x="260" y="1176" type="curve" smooth="yes"/>
      <point x="260" y="1080"/>
      <point x="318" y="956"/>
      <point x="369" y="881" type="curve"/>
      <point x="253" y="836"/>
      <point x="100" y="701"/>
      <point x="100" y="447" type="curve" smooth="yes"/>
      <point x="100" y="199"/>
      <point x="274" y="-17"/>
      <point x="549" y="-17" type="curve" smooth="yes"/>
      <point x="677" y="-17"/>
      <point x="797" y="10"/>
      <point x="897" y="77" type="curve"/>
      <point x="973" y="-20" type="line"/>
      <point x="1195" y="-20" type="line"/>
      <point x="1075" y="141" type="line"/>
      <point x="983" y="141" type="line"/>
      <point x="1143" y="290"/>
      <point x="1176" y="510"/>
      <point x="1176" y="721" type="curve"/>
    </contour>
    <contour>
      <point x="425" y="800" type="line"/>
      <point x="787" y="234" type="line"/>
      <point x="745" y="197"/>
      <point x="687" y="170"/>
      <point x="573" y="170" type="curve" smooth="yes"/>
      <point x="441" y="170"/>
      <point x="289" y="264"/>
      <point x="289" y="457" type="curve" smooth="yes"/>
      <point x="289" y="585"/>
      <point x="341" y="661"/>
      <point x="425" y="700" type="curve"/>
    </contour>
  </outline>
</glyph>
<glyph name="quotesingle" format="2">
  <advance width="1300"/>
  <unicode hex="0027"/>
  <outline>
    <contour>
      <point x="225" y="1400" type="line" smooth="yes"/>
      <point x="225" y="1298"/>
      <point x="224" y="1201"/>
      <point x="200" y="1067" type="curve"/>
      <point x="259" y="1067" type="line"/>
      <point x="352" y="1184"/>
      <point x="400" y="1300"/>
      <point x="400" y="1400" type="curve" smooth="yes"/>
      <point x="400" y="1500" type="line"/>
      <point x="225" y="1500" type="line"/>
    </contour>
  </outline>
</glyph>
<glyph name="parenleft" format="2">
  <advance width="1300"/>
  <unicode hex="0028"/>
  <outline>
    <contour>
      <point x="500" y="0" type="line" smooth="yes"/>
      <point x="500" y="-238"/>
      <point x="529" y="-420"/>
      <point x="800" y="-420" type="curve" smooth="yes"/>
      <point x="851" y="-420"/>
      <point x="915" y="-411"/>
      <point x="939" y="-395" type="curve"/>
      <point x="870" y="-269" type="line"/>
      <point x="856" y="-272" type="line"/>
      <point x="847" y="-273"/>
      <point x="835" y="-274"/>
      <point x="820" y="-274" type="curve" smooth="yes"/>
      <point x="702" y="-274"/>
      <point x="700" y="-153"/>
      <point x="700" y="-14" type="curve" smooth="yes"/>
      <point x="700" y="1194" type="line" smooth="yes"/>
      <point x="700" y="1333"/>
      <point x="702" y="1454"/>
      <point x="820" y="1454" type="curve" smooth="yes"/>
      <point x="835" y="1454"/>
      <point x="847" y="1452"/>
      <point x="856" y="1451" type="curve"/>
      <point x="870" y="1449" type="line"/>
      <point x="939" y="1575" type="line"/>
      <point x="915" y="1591"/>
      <point x="851" y="1600"/>
      <point x="800" y="1600" type="curve" smooth="yes"/>
      <point x="529" y="1600"/>
      <point x="500" y="1418"/>
      <point x="500" y="1180" type="curve" smooth="yes"/>
    </contour>
  </outline>
</glyph>
<glyph name="parenright" format="2">
  <advance width="1300"/>
  <unicode hex="0029"/>
  <outline>
    <contour>
      <point x="899" y="1180" type="line" smooth="yes"/>
      <point x="899" y="1418"/>
      <point x="870" y="1600"/>
      <point x="599" y="1600" type="curve" smooth="yes"/>
      <point x="547" y="1600"/>
      <point x="485" y="1591"/>
      <point x="460" y="1575" type="curve"/>
      <point x="529" y="1449" type="line"/>
      <point x="543" y="1451" type="line"/>
      <point x="552" y="1452"/>
      <point x="564" y="1454"/>
      <point x="579" y="1454" type="curve" smooth="yes"/>
      <point x="697" y="1454"/>
      <point x="699" y="1333"/>
      <point x="699" y="1194" type="curve" smooth="yes"/>
      <point x="699" y="-14" type="line" smooth="yes"/>
      <point x="699" y="-153"/>
      <point x="697" y="-274"/>
      <point x="579" y="-274" type="curve" smooth="yes"/>
      <point x="564" y="-274"/>
      <point x="552" y="-273"/>
      <point x="543" y="-272" type="curve"/>
      <point x="529" y="-269" type="line"/>
      <point x="460" y="-395" type="line"/>
      <point x="485" y="-411"/>
      <point x="547" y="-420"/>
      <point x="599" y="-420" type="curve" smooth="yes"/>
      <point x="870" y="-420"/>
      <point x="899" y="-238"/>
      <point x="899" y="0" type="curve" smooth="yes"/>
    </contour>
  </outline>
</glyph>
<glyph name="comma" format="2">
  <advance width="1300"/>
  <unicode hex="002C"/>
  <outline>
    <contour>
      <point x="502" y="127" type="curve" smooth="yes"/>
      <point x="502" y="35"/>
      <point x="567" y="-14"/>
      <point x="635" y="-17" type="curve"/>
      <point x="635" y="-76"/>
      <point x="615" y="-141"/>
      <point x="595" y="-193" type="curve" smooth="yes"/>
      <point x="583" y="-224"/>
      <point x="569" y="-255"/>
      <point x="554" y="-284" type="curve"/>
      <point x="606" y="-307" type="line"/>
      <point x="772" y="-154"/>
      <point x="798" y="-29"/>
      <point x="798" y="110" type="curve" smooth="yes"/>
      <point x="798" y="215"/>
      <point x="726" y="271"/>
      <point x="650" y="271" type="curve" smooth="yes"/>
      <point x="569" y="271"/>
      <point x="502" y="205"/>
    </contour>
  </outline>
</glyph>
<glyph name="hyphen" format="2">
  <advance width="1300"/>
  <unicode hex="002D"/>
  <outline>
    <contour>
      <point x="400" y="445" type="line"/>
      <point x="900" y="445" type="line"/>
      <point x="900" y="600" type="line"/>
      <point x="400" y="600" type="line"/>
    </contour>
  </outline>
</glyph>
<glyph name="period" format="2">
  <advance width="1300"/>
  <unicode hex="002E"/>
  <outline>
    <contour>
      <point x="486" y="150" type="curve" smooth="yes"/>
      <point x="486" y="59"/>
      <point x="560" y="-17"/>
      <point x="652" y="-17" type="curve" smooth="yes"/>
      <point x="742" y="-17"/>
      <point x="815" y="59"/>
      <point x="815" y="150" type="curve" smooth="yes"/>
      <point x="815" y="241"/>
      <point x="741" y="315"/>
      <point x="650" y="315" type="curve" smooth="yes"/>
      <point x="560" y="315"/>
      <point x="486" y="241"/>
    </contour>
  </outline>
</glyph>
<glyph name="zero" format="2">
  <advance width="1300"/>
  <unicode hex="0030"/>
  <outline>
    <contour>
      <point x="651" y="-17" type="curve" smooth="yes"/>
      <point x="1021" y="-17"/>
      <point x="1161" y="390"/>
      <point x="1161" y="750" type="curve" smooth="yes"/>
      <point x="1161" y="1100"/>
      <point x="991" y="1517"/>
      <point x="651" y="1517" type="curve" smooth="yes"/>
      <point x="281" y="1517"/>
      <point x="141" y="1110"/>
      <point x="141" y="750" type="curve" smooth="yes"/>
      <point x="141" y="400"/>
      <point x="311" y="-17"/>
    </contour>
    <contour>
      <point x="348" y="793" type="curve" smooth="yes"/>
      <point x="348" y="1041"/>
      <point x="399" y="1341"/>
      <point x="643" y="1341" type="curve" smooth="yes"/>
      <point x="915" y="1341"/>
      <point x="954" y="938"/>
      <point x="954" y="707" type="curve" smooth="yes"/>
      <point x="954" y="459"/>
      <point x="903" y="158"/>
      <point x="659" y="158" type="curve" smooth="yes"/>
      <point x="387" y="158"/>
      <point x="348" y="562"/>
    </contour>
    <contour>
      <point x="544" y="545" type="line"/>
      <point x="765" y="545" type="line"/>
      <point x="765" y="893" type="line"/>
      <point x="544" y="893" type="line"/>
    </contour>
  </outline>
</glyph>
<glyph name="one" format="2">
  <advance width="1300"/>
  <unicode hex="0031"/>
  <outline>
    <contour>
      <point x="1138" y="0" type="line"/>
      <point x="1138" y="160" type="line"/>
      <point x="793" y="160" type="line"/>
      <point x="793" y="1500" type="line"/>
      <point x="643" y="1520" type="line"/>
      <point x="185" y="1100" type="line"/>
      <point x="293" y="979" type="line"/>
      <point x="505" y="1167" type="line"/>
      <point x="641" y="1353" type="line"/>
      <point x="583" y="1126" type="line"/>
      <point x="583" y="160" type="line"/>
      <point x="238" y="160" type="line"/>
      <point x="238" y="0" type="line"/>
    </contour>
  </outline>
</glyph>
<glyph name="three" format="2">
  <advance width="1300"/>
  <unicode hex="0033"/>
  <outline>
    <contour>
      <point x="693" y="1340" type="line"/>
      <point x="845" y="1380" type="line"/>
      <point x="812" y="1290"/>
      <point x="545" y="1060"/>
      <point x="381" y="940" type="curve"/>
      <point x="381" y="785" type="line"/>
      <point x="421" y="788"/>
      <point x="475" y="790"/>
      <point x="518" y="790" type="curve" smooth="yes"/>
      <point x="737" y="790"/>
      <point x="910" y="736"/>
      <point x="910" y="543" type="curve" smooth="yes"/>
      <point x="910" y="290"/>
      <point x="593" y="172"/>
      <point x="262" y="160" type="curve"/>
      <point x="262" y="0" type="line"/>
      <point x="656" y="0"/>
      <point x="1120" y="164"/>
      <point x="1120" y="553" type="curve" smooth="yes"/>
      <point x="1120" y="822"/>
      <point x="920" y="948"/>
      <point x="662" y="948" type="curve" smooth="yes"/>
      <point x="643" y="948"/>
      <point x="620" y="948"/>
      <point x="607" y="945" type="curve"/>
      <point x="739" y="1019" type="line"/>
      <point x="861" y="1123"/>
      <point x="990" y="1254"/>
      <point x="1022" y="1360" type="curve"/>
      <point x="1022" y="1500" type="line"/>
      <point x="242" y="1500" type="line"/>
      <point x="227" y="1340" type="line"/>
    </contour>
  </outline>
</glyph>
<glyph name="six" format="2">
  <advance width="1300"/>
  <unicode hex="0036"/>
  <outline>
    <contour>
      <point x="984" y="1514" type="line"/>
      <point x="971" y="1517"/>
      <point x="943" y="1517"/>
      <point x="923" y="1517" type="curve" smooth="yes"/>
      <point x="453" y="1517"/>
      <point x="153" y="1097"/>
      <point x="153" y="620" type="curve" smooth="yes"/>
      <point x="153" y="394"/>
      <point x="264" y="-17"/>
      <point x="656" y="-17" type="curve" smooth="yes"/>
      <point x="954" y="-17"/>
      <point x="1157" y="224"/>
      <point x="1157" y="513" type="curve" smooth="yes"/>
      <point x="1157" y="804"/>
      <point x="940" y="927"/>
      <point x="709" y="927" type="curve" smooth="yes"/>
      <point x="618" y="927"/>
      <point x="500" y="890"/>
      <point x="433" y="847" type="curve"/>
      <point x="350" y="730" type="line"/>
      <point x="382" y="1062"/>
      <point x="625" y="1347"/>
      <point x="914" y="1347" type="curve" smooth="yes"/>
      <point x="929" y="1347"/>
      <point x="950" y="1347"/>
      <point x="959" y="1344" type="curve"/>
    </contour>
    <contour>
      <point x="359" y="597" type="curve"/>
      <point x="415" y="682"/>
      <point x="550" y="757"/>
      <point x="694" y="757" type="curve" smooth="yes"/>
      <point x="849" y="757"/>
      <point x="952" y="672"/>
      <point x="952" y="503" type="curve" smooth="yes"/>
      <point x="952" y="329"/>
      <point x="869" y="153"/>
      <point x="659" y="153" type="curve" smooth="yes"/>
      <point x="508" y="153"/>
      <point x="416" y="256"/>
      <point x="379" y="407" type="curve"/>
      <point x="360" y="479"/>
      <point x="359" y="523"/>
    </contour>
  </outline>
</glyph>
<glyph name="seven" format="2">
  <advance width="1300"/>
  <unicode hex="0037"/>
  <outline>
    <contour>
      <point x="177" y="1340" type="line"/>
      <point x="899" y="1340" type="line"/>
      <point x="899" y="1221"/>
      <point x="535" y="819"/>
      <point x="443" y="392" type="curve" smooth="yes"/>
      <point x="421" y="287"/>
      <point x="420" y="81"/>
      <point x="420" y="0" type="curve"/>
      <point x="625" y="0" type="line"/>
      <point x="625" y="19" type="line"/>
      <point x="625" y="22" type="line"/>
      <point x="625" y="24" type="line"/>
      <point x="625" y="26" type="line"/>
      <point x="625" y="28" type="line"/>
      <point x="625" y="30" type="line"/>
      <point x="625" y="33" type="line"/>
      <point x="625" y="35" type="line"/>
      <point x="625" y="75" type="line" smooth="yes"/>
      <point x="625" y="154"/>
      <point x="628" y="248"/>
      <point x="638" y="329" type="curve" smooth="yes"/>
      <point x="682" y="709"/>
      <point x="1120" y="1198"/>
      <point x="1120" y="1370" type="curve" smooth="yes"/>
      <point x="1120" y="1500" type="line"/>
      <point x="177" y="1500" type="line"/>
    </contour>
  </outline>
</glyph>
<glyph name="eight" format="2">
  <advance width="1300"/>
  <unicode hex="0038"/>
  <outline>
    <contour>
      <point x="631" y="1517" type="curve" smooth="yes"/>
      <point x="455" y="1517"/>
      <point x="225" y="1403"/>
      <point x="225" y="1144" type="curve" smooth="yes"/>
      <point x="225" y="1012"/>
      <point x="325" y="927"/>
      <point x="449" y="850" type="curve"/>
      <point x="278" y="767"/>
      <point x="149" y="637"/>
      <point x="149" y="424" type="curve" smooth="yes"/>
      <point x="149" y="136"/>
      <point x="385" y="-17"/>
      <point x="637" y="-17" type="curve" smooth="yes"/>
      <point x="896" y="-17"/>
      <point x="1152" y="114"/>
      <point x="1152" y="410" type="curve" smooth="yes"/>
      <point x="1152" y="622"/>
      <point x="1034" y="758"/>
      <point x="837" y="846" type="curve"/>
      <point x="954" y="915"/>
      <point x="1055" y="998"/>
      <point x="1055" y="1155" type="curve" smooth="yes"/>
      <point x="1055" y="1379"/>
      <point x="875" y="1517"/>
    </contour>
    <contour>
      <point x="661" y="923" type="curve"/>
      <point x="530" y="982"/>
      <point x="418" y="1045"/>
      <point x="418" y="1167" type="curve" smooth="yes"/>
      <point x="418" y="1275"/>
      <point x="530" y="1352"/>
      <point x="650" y="1352" type="curve" smooth="yes"/>
      <point x="741" y="1352"/>
      <point x="862" y="1297"/>
      <point x="862" y="1163" type="curve" smooth="yes"/>
      <point x="862" y="1052"/>
      <point x="784" y="978"/>
    </contour>
    <contour>
      <point x="620" y="760" type="curve"/>
      <point x="782" y="691"/>
      <point x="954" y="593"/>
      <point x="954" y="415" type="curve" smooth="yes"/>
      <point x="954" y="242"/>
      <point x="810" y="147"/>
      <point x="638" y="147" type="curve" smooth="yes"/>
      <point x="488" y="147"/>
      <point x="346" y="254"/>
      <point x="346" y="414" type="curve" smooth="yes"/>
      <point x="346" y="591"/>
      <point x="453" y="688"/>
    </contour>
  </outline>
</glyph>
<glyph name="nine" format="2">
  <advance width="1300"/>
  <unicode hex="0039"/>
  <outline>
    <contour>
      <point x="949" y="780" type="line"/>
      <point x="930" y="438"/>
      <point x="670" y="166"/>
      <point x="351" y="150" type="curve"/>
      <point x="382" y="-17" type="line"/>
      <point x="853" y="3"/>
      <point x="1143" y="415"/>
      <point x="1143" y="880" type="curve" smooth="yes"/>
      <point x="1143" y="1116"/>
      <point x="1040" y="1517"/>
      <point x="639" y="1517" type="curve" smooth="yes"/>
      <point x="340" y="1517"/>
      <point x="150" y="1318"/>
      <point x="150" y="1031" type="curve" smooth="yes"/>
      <point x="150" y="754"/>
      <point x="355" y="573"/>
      <point x="616" y="573" type="curve" smooth="yes"/>
      <point x="716" y="573"/>
      <point x="790" y="602"/>
      <point x="869" y="663" type="curve"/>
    </contour>
    <contour>
      <point x="937" y="953" type="curve"/>
      <point x="889" y="839"/>
      <point x="767" y="743"/>
      <point x="626" y="743" type="curve" smooth="yes"/>
      <point x="441" y="743"/>
      <point x="354" y="876"/>
      <point x="354" y="1049" type="curve" smooth="yes"/>
      <point x="354" y="1225"/>
      <point x="467" y="1347"/>
      <point x="647" y="1347" type="curve" smooth="yes"/>
      <point x="839" y="1347"/>
      <point x="929" y="1152"/>
    </contour>
  </outline>
</glyph>
<glyph name="colon" format="2">
  <advance width="1300"/>
  <unicode hex="003A"/>
  <outline>
    <contour>
      <point x="502" y="647" type="curve" smooth="yes"/>
      <point x="502" y="564"/>
      <point x="569" y="497"/>
      <point x="652" y="497" type="curve" smooth="yes"/>
      <point x="732" y="497"/>
      <point x="798" y="564"/>
      <point x="798" y="647" type="curve" smooth="yes"/>
      <point x="798" y="730"/>
      <point x="733" y="795"/>
      <point x="650" y="795" type="curve" smooth="yes"/>
      <point x="569" y="795"/>
      <point x="502" y="730"/>
    </contour>
    <contour>
      <point x="502" y="133" type="curve" smooth="yes"/>
      <point x="502" y="50"/>
      <point x="569" y="-17"/>
      <point x="652" y="-17" type="curve" smooth="yes"/>
      <point x="732" y="-17"/>
      <point x="798" y="50"/>
      <point x="798" y="133" type="curve" smooth="yes"/>
      <point x="798" y="216"/>
      <point x="733" y="281"/>
      <point x="650" y="281" type="curve" smooth="yes"/>
      <point x="569" y="281"/>
      <point x="502" y="216"/>
    </contour>
  </outline>
</glyph>
<glyph name="semicolon" format="2">
  <advance width="1300"/>
  <unicode hex="003B"/>
  <outline>
    <contour>
      <point x="502" y="641" type="curve" smooth="yes"/>
      <point x="502" y="558"/>
      <point x="569" y="491"/>
      <point x="652" y="491" type="curve" smooth="yes"/>
      <point x="732" y="491"/>
      <point x="798" y="558"/>
      <point x="798" y="641" type="curve" smooth="yes"/>
      <point x="798" y="724"/>
      <point x="733" y="789"/>
      <point x="650" y="789" type="curve" smooth="yes"/>
      <point x="569" y="789"/>
      <point x="502" y="724"/>
    </contour>
    <contour>
      <point x="502" y="127" type="curve" smooth="yes"/>
      <point x="502" y="35"/>
      <point x="567" y="-14"/>
      <point x="635" y="-17" type="curve"/>
      <point x="635" y="-76"/>
      <point x="615" y="-141"/>
      <point x="595" y="-193" type="curve" smooth="yes"/>
      <point x="583" y="-224"/>
      <point x="569" y="-255"/>
      <point x="554" y="-284" type="curve"/>
      <point x="606" y="-307" type="line"/>
      <point x="772" y="-154"/>
      <point x="798" y="-29"/>
      <point x="798" y="110" type="curve" smooth="yes"/>
      <point x="798" y="215"/>
      <point x="726" y="271"/>
      <point x="650" y="271" type="curve" smooth="yes"/>
      <point x="569" y="271"/>
      <point x="502" y="205"/>
    </contour>
  </outline>
</glyph>
<glyph name="greater" format="2">
  <advance width="1300"/>
  <unicode hex="003E"/>
  <outline>
    <contour>
      <point x="200" y="1211" type="line"/>
      <point x="200" y="1036" type="line"/>
      <point x="887" y="670" type="line"/>
      <point x="965" y="650" type="line"/>
      <point x="888" y="630" type="line"/>
      <point x="200" y="266" type="line"/>
      <point x="200" y="91" type="line"/>
      <point x="1100" y="548" type="line"/>
      <point x="1100" y="757" type="line"/>
    </contour>
  </outline>
</glyph>
<glyph name="question" format="2">
  <advance width="1300"/>
  <unicode hex="003F"/>
  <outline>
    <contour>
      <point x="1000" y="1144" type="curve" smooth="yes"/>
      <point x="1000" y="1400"/>
      <point x="786" y="1517"/>
      <point x="560" y="1517" type="curve" smooth="yes"/>
      <point x="420" y="1517"/>
      <point x="238" y="1477"/>
      <point x="107" y="1300" type="curve"/>
      <point x="240" y="1190" type="line"/>
      <point x="315" y="1290"/>
      <point x="433" y="1351"/>
      <point x="535" y="1351" type="curve" smooth="yes"/>
      <point x="676" y="1351"/>
      <point x="790" y="1292"/>
      <point x="790" y="1152" type="curve" smooth="yes"/>
      <point x="790" y="899"/>
      <point x="395" y="903"/>
      <point x="395" y="429" type="curve"/>
      <point x="605" y="450" type="line"/>
      <point x="605" y="783"/>
      <point x="1000" y="807"/>
    </contour>
    <contour>
      <point x="378" y="106" type="curve" smooth="yes"/>
      <point x="378" y="39"/>
      <point x="432" y="-17"/>
      <point x="500" y="-17" type="curve" smooth="yes"/>
      <point x="567" y="-17"/>
      <point x="620" y="39"/>
      <point x="620" y="106" type="curve" smooth="yes"/>
      <point x="620" y="173"/>
      <point x="566" y="227"/>
      <point x="499" y="227" type="curve" smooth="yes"/>
      <point x="432" y="227"/>
      <point x="378" y="173"/>
    </contour>
  </outline>
</glyph>
<glyph name="at" format="2">
  <advance width="1300"/>
  <unicode hex="0040"/>
  <outline>
    <contour>
      <point x="651" y="1486" type="curve" smooth="yes"/>
      <point x="296" y="1486"/>
      <point x="120" y="1065"/>
      <point x="120" y="540" type="curve" smooth="yes"/>
      <point x="120" y="29"/>
      <point x="260" y="-410"/>
      <point x="651" y="-410" type="curve" smooth="yes"/>
      <point x="742" y="-410"/>
      <point x="817" y="-382"/>
      <point x="889" y="-322" type="curve"/>
      <point x="840" y="-173" type="line"/>
      <point x="809" y="-209"/>
      <point x="735" y="-254"/>
      <point x="655" y="-254" type="curve" smooth="yes"/>
      <point x="371" y="-254"/>
      <point x="276" y="171"/>
      <point x="276" y="584" type="curve" smooth="yes"/>
      <point x="276" y="968"/>
      <point x="439" y="1330"/>
      <point x="647" y="1330" type="curve" smooth="yes"/>
      <point x="948" y="1330"/>
      <point x="1030" y="957"/>
      <point x="1030" y="501" type="curve" smooth="yes"/>
      <point x="1030" y="425"/>
      <point x="1027" y="100"/>
      <point x="946" y="100" type="curve" smooth="yes"/>
      <point x="902" y="100"/>
      <point x="890" y="133"/>
      <point x="890" y="174" type="curve" smooth="yes"/>
      <point x="890" y="676" type="line" smooth="yes"/>
      <point x="890" y="916"/>
      <point x="890" y="1036"/>
      <point x="663" y="1036" type="curve" smooth="yes"/>
      <point x="603" y="1036"/>
      <point x="562" y="1023"/>
      <point x="534" y="1008" type="curve"/>
      <point x="517" y="1000"/>
      <point x="503" y="991"/>
      <point x="492" y="981" type="curve"/>
      <point x="492" y="854" type="line"/>
      <point x="491" y="853"/>
      <point x="571" y="900"/>
      <point x="657" y="900" type="curve" smooth="yes"/>
      <point x="741" y="900"/>
      <point x="742" y="836"/>
      <point x="742" y="690" type="curve" smooth="yes"/>
      <point x="742" y="655" type="line"/>
      <point x="738" y="662"/>
      <point x="732" y="669"/>
      <point x="724" y="675" type="curve" smooth="yes"/>
      <point x="709" y="686"/>
      <point x="684" y="695"/>
      <point x="640" y="695" type="curve" smooth="yes"/>
      <point x="508" y="695"/>
      <point x="396" y="578"/>
      <point x="396" y="337" type="curve" smooth="yes"/>
      <point x="396" y="106"/>
      <point x="509" y="-17"/>
      <point x="632" y="-17" type="curve" smooth="yes"/>
      <point x="663" y="-17"/>
      <point x="687" y="-9"/>
      <point x="705" y="8" type="curve"/>
      <point x="743" y="108" type="line"/>
      <point x="764" y="21"/>
      <point x="850" y="-34"/>
      <point x="939" y="-34" type="curve" smooth="yes"/>
      <point x="1151" y="-34"/>
      <point x="1180" y="258"/>
      <point x="1180" y="578" type="curve" smooth="yes"/>
      <point x="1180" y="1073"/>
      <point x="1029" y="1486"/>
    </contour>
    <contour>
      <point x="742" y="267" type="line"/>
      <point x="735" y="243"/>
      <point x="727" y="222"/>
      <point x="718" y="203" type="curve" smooth="yes"/>
      <point x="702" y="171"/>
      <point x="678" y="139"/>
      <point x="647" y="139" type="curve" smooth="yes"/>
      <point x="580" y="139"/>
      <point x="548" y="220"/>
      <point x="548" y="337" type="curve" smooth="yes"/>
      <point x="548" y="481"/>
      <point x="604" y="537"/>
      <point x="683" y="537" type="curve" smooth="yes"/>
      <point x="714" y="537"/>
      <point x="728" y="533"/>
      <point x="735" y="529" type="curve" smooth="yes"/>
      <point x="739" y="526"/>
      <point x="741" y="524"/>
      <point x="742" y="522" type="curve"/>
    </contour>
  </outline>
</glyph>
<glyph name="A" format="2">
  <advance width="1300"/>
  <unicode hex="0041"/>
  <outline>
    <contour>
      <point x="431" y="600" type="line"/>
      <point x="600" y="1080" type="line"/>
      <point x="645" y="1400" type="line"/>
      <point x="690" y="1080" type="line"/>
      <point x="868" y="600" type="line"/>
    </contour>
    <contour>
      <point x="917" y="450" type="line"/>
      <point x="1065" y="0" type="line"/>
      <point x="1265" y="0" type="line"/>
      <point x="717" y="1520" type="line"/>
      <point x="539" y="1500" type="line"/>
      <point x="504" y="1300" type="line"/>
      <point x="32" y="0" type="line"/>
      <point x="216" y="0" type="line"/>
      <point x="382" y="450" type="line"/>
    </contour>
  </outline>
</glyph>
<glyph name="B" format="2">
  <advance width="1300"/>
  <unicode hex="0042"/>
  <outline>
    <contour>
      <point x="580" y="0" type="line" smooth="yes"/>
      <point x="830" y="0"/>
      <point x="1117" y="120"/>
      <point x="1117" y="460" type="curve" smooth="yes"/>
      <point x="1117" y="655"/>
      <point x="987" y="754"/>
      <point x="823" y="802" type="curve"/>
      <point x="676" y="816" type="line"/>
      <point x="830" y="860" type="line"/>
      <point x="946" y="916"/>
      <point x="1011" y="1024"/>
      <point x="1011" y="1169" type="curve" smooth="yes"/>
      <point x="1011" y="1445"/>
      <point x="741" y="1510"/>
      <point x="432" y="1510" type="curve" smooth="yes"/>
      <point x="345" y="1510"/>
      <point x="260" y="1501"/>
      <point x="180" y="1490" type="curve"/>
      <point x="210" y="1290" type="line"/>
      <point x="210" y="0" type="line"/>
    </contour>
    <contour>
      <point x="359" y="1360" type="line"/>
      <point x="400" y="1368"/>
      <point x="452" y="1371"/>
      <point x="497" y="1371" type="curve" smooth="yes"/>
      <point x="650" y="1371"/>
      <point x="830" y="1325"/>
      <point x="830" y="1148" type="curve" smooth="yes"/>
      <point x="830" y="967"/>
      <point x="664" y="893"/>
      <point x="500" y="885" type="curve"/>
      <point x="395" y="885" type="line"/>
      <point x="395" y="1147" type="line"/>
    </contour>
    <contour>
      <point x="395" y="730" type="line"/>
      <point x="560" y="730" type="line" smooth="yes"/>
      <point x="777" y="730"/>
      <point x="922" y="650"/>
      <point x="922" y="450" type="curve" smooth="yes"/>
      <point x="922" y="230"/>
      <point x="769" y="160"/>
      <point x="505" y="160" type="curve" smooth="yes"/>
      <point x="395" y="160" type="line"/>
    </contour>
  </outline>
</glyph>
<glyph name="C" format="2">
  <advance width="1300"/>
  <unicode hex="0043"/>
  <outline>
    <contour>
      <point x="1070" y="230" type="line"/>
      <point x="967" y="172"/>
      <point x="914" y="153"/>
      <point x="795" y="153" type="curve" smooth="yes"/>
      <point x="487" y="153"/>
      <point x="306" y="482"/>
      <point x="306" y="773" type="curve" smooth="yes"/>
      <point x="306" y="1085"/>
      <point x="463" y="1348"/>
      <point x="788" y="1348" type="curve" smooth="yes"/>
      <point x="911" y="1348"/>
      <point x="990" y="1310"/>
      <point x="1054" y="1268" type="curve"/>
      <point x="1144" y="1375" type="line"/>
      <point x="1048" y="1467"/>
      <point x="925" y="1517"/>
      <point x="772" y="1517" type="curve" smooth="yes"/>
      <point x="332" y="1517"/>
      <point x="100" y="1173"/>
      <point x="100" y="770" type="curve" smooth="yes"/>
      <point x="100" y="339"/>
      <point x="384" y="-17"/>
      <point x="769" y="-17" type="curve" smooth="yes"/>
      <point x="926" y="-17"/>
      <point x="1038" y="16"/>
      <point x="1147" y="104" type="curve"/>
    </contour>
  </outline>
</glyph>
<glyph name="D" format="2">
  <advance width="1300"/>
  <unicode hex="0044"/>
  <outline>
    <contour>
      <point x="205" y="1290" type="line"/>
      <point x="205" y="0" type="line"/>
      <point x="476" y="0" type="line" smooth="yes"/>
      <point x="875" y="0"/>
      <point x="1225" y="227"/>
      <point x="1225" y="810" type="curve" smooth="yes"/>
      <point x="1225" y="1310"/>
      <point x="909" y="1511"/>
      <point x="485" y="1511" type="curve" smooth="yes"/>
      <point x="397" y="1511"/>
      <point x="258" y="1508"/>
      <point x="175" y="1500" type="curve"/>
    </contour>
    <contour>
      <point x="370" y="1350" type="line"/>
      <point x="408" y="1354" type="line"/>
      <point x="429" y="1357"/>
      <point x="455" y="1358"/>
      <point x="476" y="1358" type="curve" smooth="yes"/>
      <point x="933" y="1358"/>
      <point x="1015" y="1119"/>
      <point x="1015" y="780" type="curve" smooth="yes"/>
      <point x="1015" y="550"/>
      <point x="932" y="160"/>
      <point x="415" y="160" type="curve" smooth="yes"/>
      <point x="395" y="160" type="line"/>
      <point x="395" y="1150" type="line"/>
    </contour>
  </outline>
</glyph>
<glyph name="F" format="2">
  <advance width="1300"/>
  <unicode hex="0046"/>
  <outline>
    <contour>
      <point x="395" y="740" type="line"/>
      <point x="1015" y="740" type="line"/>
      <point x="1015" y="885" type="line"/>
      <point x="395" y="885" type="line"/>
      <point x="395" y="1150" type="line"/>
      <point x="375" y="1340" type="line"/>
      <point x="1100" y="1340" type="line"/>
      <point x="1120" y="1500" type="line"/>
      <point x="175" y="1500" type="line"/>
      <point x="205" y="1290" type="line"/>
      <point x="205" y="0" type="line"/>
      <point x="395" y="0" type="line"/>
    </contour>
  </outline>
</glyph>
<glyph name="G" format="2">
  <advance width="1300"/>
  <unicode hex="0047"/>
  <outline>
    <contour>
      <point x="1190" y="762" type="line"/>
      <point x="700" y="762" type="line"/>
      <point x="700" y="632" type="line"/>
      <point x="1014" y="612" type="line"/>
      <point x="1014" y="263" type="line"/>
      <point x="966" y="213"/>
      <point x="844" y="153"/>
      <point x="724" y="153" type="curve" smooth="yes"/>
      <point x="417" y="153"/>
      <point x="338" y="498"/>
      <point x="338" y="773" type="curve" smooth="yes"/>
      <point x="338" y="1085"/>
      <point x="413" y="1348"/>
      <point x="737" y="1348" type="curve" smooth="yes"/>
      <point x="862" y="1348"/>
      <point x="959" y="1311"/>
      <point x="1023" y="1268" type="curve"/>
      <point x="1113" y="1375" type="line"/>
      <point x="1017" y="1467"/>
      <point x="874" y="1517"/>
      <point x="721" y="1517" type="curve" smooth="yes"/>
      <point x="281" y="1517"/>
      <point x="128" y="1173"/>
      <point x="128" y="770" type="curve" smooth="yes"/>
      <point x="128" y="339"/>
      <point x="313" y="-17"/>
      <point x="698" y="-17" type="curve" smooth="yes"/>
      <point x="920" y="-17"/>
      <point x="1080" y="76"/>
      <point x="1190" y="197" type="curve"/>
    </contour>
  </outline>
</glyph>
<glyph name="H" format="2">
  <advance width="1300"/>
  <unicode hex="0048"/>
  <outline>
    <contour>
      <point x="1136" y="0" type="line"/>
      <point x="1136" y="1520" type="line"/>
      <point x="946" y="1500" type="line"/>
      <point x="946" y="885" type="line"/>
      <point x="378" y="885" type="line"/>
      <point x="378" y="1520" type="line"/>
      <point x="159" y="1500" type="line"/>
      <point x="188" y="1290" type="line"/>
      <point x="188" y="0" type="line"/>
      <point x="378" y="0" type="line"/>
      <point x="378" y="725" type="line"/>
      <point x="946" y="725" type="line"/>
      <point x="946" y="0" type="line"/>
    </contour>
  </outline>
</glyph>
<glyph name="I" format="2">
  <advance width="1300"/>
  <unicode hex="0049"/>
  <outline>
    <contour>
      <point x="180" y="1340" type="line"/>
      <point x="556" y="1340" type="line"/>
      <point x="556" y="160" type="line"/>
      <point x="200" y="160" type="line"/>
      <point x="200" y="0" type="line"/>
      <point x="1100" y="0" type="line"/>
      <point x="1120" y="160" type="line"/>
      <point x="742" y="160" type="line"/>
      <point x="742" y="1340" type="line"/>
      <point x="1100" y="1340" type="line"/>
      <point x="1100" y="1500" type="line"/>
      <point x="200" y="1500" type="line"/>
    </contour>
  </outline>
</glyph>
<glyph name="J" format="2">
  <advance width="1300"/>
  <unicode hex="004A"/>
  <outline>
    <contour>
      <point x="410" y="1340" type="line"/>
      <point x="930" y="1340" type="line"/>
      <point x="910" y="1148" type="line"/>
      <point x="910" y="470" type="line" smooth="yes"/>
      <point x="910" y="259"/>
      <point x="810" y="166"/>
      <point x="638" y="166" type="curve" smooth="yes"/>
      <point x="490" y="166"/>
      <point x="370" y="272"/>
      <point x="342" y="300" type="curve"/>
      <point x="240" y="182" type="line"/>
      <point x="325" y="94"/>
      <point x="440" y="-17"/>
      <point x="648" y="-17" type="curve" smooth="yes"/>
      <point x="811" y="-17"/>
      <point x="921" y="28"/>
      <point x="990" y="112" type="curve" smooth="yes"/>
      <point x="1059" y="196"/>
      <point x="1090" y="301"/>
      <point x="1090" y="430" type="curve" smooth="yes"/>
      <point x="1090" y="1500" type="line"/>
      <point x="390" y="1500" type="line"/>
    </contour>
  </outline>
</glyph>
<glyph name="K" format="2">
  <advance width="1300"/>
  <unicode hex="004B"/>
  <outline>
    <contour>
      <point x="396" y="0" type="line"/>
      <point x="396" y="746" type="line"/>
      <point x="954" y="0" type="line"/>
      <point x="1191" y="0" type="line"/>
      <point x="638" y="744" type="line"/>
      <point x="464" y="802" type="line"/>
      <point x="633" y="865" type="line"/>
      <point x="1164" y="1500" type="line"/>
      <point x="942" y="1500" type="line"/>
      <point x="396" y="856" type="line"/>
      <point x="396" y="1520" type="line"/>
      <point x="175" y="1500" type="line"/>
      <point x="205" y="1290" type="line"/>
      <point x="205" y="0" type="line"/>
    </contour>
  </outline>
</glyph>
<glyph name="L" format="2">
  <advance width="1300"/>
  <unicode hex="004C"/>
  <outline>
    <contour>
      <point x="393" y="340" type="line"/>
      <point x="393" y="1520" type="line"/>
      <point x="178" y="1500" type="line"/>
      <point x="208" y="1290" type="line"/>
      <point x="208" y="200" type="line"/>
      <point x="188" y="0" type="line"/>
      <point x="1093" y="0" type="line"/>
      <point x="1113" y="160" type="line"/>
      <point x="383" y="160" type="line"/>
    </contour>
  </outline>
</glyph>
<glyph name="M" format="2">
  <advance width="1300"/>
  <unicode hex="004D"/>
  <outline>
    <contour>
      <point x="1153" y="0" type="line"/>
      <point x="1153" y="1520" type="line"/>
      <point x="946" y="1500" type="line"/>
      <point x="720" y="950" type="line"/>
      <point x="651" y="700" type="line"/>
      <point x="580" y="950" type="line"/>
      <point x="334" y="1520" type="line"/>
      <point x="120" y="1500" type="line"/>
      <point x="148" y="1290" type="line"/>
      <point x="148" y="0" type="line"/>
      <point x="328" y="0" type="line"/>
      <point x="328" y="901" type="line"/>
      <point x="254" y="1399" type="line"/>
      <point x="260" y="1400" type="line"/>
      <point x="424" y="920" type="line"/>
      <point x="600" y="500" type="line"/>
      <point x="700" y="500" type="line"/>
      <point x="873" y="921" type="line"/>
      <point x="1027" y="1400" type="line"/>
      <point x="1032" y="1399" type="line"/>
      <point x="973" y="901" type="line"/>
      <point x="973" y="0" type="line"/>
    </contour>
  </outline>
</glyph>
<glyph name="N" format="2">
  <advance width="1300"/>
  <unicode hex="004E"/>
  <outline>
    <contour>
      <point x="1110" y="0" type="line"/>
      <point x="1110" y="1520" type="line"/>
      <point x="930" y="1500" type="line"/>
      <point x="930" y="580" type="line"/>
      <point x="1009" y="141" type="line"/>
      <point x="1003" y="140" type="line"/>
      <point x="837" y="557" type="line"/>
      <point x="341" y="1520" type="line"/>
      <point x="140" y="1500" type="line"/>
      <point x="170" y="1290" type="line"/>
      <point x="170" y="0" type="line"/>
      <point x="350" y="0" type="line"/>
      <point x="350" y="920" type="line"/>
      <point x="285" y="1360" type="line"/>
      <point x="291" y="1361" type="line"/>
      <point x="450" y="948" type="line"/>
      <point x="945" y="0" type="line"/>
    </contour>
  </outline>
</glyph>
<glyph name="O" format="2">
  <advance width="1300"/>
  <unicode hex="004F"/>
  <outline>
    <contour>
      <point x="650" y="-17" type="curve" smooth="yes"/>
      <point x="1020" y="-17"/>
      <point x="1200" y="330"/>
      <point x="1200" y="750" type="curve" smooth="yes"/>
      <point x="1200" y="1170"/>
      <point x="1010" y="1517"/>
      <point x="650" y="1517" type="curve" smooth="yes"/>
      <point x="280" y="1517"/>
      <point x="100" y="1170"/>
      <point x="100" y="750" type="curve" smooth="yes"/>
      <point x="100" y="330"/>
      <point x="290" y="-17"/>
    </contour>
    <contour>
      <point x="992" y="719" type="curve" smooth="yes"/>
      <point x="992" y="476"/>
      <point x="941" y="158"/>
      <point x="656" y="158" type="curve" smooth="yes"/>
      <point x="352" y="158"/>
      <point x="308" y="502"/>
      <point x="308" y="785" type="curve" smooth="yes"/>
      <point x="308" y="1030"/>
      <point x="356" y="1342"/>
      <point x="644" y="1342" type="curve" smooth="yes"/>
      <point x="948" y="1342"/>
      <point x="992" y="998"/>
    </contour>
  </outline>
</glyph>
<glyph name="Q" format="2">
  <advance width="1300"/>
  <unicode hex="0051"/>
  <outline>
    <contour>
      <point x="756" y="137" type="line"/>
      <point x="774" y="102" type="line" smooth="yes"/>
      <point x="886" y="-115"/>
      <point x="966" y="-145"/>
      <point x="1100" y="-145" type="curve"/>
      <point x="1151" y="0" type="line"/>
      <point x="1038" y="0"/>
      <point x="1018" y="8"/>
      <point x="968" y="92" type="curve"/>
      <point x="979" y="101"/>
      <point x="991" y="113"/>
      <point x="1002" y="124" type="curve" smooth="yes"/>
      <point x="1146" y="262"/>
      <point x="1200" y="526"/>
      <point x="1200" y="782" type="curve" smooth="yes"/>
      <point x="1200" y="1202"/>
      <point x="1010" y="1517"/>
      <point x="650" y="1517" type="curve" smooth="yes"/>
      <point x="280" y="1517"/>
      <point x="100" y="1170"/>
      <point x="100" y="750" type="curve" smooth="yes"/>
      <point x="100" y="350"/>
      <point x="269" y="-14"/>
      <point x="600" y="-14" type="curve" smooth="yes"/>
      <point x="664" y="-14"/>
      <point x="712" y="-11"/>
      <point x="756" y="0" type="curve"/>
    </contour>
    <contour>
      <point x="916" y="177" type="line"/>
      <point x="798" y="388"/>
      <point x="733" y="500"/>
      <point x="600" y="500" type="curve"/>
      <point x="549" y="356" type="line"/>
      <point x="641" y="356"/>
      <point x="666" y="293"/>
      <point x="736" y="172" type="curve"/>
      <point x="713" y="165"/>
      <point x="706" y="163"/>
      <point x="693" y="163" type="curve"/>
      <point x="343" y="167"/>
      <point x="300" y="464"/>
      <point x="300" y="785" type="curve" smooth="yes"/>
      <point x="300" y="1030"/>
      <point x="374" y="1347"/>
      <point x="644" y="1347" type="curve" smooth="yes"/>
      <point x="929" y="1347"/>
      <point x="1000" y="1030"/>
      <point x="1000" y="751" type="curve" smooth="yes"/>
      <point x="1000" y="517"/>
      <point x="967" y="400"/>
      <point x="916" y="314" type="curve"/>
    </contour>
  </outline>
</glyph>
<glyph name="R" format="2">
  <advance width="1300"/>
  <unicode hex="0052"/>
  <outline>
    <contour>
      <point x="482" y="614" type="line" smooth="yes"/>
      <point x="493" y="614"/>
      <point x="514" y="614"/>
      <point x="529" y="595" type="curve"/>
      <point x="932" y="0" type="line"/>
      <point x="1155" y="0" type="line"/>
      <point x="752" y="593" type="line"/>
      <point x="610" y="633" type="line"/>
      <point x="870" y="679"/>
      <point x="1073" y="818"/>
      <point x="1073" y="1099" type="curve" smooth="yes"/>
      <point x="1073" y="1369"/>
      <point x="825" y="1512"/>
      <point x="489" y="1512" type="curve" smooth="yes"/>
      <point x="373" y="1512"/>
      <point x="263" y="1501"/>
      <point x="174" y="1490" type="curve"/>
      <point x="209" y="1290" type="line"/>
      <point x="209" y="0" type="line"/>
      <point x="392" y="0" type="line"/>
      <point x="392" y="614" type="line"/>
    </contour>
    <contour>
      <point x="372" y="1364" type="line"/>
      <point x="416" y="1372"/>
      <point x="458" y="1375"/>
      <point x="514" y="1375" type="curve" smooth="yes"/>
      <point x="678" y="1375"/>
      <point x="887" y="1311"/>
      <point x="887" y="1083" type="curve" smooth="yes"/>
      <point x="887" y="911"/>
      <point x="752" y="765"/>
      <point x="510" y="765" type="curve" smooth="yes"/>
      <point x="392" y="765" type="line"/>
      <point x="392" y="1147" type="line"/>
    </contour>
  </outline>
</glyph>
<glyph name="U" format="2">
  <advance width="1300"/>
  <unicode hex="0055"/>
  <outline>
    <contour>
      <point x="925" y="1500" type="line"/>
      <point x="925" y="504" type="line" smooth="yes"/>
      <point x="925" y="269"/>
      <point x="841" y="153"/>
      <point x="645" y="153" type="curve" smooth="yes"/>
      <point x="477" y="153"/>
      <point x="375" y="301"/>
      <point x="375" y="554" type="curve" smooth="yes"/>
      <point x="375" y="1520" type="line"/>
      <point x="155" y="1500" type="line"/>
      <point x="185" y="1290" type="line"/>
      <point x="185" y="573" type="line" smooth="yes"/>
      <point x="185" y="220"/>
      <point x="310" y="-17"/>
      <point x="635" y="-17" type="curve" smooth="yes"/>
      <point x="938" y="-17"/>
      <point x="1115" y="160"/>
      <point x="1115" y="523" type="curve" smooth="yes"/>
      <point x="1115" y="1500" type="line"/>
    </contour>
  </outline>
</glyph>
<glyph name="V" format="2">
  <advance width="1300"/>
  <unicode hex="0056"/>
  <outline>
    <contour>
      <point x="302" y="1520" type="line"/>
      <point x="112" y="1500" type="line"/>
      <point x="554" y="0" type="line"/>
      <point x="782" y="-20" type="line"/>
      <point x="808" y="180" type="line"/>
      <point x="1195" y="1500" type="line"/>
      <point x="1011" y="1500" type="line"/>
      <point x="701" y="454" type="line"/>
      <point x="663" y="140" type="line"/>
      <point x="605" y="500" type="line"/>
    </contour>
  </outline>
</glyph>
<glyph name="Y" format="2">
  <advance width="1300"/>
  <unicode hex="0059"/>
  <outline>
    <contour>
      <point x="661" y="705" type="line"/>
      <point x="582" y="954" type="line"/>
      <point x="294" y="1520" type="line"/>
      <point x="90" y="1500" type="line"/>
      <point x="526" y="645" type="line"/>
      <point x="526" y="0" type="line"/>
      <point x="736" y="0" type="line"/>
      <point x="736" y="646" type="line"/>
      <point x="1171" y="1500" type="line"/>
      <point x="979" y="1500" type="line"/>
      <point x="691" y="935" type="line"/>
    </contour>
  </outline>
</glyph>
<glyph name="Z" format="2">
  <advance width="1300"/>
  <unicode hex="005A"/>
  <outline>
    <contour>
      <point x="587" y="160" type="line"/>
      <point x="322" y="120" type="line"/>
      <point x="500" y="300" type="line"/>
      <point x="1071" y="1478" type="line"/>
      <point x="1056" y="1500" type="line"/>
      <point x="230" y="1500" type="line"/>
      <point x="250" y="1340" type="line"/>
      <point x="645" y="1340" type="line"/>
      <point x="910" y="1380" type="line"/>
      <point x="726" y="1200" type="line"/>
      <point x="161" y="50" type="line"/>
      <point x="181" y="0" type="line"/>
      <point x="1121" y="0" type="line"/>
      <point x="1101" y="160" type="line"/>
    </contour>
  </outline>
</glyph>
<glyph name="bracketright" format="2">
  <advance width="1300"/>
  <unicode hex="005D"/>
  <outline>
    <contour>
      <point x="978" y="1320" type="line"/>
      <point x="1000" y="1520" type="line"/>
      <point x="428" y="1520" type="line"/>
      <point x="428" y="1370" type="line"/>
      <point x="800" y="1370" type="line"/>
      <point x="780" y="1170" type="line"/>
      <point x="780" y="-70" type="line"/>
      <point x="800" y="-270" type="line"/>
      <point x="428" y="-270" type="line"/>
      <point x="428" y="-420" type="line"/>
      <point x="1000" y="-420" type="line"/>
      <point x="978" y="-220" type="line"/>
    </contour>
  </outline>
</glyph>
<glyph name="underscore" format="2">
  <advance width="1300"/>
  <unicode hex="005F"/>
  <outline>
    <contour>
      <point x="100" y="-455" type="line"/>
      <point x="1200" y="-455" type="line"/>
      <point x="1200" y="-300" type="line"/>
      <point x="100" y="-300" type="line"/>
    </contour>
  </outline>
</glyph>
<glyph name="a" format="2">
  <advance width="1300"/>
  <unicode hex="0061"/>
  <outline>
    <contour>
      <point x="1090" y="180" type="line"/>
      <point x="1090" y="690" type="line" smooth="yes"/>
      <point x="1090" y="945"/>
      <point x="973" y="1117"/>
      <point x="665" y="1117" type="curve" smooth="yes"/>
      <point x="546" y="1117"/>
      <point x="414" y="1095"/>
      <point x="305" y="1044" type="curve"/>
      <point x="377" y="910" type="line"/>
      <point x="468" y="937"/>
      <point x="559" y="957"/>
      <point x="655" y="957" type="curve" smooth="yes"/>
      <point x="835" y="957"/>
      <point x="910" y="863"/>
      <point x="910" y="705" type="curve" smooth="yes"/>
      <point x="910" y="662" type="line"/>
      <point x="843" y="687"/>
      <point x="752" y="702"/>
      <point x="625" y="702" type="curve" smooth="yes"/>
      <point x="400" y="702"/>
      <point x="170" y="592"/>
      <point x="170" y="344" type="curve" smooth="yes"/>
      <point x="170" y="109"/>
      <point x="396" y="-17"/>
      <point x="596" y="-17" type="curve" smooth="yes"/>
      <point x="669" y="-17"/>
      <point x="770" y="15"/>
      <point x="816" y="50" type="curve"/>
      <point x="910" y="162" type="line"/>
      <point x="910" y="0" type="line"/>
      <point x="1110" y="0" type="line"/>
    </contour>
    <contour>
      <point x="910" y="274" type="line"/>
      <point x="823" y="194"/>
      <point x="728" y="143"/>
      <point x="604" y="143" type="curve" smooth="yes"/>
      <point x="479" y="143"/>
      <point x="363" y="225"/>
      <point x="363" y="345" type="curve" smooth="yes"/>
      <point x="363" y="493"/>
      <point x="517" y="542"/>
      <point x="665" y="542" type="curve" smooth="yes"/>
      <point x="678" y="542"/>
      <point x="693" y="542"/>
      <point x="711" y="541" type="curve"/>
      <point x="721" y="541" type="line"/>
      <point x="724" y="540"/>
      <point x="727" y="540"/>
      <point x="730" y="540" type="curve" smooth="yes"/>
      <point x="742" y="540" type="line" smooth="yes"/>
      <point x="745" y="540"/>
      <point x="748" y="540"/>
      <point x="751" y="539" type="curve"/>
      <point x="764" y="539" type="line"/>
      <point x="799" y="538"/>
      <point x="831" y="534"/>
      <point x="850" y="533" type="curve"/>
      <point x="910" y="525" type="line"/>
    </contour>
  </outline>
</glyph>
<glyph name="b" format="2">
  <advance width="1300"/>
  <unicode hex="0062"/>
  <outline>
    <contour>
      <point x="210" y="35" type="line"/>
      <point x="270" y="11"/>
      <point x="427" y="-17"/>
      <point x="595" y="-17" type="curve" smooth="yes"/>
      <point x="888" y="-17"/>
      <point x="1150" y="228"/>
      <point x="1150" y="596" type="curve" smooth="yes"/>
      <point x="1150" y="932"/>
      <point x="914" y="1117"/>
      <point x="694" y="1117" type="curve" smooth="yes"/>
      <point x="618" y="1117"/>
      <point x="543" y="1097"/>
      <point x="475" y="1065" type="curve"/>
      <point x="390" y="974" type="line"/>
      <point x="390" y="1620" type="line"/>
      <point x="190" y="1600" type="line"/>
      <point x="210" y="1420" type="line"/>
    </contour>
    <contour>
      <point x="390" y="845" type="line"/>
      <point x="474" y="913"/>
      <point x="570" y="957"/>
      <point x="675" y="957" type="curve" smooth="yes"/>
      <point x="800" y="957"/>
      <point x="955" y="868"/>
      <point x="955" y="601" type="curve" smooth="yes"/>
      <point x="955" y="397"/>
      <point x="848" y="143"/>
      <point x="604" y="143" type="curve" smooth="yes"/>
      <point x="528" y="143"/>
      <point x="441" y="155"/>
      <point x="390" y="171" type="curve"/>
    </contour>
  </outline>
</glyph>
<glyph name="c" format="2">
  <advance width="1300"/>
  <unicode hex="0063"/>
  <outline>
    <contour>
      <point x="1106" y="991" type="line"/>
      <point x="1022" y="1083"/>
      <point x="889" y="1117"/>
      <point x="726" y="1117" type="curve" smooth="yes"/>
      <point x="382" y="1117"/>
      <point x="170" y="854"/>
      <point x="170" y="577" type="curve" smooth="yes"/>
      <point x="170" y="269"/>
      <point x="389" y="-17"/>
      <point x="721" y="-17" type="curve" smooth="yes"/>
      <point x="943" y="-17"/>
      <point x="1060" y="76"/>
      <point x="1100" y="111" type="curve"/>
      <point x="1028" y="252" type="line"/>
      <point x="997" y="226"/>
      <point x="874" y="152"/>
      <point x="735" y="152" type="curve" smooth="yes"/>
      <point x="491" y="152"/>
      <point x="365" y="345"/>
      <point x="365" y="564" type="curve" smooth="yes"/>
      <point x="365" y="776"/>
      <point x="500" y="957"/>
      <point x="724" y="957" type="curve" smooth="yes"/>
      <point x="865" y="957"/>
      <point x="955" y="925"/>
      <point x="1007" y="878" type="curve"/>
    </contour>
  </outline>
</glyph>
<glyph name="e" format="2">
  <advance width="1300"/>
  <unicode hex="0065"/>
  <outline>
    <contour>
      <point x="300" y="618" type="line"/>
      <point x="359" y="732" type="line"/>
      <point x="386" y="829"/>
      <point x="474" y="958"/>
      <point x="653" y="958" type="curve" smooth="yes"/>
      <point x="802" y="958"/>
      <point x="932" y="845"/>
      <point x="932" y="694" type="curve" smooth="yes"/>
      <point x="932" y="650" type="line"/>
      <point x="485" y="650" type="line"/>
    </contour>
    <contour>
      <point x="925" y="236" type="line"/>
      <point x="886" y="199"/>
      <point x="820" y="143"/>
      <point x="650" y="143" type="curve" smooth="yes"/>
      <point x="475" y="143"/>
      <point x="340" y="295"/>
      <point x="340" y="500" type="curve"/>
      <point x="1100" y="500" type="line"/>
      <point x="1105" y="544"/>
      <point x="1108" y="597"/>
      <point x="1108" y="638" type="curve" smooth="yes"/>
      <point x="1108" y="922"/>
      <point x="926" y="1117"/>
      <point x="638" y="1117" type="curve" smooth="yes"/>
      <point x="323" y="1117"/>
      <point x="150" y="834"/>
      <point x="150" y="550" type="curve" smooth="yes"/>
      <point x="150" y="255"/>
      <point x="307" y="-17"/>
      <point x="663" y="-17" type="curve" smooth="yes"/>
      <point x="841" y="-17"/>
      <point x="951" y="43"/>
      <point x="1034" y="129" type="curve"/>
    </contour>
  </outline>
</glyph>
<glyph name="f" format="2">
  <advance width="1300"/>
  <unicode hex="0066"/>
  <outline>
    <contour>
      <point x="148" y="940" type="line"/>
      <point x="400" y="940" type="line"/>
      <point x="400" y="0" type="line"/>
      <point x="590" y="0" type="line"/>
      <point x="590" y="940" type="line"/>
      <point x="1013" y="940" type="line"/>
      <point x="1033" y="1100" type="line"/>
      <point x="585" y="1100" type="line"/>
      <point x="585" y="1245" type="line" smooth="yes"/>
      <point x="585" y="1398"/>
      <point x="745" y="1457"/>
      <point x="860" y="1457" type="curve" smooth="yes"/>
      <point x="920" y="1457"/>
      <point x="1028" y="1430"/>
      <point x="1060" y="1411" type="curve"/>
      <point x="1145" y="1529" type="line"/>
      <point x="1082" y="1570"/>
      <point x="947" y="1617"/>
      <point x="828" y="1617" type="curve" smooth="yes"/>
      <point x="593" y="1617"/>
      <point x="400" y="1481"/>
      <point x="400" y="1255" type="curve" smooth="yes"/>
      <point x="400" y="1100" type="line"/>
      <point x="148" y="1100" type="line"/>
    </contour>
  </outline>
</glyph>
<glyph name="g" format="2">
  <advance width="1300"/>
  <unicode hex="0067"/>
  <outline>
    <contour>
      <point x="910" y="275" type="line"/>
      <point x="857" y="209"/>
      <point x="782" y="144"/>
      <point x="646" y="144" type="curve" smooth="yes"/>
      <point x="494" y="144"/>
      <point x="340" y="306"/>
      <point x="340" y="533" type="curve" smooth="yes"/>
      <point x="340" y="712"/>
      <point x="431" y="957"/>
      <point x="671" y="957" type="curve" smooth="yes"/>
      <point x="763" y="957"/>
      <point x="854" y="906"/>
      <point x="910" y="834" type="curve"/>
    </contour>
    <contour>
      <point x="910" y="-31" type="line" smooth="yes"/>
      <point x="910" y="-212"/>
      <point x="778" y="-357"/>
      <point x="613" y="-357" type="curve" smooth="yes"/>
      <point x="535" y="-357"/>
      <point x="448" y="-327"/>
      <point x="387" y="-278" type="curve"/>
      <point x="289" y="-388" type="line"/>
      <point x="367" y="-473"/>
      <point x="499" y="-517"/>
      <point x="612" y="-517" type="curve" smooth="yes"/>
      <point x="916" y="-517"/>
      <point x="1090" y="-307"/>
      <point x="1090" y="-46" type="curve" smooth="yes"/>
      <point x="1090" y="1100" type="line"/>
      <point x="910" y="1120" type="line"/>
      <point x="910" y="958" type="line"/>
      <point x="815" y="1100" type="line"/>
      <point x="774" y="1115"/>
      <point x="725" y="1117"/>
      <point x="676" y="1117" type="curve" smooth="yes"/>
      <point x="361" y="1117"/>
      <point x="150" y="857"/>
      <point x="150" y="545" type="curve" smooth="yes"/>
      <point x="150" y="237"/>
      <point x="387" y="-17"/>
      <point x="630" y="-17" type="curve" smooth="yes"/>
      <point x="734" y="-17"/>
      <point x="800" y="10"/>
      <point x="823" y="25" type="curve"/>
      <point x="910" y="135" type="line"/>
    </contour>
  </outline>
</glyph>
<glyph name="h" format="2">
  <advance width="1300"/>
  <unicode hex="0068"/>
  <outline>
    <contour>
      <point x="391" y="833" type="line"/>
      <point x="437" y="885"/>
      <point x="574" y="957"/>
      <point x="734" y="957" type="curve" smooth="yes"/>
      <point x="838" y="957"/>
      <point x="900" y="888"/>
      <point x="900" y="709" type="curve" smooth="yes"/>
      <point x="900" y="0" type="line"/>
      <point x="1090" y="0" type="line"/>
      <point x="1090" y="730" type="line" smooth="yes"/>
      <point x="1090" y="981"/>
      <point x="981" y="1117"/>
      <point x="780" y="1117" type="curve" smooth="yes"/>
      <point x="627" y="1117"/>
      <point x="532" y="1094"/>
      <point x="480" y="1065" type="curve"/>
      <point x="391" y="950" type="line"/>
      <point x="391" y="1620" type="line"/>
      <point x="191" y="1600" type="line"/>
      <point x="211" y="1400" type="line"/>
      <point x="211" y="0" type="line"/>
      <point x="391" y="0" type="line"/>
    </contour>
  </outline>
</glyph>
<glyph name="j" format="2">
  <advance width="1300"/>
  <unicode hex="006A"/>
  <outline>
    <contour>
      <point x="695" y="1300" type="line"/>
      <point x="897" y="1300" type="line"/>
      <point x="897" y="1500" type="line"/>
      <point x="695" y="1500" type="line"/>
    </contour>
    <contour>
      <point x="701" y="920" type="line"/>
      <point x="701" y="-107" type="line" smooth="yes"/>
      <point x="701" y="-246"/>
      <point x="670" y="-347"/>
      <point x="571" y="-347" type="curve" smooth="yes"/>
      <point x="439" y="-347"/>
      <point x="316" y="-295"/>
      <point x="300" y="-290" type="curve"/>
      <point x="261" y="-444" type="line"/>
      <point x="277" y="-452"/>
      <point x="405" y="-517"/>
      <point x="581" y="-517" type="curve" smooth="yes"/>
      <point x="842" y="-517"/>
      <point x="891" y="-335"/>
      <point x="891" y="-97" type="curve" smooth="yes"/>
      <point x="891" y="1100" type="line"/>
      <point x="380" y="1100" type="line"/>
      <point x="400" y="940" type="line"/>
      <point x="601" y="940" type="line"/>
      <point x="741" y="980" type="line"/>
    </contour>
  </outline>
</glyph>
<glyph name="l" format="2">
  <advance width="1300"/>
  <unicode hex="006C"/>
  <outline>
    <contour>
      <point x="1031" y="200" type="line"/>
      <point x="998" y="181"/>
      <point x="927" y="143"/>
      <point x="820" y="143" type="curve" smooth="yes"/>
      <point x="745" y="143"/>
      <point x="690" y="200"/>
      <point x="690" y="376" type="curve" smooth="yes"/>
      <point x="690" y="1600" type="line"/>
      <point x="189" y="1600" type="line"/>
      <point x="209" y="1440" type="line"/>
      <point x="410" y="1440" type="line"/>
      <point x="550" y="1480" type="line"/>
      <point x="510" y="1420" type="line"/>
      <point x="510" y="400" type="line" smooth="yes"/>
      <point x="510" y="172"/>
      <point x="559" y="-17"/>
      <point x="800" y="-17" type="curve" smooth="yes"/>
      <point x="965" y="-17"/>
      <point x="1078" y="60"/>
      <point x="1100" y="79" type="curve"/>
    </contour>
  </outline>
</glyph>
<glyph name="m" format="2">
  <advance width="1300"/>
  <unicode hex="006D"/>
  <outline>
    <contour>
      <point x="264" y="824" type="line"/>
      <point x="307" y="906"/>
      <point x="404" y="957"/>
      <point x="448" y="957" type="curve" smooth="yes"/>
      <point x="563" y="957"/>
      <point x="563" y="864"/>
      <point x="563" y="720" type="curve" smooth="yes"/>
      <point x="563" y="0" type="line"/>
      <point x="742" y="0" type="line"/>
      <point x="742" y="727" type="line"/>
      <point x="742" y="728" type="line"/>
      <point x="742" y="729" type="line"/>
      <point x="742" y="729" type="line"/>
      <point x="742" y="730" type="line"/>
      <point x="742" y="731" type="line"/>
      <point x="742" y="732" type="line"/>
      <point x="742" y="733" type="line"/>
      <point x="742" y="734" type="line"/>
      <point x="742" y="735" type="line"/>
      <point x="742" y="736" type="line"/>
      <point x="742" y="743" type="line"/>
      <point x="742" y="745" type="line" smooth="yes"/>
      <point x="742" y="767"/>
      <point x="740" y="807"/>
      <point x="740" y="819" type="curve"/>
      <point x="766" y="885"/>
      <point x="882" y="957"/>
      <point x="934" y="957" type="curve" smooth="yes"/>
      <point x="1044" y="957"/>
      <point x="1044" y="884"/>
      <point x="1044" y="740" type="curve" smooth="yes"/>
      <point x="1044" y="0" type="line"/>
      <point x="1222" y="0" type="line"/>
      <point x="1222" y="750" type="line" smooth="yes"/>
      <point x="1222" y="975"/>
      <point x="1202" y="1117"/>
      <point x="999" y="1117" type="curve" smooth="yes"/>
      <point x="914" y="1117"/>
      <point x="814" y="1068"/>
      <point x="787" y="1043" type="curve"/>
      <point x="724" y="923" type="line"/>
      <point x="694" y="1036"/>
      <point x="663" y="1117"/>
      <point x="513" y="1117" type="curve" smooth="yes"/>
      <point x="410" y="1117"/>
      <point x="346" y="1072"/>
      <point x="322" y="1048" type="curve" smooth="yes"/>
      <point x="321" y="1047"/>
      <point x="320" y="1044"/>
      <point x="264" y="937" type="curve"/>
      <point x="264" y="1120" type="line"/>
      <point x="86" y="1100" type="line"/>
      <point x="86" y="0" type="line"/>
      <point x="264" y="0" type="line"/>
    </contour>
  </outline>
</glyph>
<glyph name="n" format="2">
  <advance width="1300"/>
  <unicode hex="006E"/>
  <outline>
    <contour>
      <point x="391" y="834" type="line"/>
      <point x="444" y="885"/>
      <point x="557" y="957"/>
      <point x="685" y="957" type="curve" smooth="yes"/>
      <point x="809" y="957"/>
      <point x="910" y="894"/>
      <point x="910" y="750" type="curve" smooth="yes"/>
      <point x="910" y="0" type="line"/>
      <point x="1090" y="0" type="line"/>
      <point x="1090" y="750" type="line" smooth="yes"/>
      <point x="1090" y="975"/>
      <point x="962" y="1117"/>
      <point x="750" y="1117" type="curve" smooth="yes"/>
      <point x="576" y="1117"/>
      <point x="500" y="1076"/>
      <point x="452" y="1044" type="curve"/>
      <point x="391" y="927" type="line"/>
      <point x="391" y="1120" type="line"/>
      <point x="211" y="1100" type="line"/>
      <point x="211" y="0" type="line"/>
      <point x="391" y="0" type="line"/>
    </contour>
  </outline>
</glyph>
<glyph name="p" format="2">
  <advance width="1300"/>
  <unicode hex="0070"/>
  <outline>
    <contour>
      <point x="390" y="827" type="line"/>
      <point x="441" y="883"/>
      <point x="540" y="957"/>
      <point x="670" y="957" type="curve" smooth="yes"/>
      <point x="801" y="957"/>
      <point x="960" y="839"/>
      <point x="960" y="578" type="curve" smooth="yes"/>
      <point x="960" y="330"/>
      <point x="799" y="160"/>
      <point x="554" y="160" type="curve" smooth="yes"/>
      <point x="390" y="160" type="line"/>
    </contour>
    <contour>
      <point x="390" y="0" type="line"/>
      <point x="535" y="0" type="line" smooth="yes"/>
      <point x="879" y="0"/>
      <point x="1150" y="237"/>
      <point x="1150" y="565" type="curve" smooth="yes"/>
      <point x="1150" y="901"/>
      <point x="920" y="1117"/>
      <point x="699" y="1117" type="curve" smooth="yes"/>
      <point x="595" y="1117"/>
      <point x="524" y="1094"/>
      <point x="485" y="1071" type="curve"/>
      <point x="390" y="944" type="line"/>
      <point x="390" y="1120" type="line"/>
      <point x="210" y="1100" type="line"/>
      <point x="210" y="-500" type="line"/>
      <point x="390" y="-500" type="line"/>
    </contour>
  </outline>
</glyph>
<glyph name="q" format="2">
  <advance width="1300"/>
  <unicode hex="0071"/>
  <outline>
    <contour>
      <point x="911" y="270" type="line"/>
      <point x="829" y="204"/>
      <point x="731" y="143"/>
      <point x="626" y="143" type="curve" smooth="yes"/>
      <point x="503" y="143"/>
      <point x="346" y="257"/>
      <point x="346" y="524" type="curve" smooth="yes"/>
      <point x="346" y="728"/>
      <point x="453" y="957"/>
      <point x="697" y="957" type="curve" smooth="yes"/>
      <point x="770" y="957"/>
      <point x="861" y="946"/>
      <point x="911" y="935" type="curve"/>
    </contour>
    <contour>
      <point x="1091" y="-500" type="line"/>
      <point x="1091" y="1065" type="line"/>
      <point x="1037" y="1084"/>
      <point x="870" y="1117"/>
      <point x="701" y="1117" type="curve" smooth="yes"/>
      <point x="408" y="1117"/>
      <point x="151" y="892"/>
      <point x="151" y="524" type="curve" smooth="yes"/>
      <point x="151" y="188"/>
      <point x="387" y="-17"/>
      <point x="607" y="-17" type="curve" smooth="yes"/>
      <point x="671" y="-17"/>
      <point x="738" y="-3"/>
      <point x="806" y="29" type="curve"/>
      <point x="911" y="136" type="line"/>
      <point x="911" y="-500" type="line"/>
    </contour>
  </outline>
</glyph>
<glyph name="s" format="2">
  <advance width="1300"/>
  <unicode hex="0073"/>
  <outline>
    <contour>
      <point x="1020" y="1047" type="line"/>
      <point x="967" y="1082"/>
      <point x="831" y="1117"/>
      <point x="694" y="1117" type="curve" smooth="yes"/>
      <point x="439" y="1117"/>
      <point x="205" y="1031"/>
      <point x="205" y="842" type="curve" smooth="yes"/>
      <point x="205" y="735"/>
      <point x="248" y="638"/>
      <point x="400" y="566" type="curve"/>
      <point x="555" y="490"/>
      <point x="900" y="499"/>
      <point x="900" y="340" type="curve" smooth="yes"/>
      <point x="900" y="180"/>
      <point x="659" y="143"/>
      <point x="537" y="143" type="curve" smooth="yes"/>
      <point x="465" y="143"/>
      <point x="305" y="179"/>
      <point x="241" y="211" type="curve"/>
      <point x="175" y="69" type="line"/>
      <point x="245" y="20"/>
      <point x="445" y="-17"/>
      <point x="535" y="-17" type="curve" smooth="yes"/>
      <point x="772" y="-17"/>
      <point x="1095" y="83"/>
      <point x="1095" y="341" type="curve" smooth="yes"/>
      <point x="1095" y="469"/>
      <point x="1000" y="565"/>
      <point x="883" y="610" type="curve"/>
      <point x="732" y="666"/>
      <point x="378" y="681"/>
      <point x="378" y="822" type="curve" smooth="yes"/>
      <point x="378" y="936"/>
      <point x="537" y="963"/>
      <point x="700" y="963" type="curve" smooth="yes"/>
      <point x="821" y="963"/>
      <point x="910" y="923"/>
      <point x="962" y="899" type="curve"/>
    </contour>
  </outline>
</glyph>
<glyph name="t" format="2">
  <advance width="1300"/>
  <unicode hex="0074"/>
  <outline>
    <contour>
      <point x="571" y="940" type="line"/>
      <point x="1030" y="940" type="line"/>
      <point x="1050" y="1100" type="line"/>
      <point x="566" y="1100" type="line"/>
      <point x="566" y="1420" type="line"/>
      <point x="391" y="1309" type="line"/>
      <point x="391" y="1100" type="line"/>
      <point x="100" y="1100" type="line"/>
      <point x="100" y="940" type="line"/>
      <point x="391" y="940" type="line"/>
      <point x="391" y="400" type="line" smooth="yes"/>
      <point x="391" y="172"/>
      <point x="425" y="-17"/>
      <point x="666" y="-17" type="curve" smooth="yes"/>
      <point x="858" y="-17"/>
      <point x="1029" y="88"/>
      <point x="1053" y="109" type="curve"/>
      <point x="984" y="230" type="line"/>
      <point x="939" y="211"/>
      <point x="811" y="143"/>
      <point x="686" y="143" type="curve" smooth="yes"/>
      <point x="611" y="143"/>
      <point x="571" y="200"/>
      <point x="571" y="376" type="curve" smooth="yes"/>
    </contour>
  </outline>
</glyph>
<glyph name="w" format="2">
  <advance width="1300"/>
  <unicode hex="0077"/>
  <outline>
    <contour>
      <point x="724" y="885" type="line"/>
      <point x="571" y="885" type="line"/>
      <point x="406" y="150" type="line"/>
      <point x="385" y="480" type="line"/>
      <point x="262" y="1120" type="line"/>
      <point x="100" y="1100" type="line"/>
      <point x="315" y="0" type="line"/>
      <point x="462" y="0" type="line"/>
      <point x="593" y="350" type="line"/>
      <point x="647" y="750" type="line"/>
      <point x="703" y="348" type="line"/>
      <point x="835" y="0" type="line"/>
      <point x="982" y="0" type="line"/>
      <point x="1200" y="1120" type="line"/>
      <point x="1038" y="1100" type="line"/>
      <point x="908" y="480" type="line"/>
      <point x="897" y="150" type="line"/>
      <point x="836" y="400" type="line"/>
    </contour>
  </outline>
</glyph>
<glyph name="y" format="2">
  <advance width="1300"/>
  <unicode hex="0079"/>
  <outline>
    <contour>
      <point x="670" y="132" type="line"/>
      <point x="618" y="364" type="line"/>
      <point x="354" y="1120" type="line"/>
      <point x="164" y="1100" type="line"/>
      <point x="571" y="-47" type="line"/>
      <point x="518" y="-179"/>
      <point x="458" y="-330"/>
      <point x="362" y="-330" type="curve" smooth="yes"/>
      <point x="325" y="-330"/>
      <point x="289" y="-299"/>
      <point x="273" y="-283" type="curve"/>
      <point x="200" y="-400" type="line"/>
      <point x="256" y="-448"/>
      <point x="317" y="-480"/>
      <point x="392" y="-480" type="curve" smooth="yes"/>
      <point x="579" y="-480"/>
      <point x="677" y="-242"/>
      <point x="757" y="-17" type="curve" smooth="yes"/>
      <point x="1161" y="1120" type="line"/>
      <point x="981" y="1100" type="line"/>
      <point x="712" y="364" type="line"/>
    </contour>
  </outline>
</glyph>
<glyph name="z" format="2">
  <advance width="1300"/>
  <unicode hex="007A"/>
  <outline>
    <contour>
      <point x="537" y="160" type="line"/>
      <point x="372" y="120" type="line"/>
      <point x="563" y="280" type="line"/>
      <point x="1052" y="1051" type="line"/>
      <point x="1032" y="1100" type="line"/>
      <point x="248" y="1100" type="line"/>
      <point x="268" y="940" type="line"/>
      <point x="631" y="940" type="line"/>
      <point x="876" y="980" type="line"/>
      <point x="684" y="826" type="line"/>
      <point x="181" y="50" type="line"/>
      <point x="201" y="0" type="line"/>
      <point x="1120" y="0" type="line"/>
      <point x="1100" y="160" type="line"/>
    </contour>
  </outline>
</glyph>
<glyph name="braceleft" format="2">
  <advance width="1300"/>
  <unicode hex="007B"/>
  <outline>
    <contour>
      <point x="228" y="475" type="line"/>
      <point x="350" y="475" type="line"/>
      <point x="481" y="456"/>
      <point x="500" y="368"/>
      <point x="500" y="220" type="curve" smooth="yes"/>
      <point x="500" y="-20" type="line" smooth="yes"/>
      <point x="500" y="-247"/>
      <point x="574" y="-420"/>
      <point x="830" y="-420" type="curve" smooth="yes"/>
      <point x="952" y="-420"/>
      <point x="998" y="-400"/>
      <point x="1054" y="-373" type="curve"/>
      <point x="991" y="-250" type="line"/>
      <point x="966" y="-265"/>
      <point x="915" y="-277"/>
      <point x="882" y="-277" type="curve" smooth="yes"/>
      <point x="869" y="-277" type="line"/>
      <point x="724" y="-266"/>
      <point x="700" y="-177"/>
      <point x="700" y="-20" type="curve" smooth="yes"/>
      <point x="700" y="220" type="line" smooth="yes"/>
      <point x="700" y="356"/>
      <point x="672" y="479"/>
      <point x="593" y="550" type="curve"/>
      <point x="672" y="622"/>
      <point x="700" y="741"/>
      <point x="700" y="880" type="curve" smooth="yes"/>
      <point x="700" y="1119" type="line" smooth="yes"/>
      <point x="700" y="1276"/>
      <point x="724" y="1365"/>
      <point x="869" y="1376" type="curve"/>
      <point x="882" y="1376" type="line" smooth="yes"/>
      <point x="915" y="1376"/>
      <point x="966" y="1364"/>
      <point x="991" y="1349" type="curve"/>
      <point x="1054" y="1472" type="line"/>
      <point x="997" y="1499"/>
      <point x="952" y="1517"/>
      <point x="830" y="1517" type="curve" smooth="yes"/>
      <point x="574" y="1517"/>
      <point x="500" y="1346"/>
      <point x="500" y="1119" type="curve" smooth="yes"/>
      <point x="500" y="880" type="line" smooth="yes"/>
      <point x="500" y="732"/>
      <point x="481" y="644"/>
      <point x="350" y="625" type="curve"/>
      <point x="228" y="625" type="line"/>
    </contour>
  </outline>
</glyph>
<glyph name="bar" format="2">
  <advance width="1300"/>
  <unicode hex="007C"/>
  <outline>
    <contour>
      <point x="500" y="1500" type="line"/>
      <point x="500" y="-400" type="line"/>
      <point x="700" y="-400" type="line"/>
      <point x="700" y="1520" type="line"/>
    </contour>
  </outline>
</glyph>
<glyph name="braceright" format="2">
  <advance width="1300"/>
  <unicode hex="007D"/>
  <outline>
    <contour>
      <point x="950" y="625" type="line"/>
      <point x="819" y="644"/>
      <point x="800" y="732"/>
      <point x="800" y="880" type="curve" smooth="yes"/>
      <point x="800" y="1119" type="line" smooth="yes"/>
      <point x="800" y="1346"/>
      <point x="726" y="1517"/>
      <point x="470" y="1517" type="curve" smooth="yes"/>
      <point x="348" y="1517"/>
      <point x="303" y="1499"/>
      <point x="246" y="1472" type="curve"/>
      <point x="309" y="1349" type="line"/>
      <point x="334" y="1364"/>
      <point x="385" y="1376"/>
      <point x="418" y="1376" type="curve" smooth="yes"/>
      <point x="431" y="1376" type="line"/>
      <point x="576" y="1365"/>
      <point x="600" y="1276"/>
      <point x="600" y="1119" type="curve" smooth="yes"/>
      <point x="600" y="880" type="line" smooth="yes"/>
      <point x="600" y="741"/>
      <point x="628" y="622"/>
      <point x="707" y="550" type="curve"/>
      <point x="628" y="479"/>
      <point x="600" y="356"/>
      <point x="600" y="220" type="curve" smooth="yes"/>
      <point x="600" y="-20" type="line" smooth="yes"/>
      <point x="600" y="-177"/>
      <point x="576" y="-266"/>
      <point x="431" y="-277" type="curve"/>
      <point x="418" y="-277" type="line" smooth="yes"/>
      <point x="385" y="-277"/>
      <point x="334" y="-265"/>
      <point x="309" y="-250" type="curve"/>
      <point x="246" y="-373" type="line"/>
      <point x="302" y="-400"/>
      <point x="348" y="-420"/>
      <point x="470" y="-420" type="curve" smooth="yes"/>
      <point x="726" y="-420"/>
      <point x="800" y="-247"/>
      <point x="800" y="-20" type="curve" smooth="yes"/>
      <point x="800" y="220" type="line" smooth="yes"/>
      <point x="800" y="368"/>
      <point x="819" y="456"/>
      <point x="950" y="475" type="curve"/>
      <point x="1072" y="475" type="line"/>
      <point x="1072" y="625" type="line"/>
    </contour>
  </outline>
</glyph>
<glyph name="exclamdown" format="2">
  <advance width="1300"/>
  <unicode hex="00A1"/>
  <outline>
    <contour>
      <point x="378" y="994" type="curve" smooth="yes"/>
      <point x="378" y="927"/>
      <point x="432" y="873"/>
      <point x="499" y="873" type="curve" smooth="yes"/>
      <point x="566" y="873"/>
      <point x="620" y="927"/>
      <point x="620" y="994" type="curve" smooth="yes"/>
      <point x="620" y="1061"/>
      <point x="567" y="1117"/>
      <point x="500" y="1117" type="curve" smooth="yes"/>
      <point x="432" y="1117"/>
      <point x="378" y="1061"/>
    </contour>
    <contour>
      <point x="605" y="-400" type="line"/>
      <point x="605" y="650" type="line"/>
      <point x="395" y="671" type="line"/>
      <point x="395" y="-400" type="line"/>
    </contour>
  </outline>
</glyph>
<glyph name="cent" format="2">
  <advance width="1300"/>
  <unicode hex="00A2"/>
  <outline>
    <contour>
      <point x="727" y="1300" type="line"/>
      <point x="727" y="1112" type="line"/>
      <point x="680" y="1112"/>
      <point x="574" y="1092"/>
      <point x="531" y="1071" type="curve" smooth="yes"/>
      <point x="341" y="980"/>
      <point x="250" y="789"/>
      <point x="250" y="577" type="curve" smooth="yes"/>
      <point x="250" y="348"/>
      <point x="344" y="126"/>
      <point x="532" y="31" type="curve" smooth="yes"/>
      <point x="576" y="9"/>
      <point x="679" y="-12"/>
      <point x="727" y="-12" type="curve"/>
      <point x="727" y="-200" type="line"/>
      <point x="873" y="-200" type="line"/>
      <point x="873" y="-13" type="line"/>
      <point x="908" y="-10"/>
      <point x="940" y="-3"/>
      <point x="969" y="6" type="curve" smooth="yes"/>
      <point x="1020" y="21"/>
      <point x="1063" y="42"/>
      <point x="1100" y="67" type="curve"/>
      <point x="1028" y="208" type="line"/>
      <point x="1009" y="195"/>
      <point x="981" y="182"/>
      <point x="945" y="170" type="curve" smooth="yes"/>
      <point x="920" y="161"/>
      <point x="892" y="156"/>
      <point x="860" y="153" type="curve"/>
      <point x="860" y="951" type="line"/>
      <point x="879" y="948"/>
      <point x="895" y="942"/>
      <point x="914" y="935" type="curve"/>
      <point x="950" y="920"/>
      <point x="981" y="901"/>
      <point x="1007" y="878" type="curve"/>
      <point x="1106" y="991" type="line"/>
      <point x="1064" y="1037"/>
      <point x="1019" y="1069"/>
      <point x="970" y="1088" type="curve" smooth="yes"/>
      <point x="941" y="1099"/>
      <point x="909" y="1108"/>
      <point x="873" y="1113" type="curve"/>
      <point x="873" y="1320" type="line"/>
    </contour>
    <contour>
      <point x="611" y="925" type="curve"/>
      <point x="634" y="938"/>
      <point x="679" y="952"/>
      <point x="739" y="952" type="curve"/>
      <point x="739" y="158" type="line"/>
      <point x="679" y="158"/>
      <point x="634" y="173"/>
      <point x="611" y="185" type="curve"/>
      <point x="488" y="255"/>
      <point x="445" y="397"/>
      <point x="445" y="564" type="curve" smooth="yes"/>
      <point x="445" y="723"/>
      <point x="494" y="864"/>
    </contour>
  </outline>
</glyph>
<glyph name="currency" format="2">
  <advance width="1300"/>
  <unicode hex="00A4"/>
  <outline>
    <contour>
      <point x="380" y="581" type="curve" smooth="yes"/>
      <point x="380" y="702"/>
      <point x="482" y="802"/>
      <point x="602" y="802" type="curve" smooth="yes"/>
      <point x="723" y="802"/>
      <point x="823" y="702"/>
      <point x="823" y="581" type="curve" smooth="yes"/>
      <point x="823" y="461"/>
      <point x="723" y="359"/>
      <point x="602" y="359" type="curve" smooth="yes"/>
      <point x="482" y="359"/>
      <point x="380" y="461"/>
    </contour>
    <contour>
      <point x="906" y="378" type="line"/>
      <point x="946" y="439"/>
      <point x="967" y="510"/>
      <point x="967" y="581" type="curve" smooth="yes"/>
      <point x="967" y="652"/>
      <point x="946" y="722"/>
      <point x="906" y="784" type="curve"/>
      <point x="1062" y="940" type="line"/>
      <point x="961" y="1042" type="line"/>
      <point x="805" y="885" type="line"/>
      <point x="744" y="925"/>
      <point x="673" y="946"/>
      <point x="602" y="946" type="curve" smooth="yes"/>
      <point x="531" y="946"/>
      <point x="460" y="925"/>
      <point x="399" y="885" type="curve"/>
      <point x="243" y="1042" type="line"/>
      <point x="142" y="940" type="line"/>
      <point x="299" y="784" type="line"/>
      <point x="258" y="723"/>
      <point x="237" y="652"/>
      <point x="237" y="581" type="curve" smooth="yes"/>
      <point x="237" y="510"/>
      <point x="258" y="439"/>
      <point x="299" y="378" type="curve"/>
      <point x="142" y="222" type="line"/>
      <point x="243" y="121" type="line"/>
      <point x="399" y="278" type="line"/>
      <point x="460" y="237"/>
      <point x="531" y="216"/>
      <point x="602" y="216" type="curve" smooth="yes"/>
      <point x="673" y="216"/>
      <point x="744" y="237"/>
      <point x="805" y="278" type="curve"/>
      <point x="961" y="121" type="line"/>
      <point x="1062" y="222" type="line"/>
    </contour>
  </outline>
</glyph>
<glyph name="brokenbar" format="2">
  <advance width="1300"/>
  <unicode hex="00A6"/>
  <outline>
    <contour>
      <point x="600" y="1500" type="line"/>
      <point x="600" y="700" type="line"/>
      <point x="800" y="700" type="line"/>
      <point x="800" y="1520" type="line"/>
    </contour>
    <contour>
      <point x="600" y="362" type="line"/>
      <point x="600" y="-400" type="line"/>
      <point x="800" y="-400" type="line"/>
      <point x="800" y="362" type="line"/>
    </contour>
  </outline>
</glyph>
<glyph name="section" format="2">
  <advance width="1300"/>
  <unicode hex="00A7"/>
  <outline>
    <contour>
      <point x="932" y="1448" type="line"/>
      <point x="843" y="1503"/>
      <point x="754" y="1517"/>
      <point x="645" y="1517" type="curve" smooth="yes"/>
      <point x="393" y="1517"/>
      <point x="246" y="1393"/>
      <point x="246" y="1188" type="curve" smooth="yes"/>
      <point x="246" y="1070"/>
      <point x="322" y="982"/>
      <point x="418" y="907" type="curve" smooth="yes"/>
      <point x="449" y="883" type="line"/>
      <point x="417" y="873"/>
      <point x="387" y="859"/>
      <point x="359" y="842" type="curve" smooth="yes"/>
      <point x="278" y="791"/>
      <point x="226" y="710"/>
      <point x="226" y="585" type="curve" smooth="yes"/>
      <point x="226" y="181"/>
      <point x="776" y="168"/>
      <point x="776" y="-97" type="curve" smooth="yes"/>
      <point x="776" y="-236"/>
      <point x="664" y="-293"/>
      <point x="533" y="-293" type="curve" smooth="yes"/>
      <point x="457" y="-293"/>
      <point x="388" y="-286"/>
      <point x="324" y="-251" type="curve"/>
      <point x="264" y="-348" type="line"/>
      <point x="353" y="-403"/>
      <point x="440" y="-420"/>
      <point x="551" y="-420" type="curve" smooth="yes"/>
      <point x="803" y="-420"/>
      <point x="950" y="-293"/>
      <point x="950" y="-88" type="curve" smooth="yes"/>
      <point x="950" y="28"/>
      <point x="874" y="120"/>
      <point x="778" y="192" type="curve" smooth="yes"/>
      <point x="746" y="216" type="line"/>
      <point x="779" y="227"/>
      <point x="809" y="240"/>
      <point x="836" y="257" type="curve" smooth="yes"/>
      <point x="920" y="309"/>
      <point x="970" y="390"/>
      <point x="970" y="515" type="curve" smooth="yes"/>
      <point x="970" y="919"/>
      <point x="420" y="932"/>
      <point x="420" y="1197" type="curve" smooth="yes"/>
      <point x="420" y="1336"/>
      <point x="532" y="1393"/>
      <point x="663" y="1393" type="curve" smooth="yes"/>
      <point x="739" y="1393"/>
      <point x="808" y="1386"/>
      <point x="872" y="1351" type="curve"/>
    </contour>
    <contour>
      <point x="485" y="767" type="curve" smooth="yes"/>
      <point x="507" y="785"/>
      <point x="530" y="799"/>
      <point x="555" y="808" type="curve"/>
      <point x="618" y="763" type="line" smooth="yes"/>
      <point x="714" y="694"/>
      <point x="790" y="614"/>
      <point x="790" y="513" type="curve" smooth="yes"/>
      <point x="790" y="433"/>
      <point x="760" y="373"/>
      <point x="711" y="332" type="curve" smooth="yes"/>
      <point x="691" y="316"/>
      <point x="667" y="302"/>
      <point x="640" y="291" type="curve"/>
      <point x="578" y="336" type="line" smooth="yes"/>
      <point x="482" y="406"/>
      <point x="406" y="486"/>
      <point x="406" y="587" type="curve" smooth="yes"/>
      <point x="406" y="667"/>
      <point x="436" y="727"/>
    </contour>
  </outline>
</glyph>
<glyph name="dieresis" format="2">
  <advance width="1300"/>
  <unicode hex="00A8"/>
  <outline>
    <contour>
      <point x="300" y="1300" type="line"/>
      <point x="500" y="1300" type="line"/>
      <point x="500" y="1500" type="line"/>
      <point x="300" y="1500" type="line"/>
    </contour>
    <contour>
      <point x="700" y="1300" type="line"/>
      <point x="900" y="1300" type="line"/>
      <point x="900" y="1500" type="line"/>
      <point x="700" y="1500" type="line"/>
    </contour>
  </outline>
</glyph>
<glyph name="copyright" format="2">
  <advance width="1300"/>
  <unicode hex="00A9"/>
  <outline>
    <contour>
      <point x="650" y="1517" type="curve" smooth="yes"/>
      <point x="391" y="1517"/>
      <point x="180" y="1306"/>
      <point x="180" y="1047" type="curve" smooth="yes"/>
      <point x="180" y="787"/>
      <point x="391" y="577"/>
      <point x="650" y="577" type="curve" smooth="yes"/>
      <point x="909" y="577"/>
      <point x="1120" y="787"/>
      <point x="1120" y="1047" type="curve" smooth="yes"/>
      <point x="1120" y="1306"/>
      <point x="909" y="1517"/>
    </contour>
    <contour>
      <point x="650" y="663" type="curve" smooth="yes"/>
      <point x="439" y="663"/>
      <point x="266" y="840"/>
      <point x="266" y="1047" type="curve" smooth="yes"/>
      <point x="266" y="1259"/>
      <point x="438" y="1431"/>
      <point x="650" y="1431" type="curve" smooth="yes"/>
      <point x="862" y="1431"/>
      <point x="1034" y="1259"/>
      <point x="1034" y="1047" type="curve" smooth="yes"/>
      <point x="1034" y="836"/>
      <point x="857" y="663"/>
    </contour>
    <contour>
      <point x="810" y="1197" type="curve"/>
      <point x="860" y="1248" type="line"/>
      <point x="817" y="1289"/>
      <point x="751" y="1305"/>
      <point x="670" y="1305" type="curve" smooth="yes"/>
      <point x="497" y="1305"/>
      <point x="392" y="1186"/>
      <point x="392" y="1062" type="curve" smooth="yes"/>
      <point x="392" y="923"/>
      <point x="501" y="794"/>
      <point x="667" y="794" type="curve" smooth="yes"/>
      <point x="779" y="794"/>
      <point x="836" y="837"/>
      <point x="857" y="852" type="curve"/>
      <point x="821" y="915" type="line"/>
      <point x="805" y="904"/>
      <point x="743" y="870"/>
      <point x="674" y="870" type="curve" smooth="yes"/>
      <point x="552" y="870"/>
      <point x="489" y="958"/>
      <point x="489" y="1056" type="curve" smooth="yes"/>
      <point x="489" y="1150"/>
      <point x="557" y="1233"/>
      <point x="669" y="1233" type="curve" smooth="yes"/>
      <point x="740" y="1233"/>
      <point x="785" y="1218"/>
    </contour>
  </outline>
</glyph>
<glyph name="ordfeminine" format="2">
  <advance width="1300"/>
  <unicode hex="00AA"/>
  <outline>
    <contour>
      <point x="590" y="1049" type="line"/>
      <point x="590" y="1304" type="line" smooth="yes"/>
      <point x="590" y="1431"/>
      <point x="532" y="1517"/>
      <point x="377" y="1517" type="curve" smooth="yes"/>
      <point x="318" y="1517"/>
      <point x="279" y="1508"/>
      <point x="247" y="1499" type="curve" smooth="yes"/>
      <point x="228" y="1493"/>
      <point x="211" y="1487"/>
      <point x="197" y="1481" type="curve"/>
      <point x="233" y="1414" type="line"/>
      <point x="246" y="1418"/>
      <point x="260" y="1422"/>
      <point x="276" y="1425" type="curve"/>
      <point x="301" y="1432"/>
      <point x="331" y="1437"/>
      <point x="372" y="1437" type="curve" smooth="yes"/>
      <point x="462" y="1437"/>
      <point x="500" y="1391"/>
      <point x="500" y="1311" type="curve" smooth="yes"/>
      <point x="500" y="1290" type="line"/>
      <point x="467" y="1302"/>
      <point x="421" y="1310"/>
      <point x="357" y="1310" type="curve" smooth="yes"/>
      <point x="244" y="1310"/>
      <point x="130" y="1255"/>
      <point x="130" y="1131" type="curve" smooth="yes"/>
      <point x="130" y="1013"/>
      <point x="242" y="950"/>
      <point x="343" y="950" type="curve" smooth="yes"/>
      <point x="380" y="950"/>
      <point x="430" y="966"/>
      <point x="453" y="984" type="curve"/>
      <point x="500" y="1040" type="line"/>
      <point x="500" y="959" type="line"/>
      <point x="600" y="959" type="line"/>
    </contour>
    <contour>
      <point x="500" y="1096" type="line"/>
      <point x="456" y="1056"/>
      <point x="408" y="1030"/>
      <point x="347" y="1030" type="curve" smooth="yes"/>
      <point x="284" y="1030"/>
      <point x="226" y="1072"/>
      <point x="226" y="1131" type="curve" smooth="yes"/>
      <point x="226" y="1206"/>
      <point x="303" y="1230"/>
      <point x="377" y="1230" type="curve" smooth="yes"/>
      <point x="403" y="1230"/>
      <point x="452" y="1228"/>
      <point x="470" y="1225" type="curve"/>
      <point x="500" y="1221" type="line"/>
    </contour>
    <contour>
      <point x="200" y="700" type="line"/>
      <point x="600" y="700" type="line"/>
      <point x="600" y="800" type="line"/>
      <point x="200" y="800" type="line"/>
    </contour>
  </outline>
</glyph>
<glyph name="guillemotleft" format="2">
  <advance width="1300"/>
  <unicode hex="00AB"/>
  <outline>
    <contour>
      <point x="100" y="617" type="line"/>
      <point x="100" y="478" type="line"/>
      <point x="568" y="66" type="line"/>
      <point x="622" y="201" type="line"/>
      <point x="294" y="490" type="line"/>
      <point x="157" y="550" type="line"/>
      <point x="295" y="610" type="line"/>
      <point x="620" y="901" type="line"/>
      <point x="570" y="1026" type="line"/>
    </contour>
    <contour>
      <point x="600" y="617" type="line"/>
      <point x="600" y="478" type="line"/>
      <point x="1068" y="66" type="line"/>
      <point x="1122" y="201" type="line"/>
      <point x="794" y="490" type="line"/>
      <point x="657" y="550" type="line"/>
      <point x="795" y="610" type="line"/>
      <point x="1120" y="901" type="line"/>
      <point x="1070" y="1026" type="line"/>
    </contour>
  </outline>
</glyph>
<glyph name="logicalnot" format="2">
  <advance width="1300"/>
  <unicode hex="00AC"/>
  <outline>
    <contour>
      <point x="112" y="800" type="line"/>
      <point x="112" y="640" type="line"/>
      <point x="1016" y="640" type="line"/>
      <point x="1000" y="449" type="line"/>
      <point x="1000" y="280" type="line"/>
      <point x="1200" y="280" type="line"/>
      <point x="1200" y="589" type="line"/>
      <point x="1217" y="800" type="line"/>
    </contour>
  </outline>
</glyph>
<glyph name="registered" format="2">
  <advance width="1300"/>
  <unicode hex="00AE"/>
  <outline>
    <contour>
      <point x="650" y="1517" type="curve" smooth="yes"/>
      <point x="391" y="1517"/>
      <point x="180" y="1306"/>
      <point x="180" y="1047" type="curve" smooth="yes"/>
      <point x="180" y="787"/>
      <point x="391" y="577"/>
      <point x="650" y="577" type="curve" smooth="yes"/>
      <point x="909" y="577"/>
      <point x="1120" y="787"/>
      <point x="1120" y="1047" type="curve" smooth="yes"/>
      <point x="1120" y="1306"/>
      <point x="909" y="1517"/>
    </contour>
    <contour>
      <point x="650" y="663" type="curve" smooth="yes"/>
      <point x="439" y="663"/>
      <point x="266" y="840"/>
      <point x="266" y="1047" type="curve" smooth="yes"/>
      <point x="266" y="1259"/>
      <point x="438" y="1431"/>
      <point x="650" y="1431" type="curve" smooth="yes"/>
      <point x="862" y="1431"/>
      <point x="1034" y="1259"/>
      <point x="1034" y="1047" type="curve" smooth="yes"/>
      <point x="1034" y="836"/>
      <point x="857" y="663"/>
    </contour>
    <contour>
      <point x="617" y="1017" type="line" smooth="yes"/>
      <point x="621" y="1017"/>
      <point x="629" y="1017"/>
      <point x="633" y="1010" type="curve"/>
      <point x="790" y="800" type="line"/>
      <point x="869" y="800" type="line"/>
      <point x="712" y="1009" type="line"/>
      <point x="662" y="1024" type="line"/>
      <point x="754" y="1040"/>
      <point x="800" y="1069"/>
      <point x="800" y="1168" type="curve" smooth="yes"/>
      <point x="800" y="1264"/>
      <point x="739" y="1300"/>
      <point x="619" y="1300" type="curve" smooth="yes"/>
      <point x="579" y="1300"/>
      <point x="518" y="1297"/>
      <point x="488" y="1292" type="curve"/>
      <point x="500" y="1222" type="line"/>
      <point x="500" y="800" type="line"/>
      <point x="574" y="800" type="line"/>
      <point x="574" y="1017" type="line"/>
    </contour>
    <contour>
      <point x="567" y="1248" type="line"/>
      <point x="583" y="1251"/>
      <point x="608" y="1252"/>
      <point x="628" y="1252" type="curve" smooth="yes"/>
      <point x="686" y="1252"/>
      <point x="734" y="1243"/>
      <point x="734" y="1162" type="curve" smooth="yes"/>
      <point x="734" y="1102"/>
      <point x="711" y="1070"/>
      <point x="627" y="1070" type="curve" smooth="yes"/>
      <point x="574" y="1070" type="line"/>
      <point x="574" y="1171" type="line"/>
    </contour>
  </outline>
</glyph>
<glyph name="macron" format="2">
  <advance width="1300"/>
  <unicode hex="00AF"/>
  <outline>
    <contour>
      <point x="300" y="1350" type="line"/>
      <point x="1000" y="1350" type="line"/>
      <point x="1000" y="1500" type="line"/>
      <point x="300" y="1500" type="line"/>
    </contour>
  </outline>
</glyph>
<glyph name="degree" format="2">
  <advance width="1300"/>
  <unicode hex="00B0"/>
  <outline>
    <contour>
      <point x="500" y="1517" type="curve" smooth="yes"/>
      <point x="351" y="1517"/>
      <point x="231" y="1396"/>
      <point x="231" y="1247" type="curve" smooth="yes"/>
      <point x="231" y="1099"/>
      <point x="351" y="977"/>
      <point x="500" y="977" type="curve" smooth="yes"/>
      <point x="649" y="977"/>
      <point x="769" y="1099"/>
      <point x="769" y="1247" type="curve" smooth="yes"/>
      <point x="769" y="1396"/>
      <point x="649" y="1517"/>
    </contour>
    <contour>
      <point x="500" y="1088" type="curve" smooth="yes"/>
      <point x="412" y="1088"/>
      <point x="341" y="1159"/>
      <point x="341" y="1247" type="curve" smooth="yes"/>
      <point x="341" y="1335"/>
      <point x="412" y="1406"/>
      <point x="500" y="1406" type="curve" smooth="yes"/>
      <point x="588" y="1406"/>
      <point x="659" y="1335"/>
      <point x="659" y="1247" type="curve" smooth="yes"/>
      <point x="659" y="1159"/>
      <point x="588" y="1088"/>
    </contour>
  </outline>
</glyph>
<glyph name="plusminus" format="2">
  <advance width="1300"/>
  <unicode hex="00B1"/>
  <outline>
    <contour>
      <point x="200" y="738" type="line"/>
      <point x="573" y="738" type="line"/>
      <point x="573" y="400" type="line"/>
      <point x="728" y="400" type="line"/>
      <point x="728" y="738" type="line"/>
      <point x="1100" y="738" type="line"/>
      <point x="1100" y="862" type="line"/>
      <point x="728" y="862" type="line"/>
      <point x="728" y="1199" type="line"/>
      <point x="573" y="1199" type="line"/>
      <point x="573" y="862" type="line"/>
      <point x="200" y="862" type="line"/>
    </contour>
    <contour>
      <point x="200" y="150" type="line"/>
      <point x="1100" y="150" type="line"/>
      <point x="1100" y="290" type="line"/>
      <point x="200" y="290" type="line"/>
    </contour>
  </outline>
</glyph>
<glyph name="twosuperior" format="2">
  <advance width="1300"/>
  <unicode hex="00B2"/>
  <outline>
    <contour>
      <point x="657" y="720" type="line"/>
      <point x="657" y="800" type="line"/>
      <point x="307" y="800" type="line"/>
      <point x="346" y="863"/>
      <point x="420" y="942"/>
      <point x="489" y="1022" type="curve"/>
      <point x="543" y="1087"/>
      <point x="629" y="1169"/>
      <point x="629" y="1272" type="curve" smooth="yes"/>
      <point x="629" y="1373"/>
      <point x="551" y="1478"/>
      <point x="417" y="1478" type="curve" smooth="yes"/>
      <point x="303" y="1478"/>
      <point x="230" y="1416"/>
      <point x="195" y="1330" type="curve"/>
      <point x="266" y="1300" type="line"/>
      <point x="292" y="1345"/>
      <point x="329" y="1394"/>
      <point x="409" y="1394" type="curve" smooth="yes"/>
      <point x="481" y="1394"/>
      <point x="532" y="1341"/>
      <point x="532" y="1277" type="curve" smooth="yes"/>
      <point x="532" y="1192"/>
      <point x="468" y="1144"/>
      <point x="398" y="1064" type="curve"/>
      <point x="340" y="995"/>
      <point x="251" y="900"/>
      <point x="190" y="804" type="curve"/>
      <point x="190" y="720" type="line"/>
    </contour>
  </outline>
</glyph>
<glyph name="threesuperior" format="2">
  <advance width="1300"/>
  <unicode hex="00B3"/>
  <outline>
    <contour>
      <point x="445" y="1390" type="line"/>
      <point x="521" y="1410" type="line"/>
      <point x="505" y="1365"/>
      <point x="372" y="1250"/>
      <point x="289" y="1190" type="curve"/>
      <point x="289" y="1112" type="line"/>
      <point x="309" y="1113"/>
      <point x="337" y="1115"/>
      <point x="358" y="1115" type="curve" smooth="yes"/>
      <point x="466" y="1115"/>
      <point x="554" y="1087"/>
      <point x="554" y="991" type="curve" smooth="yes"/>
      <point x="554" y="866"/>
      <point x="394" y="804"/>
      <point x="230" y="800" type="curve"/>
      <point x="230" y="720" type="line"/>
      <point x="426" y="720"/>
      <point x="659" y="802"/>
      <point x="659" y="996" type="curve" smooth="yes"/>
      <point x="659" y="1131"/>
      <point x="558" y="1194"/>
      <point x="430" y="1194" type="curve" smooth="yes"/>
      <point x="421" y="1194"/>
      <point x="409" y="1193"/>
      <point x="402" y="1192" type="curve"/>
      <point x="468" y="1229" type="line"/>
      <point x="530" y="1282"/>
      <point x="594" y="1346"/>
      <point x="610" y="1400" type="curve"/>
      <point x="610" y="1470" type="line"/>
      <point x="220" y="1470" type="line"/>
      <point x="212" y="1390" type="line"/>
    </contour>
  </outline>
</glyph>
<glyph name="acute" format="2">
  <advance width="1300"/>
  <unicode hex="00B4"/>
  <outline>
    <contour>
      <point x="440" y="1200" type="line"/>
      <point x="590" y="1200" type="line"/>
      <point x="830" y="1520" type="line"/>
      <point x="600" y="1500" type="line"/>
    </contour>
  </outline>
</glyph>
<glyph name="uni00B5" format="2">
  <advance width="1300"/>
  <unicode hex="00B5"/>
  <outline>
    <contour>
      <point x="1177" y="150" type="line"/>
      <point x="1149" y="139"/>
      <point x="1118" y="133"/>
      <point x="1086" y="133" type="curve" smooth="yes"/>
      <point x="1018" y="133"/>
      <point x="978" y="191"/>
      <point x="978" y="352" type="curve" smooth="yes"/>
      <point x="978" y="1118" type="line"/>
      <point x="800" y="1100" type="line"/>
      <point x="800" y="241" type="line"/>
      <point x="733" y="188"/>
      <point x="655" y="133"/>
      <point x="569" y="133" type="curve" smooth="yes"/>
      <point x="438" y="133"/>
      <point x="380" y="240"/>
      <point x="380" y="348" type="curve" smooth="yes"/>
      <point x="380" y="1118" type="line"/>
      <point x="200" y="1100" type="line"/>
      <point x="200" y="-500" type="line"/>
      <point x="380" y="-500" type="line"/>
      <point x="380" y="-166" type="line"/>
      <point x="335" y="25" type="line"/>
      <point x="376" y="-10"/>
      <point x="468" y="-17"/>
      <point x="518" y="-17" type="curve" smooth="yes"/>
      <point x="647" y="-17"/>
      <point x="744" y="25"/>
      <point x="800" y="86" type="curve"/>
      <point x="825" y="155" type="line"/>
      <point x="856" y="40"/>
      <point x="945" y="-17"/>
      <point x="1068" y="-17" type="curve" smooth="yes"/>
      <point x="1134" y="-17"/>
      <point x="1219" y="13"/>
      <point x="1242" y="36" type="curve"/>
    </contour>
  </outline>
</glyph>
<glyph name="paragraph" format="2">
  <advance width="1300"/>
  <unicode hex="00B6"/>
  <outline>
    <contour>
      <point x="630" y="-400" type="line"/>
      <point x="799" y="-400" type="line"/>
      <point x="799" y="1348" type="line"/>
      <point x="933" y="1348" type="line"/>
      <point x="933" y="-400" type="line"/>
      <point x="1102" y="-400" type="line"/>
      <point x="1102" y="1500" type="line"/>
      <point x="630" y="1500" type="line"/>
      <point x="438" y="1489"/>
      <point x="187" y="1391"/>
      <point x="187" y="1112" type="curve" smooth="yes"/>
      <point x="187" y="957"/>
      <point x="216" y="795"/>
      <point x="407" y="702" type="curve" smooth="yes"/>
      <point x="464" y="674"/>
      <point x="531" y="652"/>
      <point x="630" y="647" type="curve"/>
    </contour>
  </outline>
</glyph>
<glyph name="periodcentered" format="2">
  <advance width="1300"/>
  <unicode hex="00B7"/>
  <outline>
    <contour>
      <point x="486" y="650" type="curve" smooth="yes"/>
      <point x="486" y="559"/>
      <point x="560" y="483"/>
      <point x="652" y="483" type="curve" smooth="yes"/>
      <point x="742" y="483"/>
      <point x="815" y="559"/>
      <point x="815" y="650" type="curve" smooth="yes"/>
      <point x="815" y="741"/>
      <point x="741" y="815"/>
      <point x="650" y="815" type="curve" smooth="yes"/>
      <point x="560" y="815"/>
      <point x="486" y="741"/>
    </contour>
  </outline>
</glyph>
<glyph name="cedilla" format="2">
  <advance width="1300"/>
  <unicode hex="00B8"/>
  <outline>
    <contour>
      <point x="648" y="0" type="line"/>
      <point x="667" y="-20"/>
      <point x="685" y="-41"/>
      <point x="701" y="-62" type="curve" smooth="yes"/>
      <point x="728" y="-98"/>
      <point x="754" y="-145"/>
      <point x="754" y="-189" type="curve" smooth="yes"/>
      <point x="754" y="-245"/>
      <point x="708" y="-279"/>
      <point x="659" y="-279" type="curve" smooth="yes"/>
      <point x="620" y="-279"/>
      <point x="579" y="-264"/>
      <point x="547" y="-249" type="curve" smooth="yes"/>
      <point x="528" y="-240"/>
      <point x="510" y="-230"/>
      <point x="493" y="-218" type="curve"/>
      <point x="422" y="-318" type="line"/>
      <point x="447" y="-335"/>
      <point x="474" y="-350"/>
      <point x="503" y="-363" type="curve" smooth="yes"/>
      <point x="552" y="-386"/>
      <point x="616" y="-407"/>
      <point x="683" y="-407" type="curve" smooth="yes"/>
      <point x="800" y="-407"/>
      <point x="907" y="-315"/>
      <point x="907" y="-198" type="curve" smooth="yes"/>
      <point x="907" y="-145"/>
      <point x="886" y="-95"/>
      <point x="865" y="-59" type="curve" smooth="yes"/>
      <point x="853" y="-38"/>
      <point x="839" y="-18"/>
      <point x="824" y="0" type="curve"/>
    </contour>
  </outline>
</glyph>
<glyph name="onesuperior" format="2">
  <advance width="1300"/>
  <unicode hex="00B9"/>
  <outline>
    <contour>
      <point x="683" y="720" type="line"/>
      <point x="683" y="800" type="line"/>
      <point x="510" y="800" type="line"/>
      <point x="510" y="1470" type="line"/>
      <point x="435" y="1480" type="line"/>
      <point x="206" y="1270" type="line"/>
      <point x="260" y="1209" type="line"/>
      <point x="366" y="1303" type="line"/>
      <point x="434" y="1396" type="line"/>
      <point x="405" y="1283" type="line"/>
      <point x="405" y="800" type="line"/>
      <point x="233" y="800" type="line"/>
      <point x="233" y="720" type="line"/>
    </contour>
  </outline>
</glyph>
<glyph name="ordmasculine" format="2">
  <advance width="1300"/>
  <unicode hex="00BA"/>
  <outline>
    <contour>
      <point x="424" y="950" type="curve" smooth="yes"/>
      <point x="577" y="950"/>
      <point x="672" y="1073"/>
      <point x="672" y="1235" type="curve" smooth="yes"/>
      <point x="672" y="1398"/>
      <point x="572" y="1517"/>
      <point x="424" y="1517" type="curve" smooth="yes"/>
      <point x="272" y="1517"/>
      <point x="172" y="1398"/>
      <point x="172" y="1235" type="curve" smooth="yes"/>
      <point x="172" y="1073"/>
      <point x="276" y="950"/>
    </contour>
    <contour>
      <point x="577" y="1222" type="curve" smooth="yes"/>
      <point x="577" y="1123"/>
      <point x="533" y="1028"/>
      <point x="426" y="1028" type="curve" smooth="yes"/>
      <point x="314" y="1028"/>
      <point x="267" y="1136"/>
      <point x="267" y="1245" type="curve" smooth="yes"/>
      <point x="267" y="1344"/>
      <point x="314" y="1440"/>
      <point x="422" y="1440" type="curve" smooth="yes"/>
      <point x="534" y="1440"/>
      <point x="577" y="1329"/>
    </contour>
    <contour>
      <point x="230" y="700" type="line"/>
      <point x="630" y="700" type="line"/>
      <point x="630" y="800" type="line"/>
      <point x="230" y="800" type="line"/>
    </contour>
  </outline>
</glyph>
<glyph name="guillemotright" format="2">
  <advance width="1300"/>
  <unicode hex="00BB"/>
  <outline>
    <contour>
      <point x="230" y="1026" type="line"/>
      <point x="180" y="901" type="line"/>
      <point x="505" y="610" type="line"/>
      <point x="643" y="550" type="line"/>
      <point x="506" y="490" type="line"/>
      <point x="178" y="201" type="line"/>
      <point x="232" y="66" type="line"/>
      <point x="700" y="478" type="line"/>
      <point x="700" y="617" type="line"/>
    </contour>
    <contour>
      <point x="730" y="1026" type="line"/>
      <point x="680" y="901" type="line"/>
      <point x="1005" y="610" type="line"/>
      <point x="1143" y="550" type="line"/>
      <point x="1006" y="490" type="line"/>
      <point x="678" y="201" type="line"/>
      <point x="732" y="66" type="line"/>
      <point x="1200" y="478" type="line"/>
      <point x="1200" y="617" type="line"/>
    </contour>
  </outline>
</glyph>
<glyph name="onequarter" format="2">
  <advance width="1300"/>
  <unicode hex="00BC"/>
  <outline>
    <contour>
      <point x="1070" y="1500" type="line"/>
      <point x="954" y="1500" type="line"/>
      <point x="379" y="0" type="line"/>
      <point x="504" y="0" type="line"/>
    </contour>
    <contour>
      <point x="581" y="720" type="line"/>
      <point x="581" y="800" type="line"/>
      <point x="408" y="800" type="line"/>
      <point x="408" y="1470" type="line"/>
      <point x="333" y="1480" type="line"/>
      <point x="104" y="1270" type="line"/>
      <point x="158" y="1209" type="line"/>
      <point x="264" y="1303" type="line"/>
      <point x="332" y="1396" type="line"/>
      <point x="303" y="1283" type="line"/>
      <point x="303" y="800" type="line"/>
      <point x="131" y="800" type="line"/>
      <point x="131" y="720" type="line"/>
    </contour>
    <contour>
      <point x="1249" y="230" type="line"/>
      <point x="1152" y="230" type="line"/>
      <point x="1152" y="425" type="line"/>
      <point x="1047" y="433" type="line"/>
      <point x="1047" y="230" type="line"/>
      <point x="832" y="230" type="line"/>
      <point x="878" y="300" type="line"/>
      <point x="1086" y="750" type="line"/>
      <point x="991" y="760" type="line"/>
      <point x="749" y="235" type="line"/>
      <point x="749" y="150" type="line"/>
      <point x="1047" y="150" type="line"/>
      <point x="1047" y="0" type="line"/>
      <point x="1152" y="0" type="line"/>
      <point x="1152" y="150" type="line"/>
      <point x="1242" y="150" type="line"/>
    </contour>
  </outline>
</glyph>
<glyph name="onehalf" format="2">
  <advance width="1300"/>
  <unicode hex="00BD"/>
  <outline>
    <contour>
      <point x="1070" y="1500" type="line"/>
      <point x="954" y="1500" type="line"/>
      <point x="379" y="0" type="line"/>
      <point x="504" y="0" type="line"/>
    </contour>
    <contour>
      <point x="581" y="720" type="line"/>
      <point x="581" y="800" type="line"/>
      <point x="408" y="800" type="line"/>
      <point x="408" y="1470" type="line"/>
      <point x="333" y="1480" type="line"/>
      <point x="104" y="1270" type="line"/>
      <point x="158" y="1209" type="line"/>
      <point x="264" y="1303" type="line"/>
      <point x="332" y="1396" type="line"/>
      <point x="303" y="1283" type="line"/>
      <point x="303" y="800" type="line"/>
      <point x="131" y="800" type="line"/>
      <point x="131" y="720" type="line"/>
    </contour>
    <contour>
      <point x="1280" y="0" type="line"/>
      <point x="1280" y="80" type="line"/>
      <point x="930" y="80" type="line"/>
      <point x="969" y="143"/>
      <point x="1043" y="222"/>
      <point x="1112" y="302" type="curve"/>
      <point x="1166" y="367"/>
      <point x="1252" y="449"/>
      <point x="1252" y="552" type="curve" smooth="yes"/>
      <point x="1252" y="653"/>
      <point x="1174" y="758"/>
      <point x="1040" y="758" type="curve" smooth="yes"/>
      <point x="926" y="758"/>
      <point x="853" y="696"/>
      <point x="818" y="610" type="curve"/>
      <point x="889" y="580" type="line"/>
      <point x="915" y="625"/>
      <point x="952" y="674"/>
      <point x="1032" y="674" type="curve" smooth="yes"/>
      <point x="1104" y="674"/>
      <point x="1155" y="621"/>
      <point x="1155" y="557" type="curve" smooth="yes"/>
      <point x="1155" y="472"/>
      <point x="1091" y="424"/>
      <point x="1021" y="344" type="curve"/>
      <point x="963" y="275"/>
      <point x="874" y="180"/>
      <point x="813" y="84" type="curve"/>
      <point x="813" y="0" type="line"/>
    </contour>
  </outline>
</glyph>
<glyph name="threequarters" format="2">
  <advance width="1300"/>
  <unicode hex="00BE"/>
  <outline>
    <contour>
      <point x="1070" y="1500" type="line"/>
      <point x="954" y="1500" type="line"/>
      <point x="379" y="0" type="line"/>
      <point x="504" y="0" type="line"/>
    </contour>
    <contour>
      <point x="445" y="1390" type="line"/>
      <point x="521" y="1410" type="line"/>
      <point x="505" y="1365"/>
      <point x="372" y="1250"/>
      <point x="289" y="1190" type="curve"/>
      <point x="289" y="1112" type="line"/>
      <point x="309" y="1113"/>
      <point x="337" y="1115"/>
      <point x="358" y="1115" type="curve" smooth="yes"/>
      <point x="466" y="1115"/>
      <point x="554" y="1087"/>
      <point x="554" y="991" type="curve" smooth="yes"/>
      <point x="554" y="866"/>
      <point x="394" y="804"/>
      <point x="230" y="800" type="curve"/>
      <point x="230" y="720" type="line"/>
      <point x="426" y="720"/>
      <point x="659" y="802"/>
      <point x="659" y="996" type="curve" smooth="yes"/>
      <point x="659" y="1131"/>
      <point x="558" y="1194"/>
      <point x="430" y="1194" type="curve" smooth="yes"/>
      <point x="421" y="1194"/>
      <point x="409" y="1193"/>
      <point x="402" y="1192" type="curve"/>
      <point x="468" y="1229" type="line"/>
      <point x="530" y="1282"/>
      <point x="594" y="1346"/>
      <point x="610" y="1400" type="curve"/>
      <point x="610" y="1470" type="line"/>
      <point x="220" y="1470" type="line"/>
      <point x="212" y="1390" type="line"/>
    </contour>
    <contour>
      <point x="1227" y="230" type="line"/>
      <point x="1130" y="230" type="line"/>
      <point x="1130" y="425" type="line"/>
      <point x="1025" y="433" type="line"/>
      <point x="1025" y="230" type="line"/>
      <point x="810" y="230" type="line"/>
      <point x="856" y="300" type="line"/>
      <point x="1064" y="750" type="line"/>
      <point x="969" y="760" type="line"/>
      <point x="727" y="235" type="line"/>
      <point x="727" y="150" type="line"/>
      <point x="1025" y="150" type="line"/>
      <point x="1025" y="0" type="line"/>
      <point x="1130" y="0" type="line"/>
      <point x="1130" y="150" type="line"/>
      <point x="1220" y="150" type="line"/>
    </contour>
  </outline>
</glyph>
<glyph name="Agrave" format="2">
  <advance width="1300"/>
  <unicode hex="00C0"/>
  <outline>
    <contour>
      <point x="868" y="600" type="line"/>
      <point x="431" y="600" type="line"/>
      <point x="600" y="1080" type="line"/>
      <point x="645" y="1400" type="line"/>
      <point x="690" y="1080" type="line"/>
    </contour>
    <contour>
      <point x="382" y="450" type="line"/>
      <point x="917" y="450" type="line"/>
      <point x="1065" y="0" type="line"/>
      <point x="1265" y="0" type="line"/>
      <point x="717" y="1520" type="line"/>
      <point x="539" y="1500" type="line"/>
      <point x="504" y="1300" type="line"/>
      <point x="32" y="0" type="line"/>
      <point x="216" y="0" type="line"/>
    </contour>
    <contour>
      <point x="341" y="1900" type="line"/>
      <point x="566" y="1600" type="line"/>
      <point x="716" y="1600" type="line"/>
      <point x="545" y="1920" type="line"/>
    </contour>
  </outline>
</glyph>
<glyph name="Aacute" format="2">
  <advance width="1300"/>
  <unicode hex="00C1"/>
  <outline>
    <contour>
      <point x="868" y="600" type="line"/>
      <point x="431" y="600" type="line"/>
      <point x="600" y="1080" type="line"/>
      <point x="645" y="1400" type="line"/>
      <point x="690" y="1080" type="line"/>
    </contour>
    <contour>
      <point x="382" y="450" type="line"/>
      <point x="917" y="450" type="line"/>
      <point x="1065" y="0" type="line"/>
      <point x="1265" y="0" type="line"/>
      <point x="717" y="1520" type="line"/>
      <point x="539" y="1500" type="line"/>
      <point x="504" y="1300" type="line"/>
      <point x="32" y="0" type="line"/>
      <point x="216" y="0" type="line"/>
    </contour>
    <contour>
      <point x="690" y="1600" type="line"/>
      <point x="930" y="1920" type="line"/>
      <point x="700" y="1900" type="line"/>
      <point x="540" y="1600" type="line"/>
    </contour>
  </outline>
</glyph>
<glyph name="Acircumflex" format="2">
  <advance width="1300"/>
  <unicode hex="00C2"/>
  <outline>
    <contour>
      <point x="868" y="600" type="line"/>
      <point x="431" y="600" type="line"/>
      <point x="600" y="1080" type="line"/>
      <point x="645" y="1400" type="line"/>
      <point x="690" y="1080" type="line"/>
    </contour>
    <contour>
      <point x="382" y="450" type="line"/>
      <point x="917" y="450" type="line"/>
      <point x="1065" y="0" type="line"/>
      <point x="1265" y="0" type="line"/>
      <point x="717" y="1520" type="line"/>
      <point x="539" y="1500" type="line"/>
      <point x="504" y="1300" type="line"/>
      <point x="32" y="0" type="line"/>
      <point x="216" y="0" type="line"/>
    </contour>
    <contour>
      <point x="535" y="1900" type="line"/>
      <point x="359" y="1620" type="line"/>
      <point x="509" y="1620" type="line"/>
      <point x="610" y="1773" type="line"/>
      <point x="640" y="1860" type="line"/>
      <point x="670" y="1772" type="line"/>
      <point x="770" y="1620" type="line"/>
      <point x="920" y="1620" type="line"/>
      <point x="735" y="1920" type="line"/>
    </contour>
  </outline>
</glyph>
<glyph name="Adieresis" format="2">
  <advance width="1300"/>
  <unicode hex="00C4"/>
  <outline>
    <contour>
      <point x="868" y="600" type="line"/>
      <point x="431" y="600" type="line"/>
      <point x="600" y="1080" type="line"/>
      <point x="645" y="1400" type="line"/>
      <point x="690" y="1080" type="line"/>
    </contour>
    <contour>
      <point x="382" y="450" type="line"/>
      <point x="917" y="450" type="line"/>
      <point x="1065" y="0" type="line"/>
      <point x="1265" y="0" type="line"/>
      <point x="717" y="1520" type="line"/>
      <point x="539" y="1500" type="line"/>
      <point x="504" y="1300" type="line"/>
      <point x="32" y="0" type="line"/>
      <point x="216" y="0" type="line"/>
    </contour>
    <contour>
      <point x="539" y="1600" type="line"/>
      <point x="539" y="1800" type="line"/>
      <point x="339" y="1800" type="line"/>
      <point x="339" y="1600" type="line"/>
    </contour>
    <contour>
      <point x="939" y="1600" type="line"/>
      <point x="939" y="1800" type="line"/>
      <point x="739" y="1800" type="line"/>
      <point x="739" y="1600" type="line"/>
    </contour>
  </outline>
</glyph>
<glyph name="Aring" format="2">
  <advance width="1300"/>
  <unicode hex="00C5"/>
  <outline>
    <contour>
      <point x="216" y="0" type="line"/>
      <point x="382" y="450" type="line"/>
      <point x="917" y="450" type="line"/>
      <point x="1065" y="0" type="line"/>
      <point x="1265" y="0" type="line"/>
      <point x="750" y="1428" type="line"/>
      <point x="772" y="1439"/>
      <point x="792" y="1454"/>
      <point x="809" y="1472" type="curve" smooth="yes"/>
      <point x="850" y="1516"/>
      <point x="877" y="1577"/>
      <point x="877" y="1642" type="curve" smooth="yes"/>
      <point x="877" y="1773"/>
      <point x="771" y="1879"/>
      <point x="640" y="1879" type="curve" smooth="yes"/>
      <point x="509" y="1879"/>
      <point x="402" y="1773"/>
      <point x="402" y="1642" type="curve" smooth="yes"/>
      <point x="402" y="1577"/>
      <point x="429" y="1516"/>
      <point x="473" y="1472" type="curve" smooth="yes"/>
      <point x="489" y="1456"/>
      <point x="507" y="1442"/>
      <point x="527" y="1431" type="curve"/>
      <point x="504" y="1300" type="line"/>
      <point x="32" y="0" type="line"/>
    </contour>
    <contour>
      <point x="641" y="1518" type="curve" smooth="yes"/>
      <point x="573" y="1518"/>
      <point x="519" y="1574"/>
      <point x="519" y="1641" type="curve" smooth="yes"/>
      <point x="519" y="1708"/>
      <point x="573" y="1762"/>
      <point x="640" y="1762" type="curve" smooth="yes"/>
      <point x="707" y="1762"/>
      <point x="761" y="1708"/>
      <point x="761" y="1641" type="curve" smooth="yes"/>
      <point x="761" y="1574"/>
      <point x="708" y="1518"/>
    </contour>
    <contour>
      <point x="690" y="1080" type="line"/>
      <point x="868" y="600" type="line"/>
      <point x="431" y="600" type="line"/>
      <point x="600" y="1080" type="line"/>
      <point x="645" y="1400" type="line"/>
    </contour>
  </outline>
</glyph>
<glyph name="AE" format="2">
  <advance width="1300"/>
  <unicode hex="00C6"/>
  <outline>
    <contour>
      <point x="601" y="1099" type="line"/>
      <point x="654" y="1340" type="line"/>
      <point x="695" y="1106" type="line"/>
      <point x="695" y="599" type="line"/>
      <point x="441" y="599" type="line"/>
    </contour>
    <contour>
      <point x="904" y="340" type="line"/>
      <point x="904" y="740" type="line"/>
      <point x="1229" y="740" type="line"/>
      <point x="1229" y="885" type="line"/>
      <point x="904" y="885" type="line"/>
      <point x="904" y="1149" type="line"/>
      <point x="882" y="1340" type="line"/>
      <point x="1300" y="1340" type="line"/>
      <point x="1300" y="1500" type="line"/>
      <point x="523" y="1500" type="line"/>
      <point x="479" y="1300" type="line"/>
      <point x="29" y="0" type="line"/>
      <point x="246" y="0" type="line"/>
      <point x="400" y="450" type="line"/>
      <point x="695" y="450" type="line"/>
      <point x="695" y="200" type="line"/>
      <point x="679" y="0" type="line"/>
      <point x="1315" y="0" type="line"/>
      <point x="1335" y="160" type="line"/>
      <point x="894" y="160" type="line"/>
    </contour>
  </outline>
</glyph>
<glyph name="Egrave" format="2">
  <advance width="1300"/>
  <unicode hex="00C8"/>
  <outline>
    <contour>
      <point x="385" y="160" type="line"/>
      <point x="395" y="340" type="line"/>
      <point x="395" y="740" type="line"/>
      <point x="1030" y="740" type="line"/>
      <point x="1030" y="885" type="line"/>
      <point x="395" y="885" type="line"/>
      <point x="395" y="1150" type="line"/>
      <point x="375" y="1340" type="line"/>
      <point x="1100" y="1340" type="line"/>
      <point x="1100" y="1500" type="line"/>
      <point x="180" y="1500" type="line"/>
      <point x="210" y="1290" type="line"/>
      <point x="210" y="200" type="line"/>
      <point x="195" y="0" type="line"/>
      <point x="1115" y="0" type="line"/>
      <point x="1135" y="160" type="line"/>
    </contour>
    <contour>
      <point x="589" y="1920" type="line"/>
      <point x="385" y="1900" type="line"/>
      <point x="610" y="1600" type="line"/>
      <point x="760" y="1600" type="line"/>
    </contour>
  </outline>
</glyph>
<glyph name="Eacute" format="2">
  <advance width="1300"/>
  <unicode hex="00C9"/>
  <outline>
    <contour>
      <point x="385" y="160" type="line"/>
      <point x="395" y="340" type="line"/>
      <point x="395" y="740" type="line"/>
      <point x="1030" y="740" type="line"/>
      <point x="1030" y="885" type="line"/>
      <point x="395" y="885" type="line"/>
      <point x="395" y="1150" type="line"/>
      <point x="375" y="1340" type="line"/>
      <point x="1100" y="1340" type="line"/>
      <point x="1100" y="1500" type="line"/>
      <point x="180" y="1500" type="line"/>
      <point x="210" y="1290" type="line"/>
      <point x="210" y="200" type="line"/>
      <point x="195" y="0" type="line"/>
      <point x="1115" y="0" type="line"/>
      <point x="1135" y="160" type="line"/>
    </contour>
    <contour>
      <point x="490" y="1600" type="line"/>
      <point x="640" y="1600" type="line"/>
      <point x="880" y="1920" type="line"/>
      <point x="650" y="1900" type="line"/>
    </contour>
  </outline>
</glyph>
<glyph name="Ecircumflex" format="2">
  <advance width="1300"/>
  <unicode hex="00CA"/>
  <outline>
    <contour>
      <point x="385" y="160" type="line"/>
      <point x="395" y="340" type="line"/>
      <point x="395" y="740" type="line"/>
      <point x="1030" y="740" type="line"/>
      <point x="1030" y="885" type="line"/>
      <point x="395" y="885" type="line"/>
      <point x="395" y="1150" type="line"/>
      <point x="375" y="1340" type="line"/>
      <point x="1100" y="1340" type="line"/>
      <point x="1100" y="1500" type="line"/>
      <point x="180" y="1500" type="line"/>
      <point x="210" y="1290" type="line"/>
      <point x="210" y="200" type="line"/>
      <point x="195" y="0" type="line"/>
      <point x="1115" y="0" type="line"/>
      <point x="1135" y="160" type="line"/>
    </contour>
    <contour>
      <point x="745" y="1920" type="line"/>
      <point x="545" y="1900" type="line"/>
      <point x="369" y="1620" type="line"/>
      <point x="519" y="1620" type="line"/>
      <point x="620" y="1773" type="line"/>
      <point x="650" y="1860" type="line"/>
      <point x="680" y="1772" type="line"/>
      <point x="780" y="1620" type="line"/>
      <point x="930" y="1620" type="line"/>
    </contour>
  </outline>
</glyph>
<glyph name="Igrave" format="2">
  <advance width="1300"/>
  <unicode hex="00CC"/>
  <outline>
    <contour>
      <point x="186" y="1340" type="line"/>
      <point x="562" y="1340" type="line"/>
      <point x="562" y="160" type="line"/>
      <point x="206" y="160" type="line"/>
      <point x="206" y="0" type="line"/>
      <point x="1106" y="0" type="line"/>
      <point x="1126" y="160" type="line"/>
      <point x="748" y="160" type="line"/>
      <point x="748" y="1340" type="line"/>
      <point x="1106" y="1340" type="line"/>
      <point x="1106" y="1500" type="line"/>
      <point x="206" y="1500" type="line"/>
    </contour>
    <contour>
      <point x="567" y="1920" type="line"/>
      <point x="363" y="1900" type="line"/>
      <point x="588" y="1600" type="line"/>
      <point x="738" y="1600" type="line"/>
    </contour>
  </outline>
</glyph>
<glyph name="Iacute" format="2">
  <advance width="1300"/>
  <unicode hex="00CD"/>
  <outline>
    <contour>
      <point x="186" y="1340" type="line"/>
      <point x="562" y="1340" type="line"/>
      <point x="562" y="160" type="line"/>
      <point x="206" y="160" type="line"/>
      <point x="206" y="0" type="line"/>
      <point x="1106" y="0" type="line"/>
      <point x="1126" y="160" type="line"/>
      <point x="748" y="160" type="line"/>
      <point x="748" y="1340" type="line"/>
      <point x="1106" y="1340" type="line"/>
      <point x="1106" y="1500" type="line"/>
      <point x="206" y="1500" type="line"/>
    </contour>
    <contour>
      <point x="455" y="1600" type="line"/>
      <point x="605" y="1600" type="line"/>
      <point x="845" y="1920" type="line"/>
      <point x="615" y="1900" type="line"/>
    </contour>
  </outline>
</glyph>
<glyph name="Icircumflex" format="2">
  <advance width="1300"/>
  <unicode hex="00CE"/>
  <outline>
    <contour>
      <point x="186" y="1340" type="line"/>
      <point x="562" y="1340" type="line"/>
      <point x="562" y="160" type="line"/>
      <point x="206" y="160" type="line"/>
      <point x="206" y="0" type="line"/>
      <point x="1106" y="0" type="line"/>
      <point x="1126" y="160" type="line"/>
      <point x="748" y="160" type="line"/>
      <point x="748" y="1340" type="line"/>
      <point x="1106" y="1340" type="line"/>
      <point x="1106" y="1500" type="line"/>
      <point x="206" y="1500" type="line"/>
    </contour>
    <contour>
      <point x="756" y="1924" type="line"/>
      <point x="556" y="1904" type="line"/>
      <point x="380" y="1624" type="line"/>
      <point x="530" y="1624" type="line"/>
      <point x="631" y="1777" type="line"/>
      <point x="661" y="1864" type="line"/>
      <point x="691" y="1776" type="line"/>
      <point x="791" y="1624" type="line"/>
      <point x="941" y="1624" type="line"/>
    </contour>
  </outline>
</glyph>
<glyph name="Eth" format="2">
  <advance width="1300"/>
  <unicode hex="00D0"/>
  <outline>
    <contour>
      <point x="423" y="1354" type="line"/>
      <point x="444" y="1357"/>
      <point x="470" y="1358"/>
      <point x="491" y="1358" type="curve" smooth="yes"/>
      <point x="935" y="1358"/>
      <point x="1030" y="1120"/>
      <point x="1030" y="780" type="curve" smooth="yes"/>
      <point x="1030" y="550"/>
      <point x="1010" y="160"/>
      <point x="430" y="160" type="curve" smooth="yes"/>
      <point x="410" y="160" type="line"/>
      <point x="410" y="700" type="line"/>
      <point x="600" y="700" type="line"/>
      <point x="600" y="855" type="line"/>
      <point x="410" y="855" type="line"/>
      <point x="410" y="1150" type="line"/>
      <point x="385" y="1350" type="line"/>
    </contour>
    <contour>
      <point x="200" y="700" type="line"/>
      <point x="200" y="0" type="line"/>
      <point x="491" y="0" type="line" smooth="yes"/>
      <point x="890" y="0"/>
      <point x="1240" y="227"/>
      <point x="1240" y="810" type="curve" smooth="yes"/>
      <point x="1240" y="1310"/>
      <point x="924" y="1511"/>
      <point x="500" y="1511" type="curve" smooth="yes"/>
      <point x="411" y="1511"/>
      <point x="253" y="1508"/>
      <point x="170" y="1500" type="curve"/>
      <point x="200" y="1290" type="line"/>
      <point x="200" y="855" type="line"/>
      <point x="0" y="855" type="line"/>
      <point x="0" y="700" type="line"/>
    </contour>
  </outline>
</glyph>
<glyph name="Ograve" format="2">
  <advance width="1300"/>
  <unicode hex="00D2"/>
  <outline>
    <contour>
      <point x="589" y="1920" type="line"/>
      <point x="385" y="1900" type="line"/>
      <point x="610" y="1600" type="line"/>
      <point x="760" y="1600" type="line"/>
    </contour>
    <contour>
      <point x="624" y="-17" type="curve" smooth="yes"/>
      <point x="994" y="-17"/>
      <point x="1174" y="330"/>
      <point x="1174" y="750" type="curve" smooth="yes"/>
      <point x="1174" y="1170"/>
      <point x="984" y="1517"/>
      <point x="624" y="1517" type="curve" smooth="yes"/>
      <point x="254" y="1517"/>
      <point x="74" y="1170"/>
      <point x="74" y="750" type="curve" smooth="yes"/>
      <point x="74" y="330"/>
      <point x="264" y="-17"/>
    </contour>
    <contour>
      <point x="966" y="719" type="curve" smooth="yes"/>
      <point x="966" y="476"/>
      <point x="915" y="158"/>
      <point x="630" y="158" type="curve" smooth="yes"/>
      <point x="326" y="158"/>
      <point x="282" y="502"/>
      <point x="282" y="785" type="curve" smooth="yes"/>
      <point x="282" y="1030"/>
      <point x="330" y="1342"/>
      <point x="618" y="1342" type="curve" smooth="yes"/>
      <point x="922" y="1342"/>
      <point x="966" y="998"/>
    </contour>
  </outline>
</glyph>
<glyph name="Oacute" format="2">
  <advance width="1300"/>
  <unicode hex="00D3"/>
  <outline>
    <contour>
      <point x="440" y="1600" type="line"/>
      <point x="590" y="1600" type="line"/>
      <point x="830" y="1920" type="line"/>
      <point x="600" y="1900" type="line"/>
    </contour>
    <contour>
      <point x="624" y="-17" type="curve" smooth="yes"/>
      <point x="994" y="-17"/>
      <point x="1174" y="330"/>
      <point x="1174" y="750" type="curve" smooth="yes"/>
      <point x="1174" y="1170"/>
      <point x="984" y="1517"/>
      <point x="624" y="1517" type="curve" smooth="yes"/>
      <point x="254" y="1517"/>
      <point x="74" y="1170"/>
      <point x="74" y="750" type="curve" smooth="yes"/>
      <point x="74" y="330"/>
      <point x="264" y="-17"/>
    </contour>
    <contour>
      <point x="966" y="719" type="curve" smooth="yes"/>
      <point x="966" y="476"/>
      <point x="915" y="158"/>
      <point x="630" y="158" type="curve" smooth="yes"/>
      <point x="326" y="158"/>
      <point x="282" y="502"/>
      <point x="282" y="785" type="curve" smooth="yes"/>
      <point x="282" y="1030"/>
      <point x="330" y="1342"/>
      <point x="618" y="1342" type="curve" smooth="yes"/>
      <point x="922" y="1342"/>
      <point x="966" y="998"/>
    </contour>
  </outline>
</glyph>
<glyph name="Otilde" format="2">
  <advance width="1300"/>
  <unicode hex="00D5"/>
  <outline>
    <contour>
      <point x="373" y="1652" type="line"/>
      <point x="384" y="1692"/>
      <point x="416" y="1740"/>
      <point x="463" y="1740" type="curve" smooth="yes"/>
      <point x="557" y="1740"/>
      <point x="638" y="1651"/>
      <point x="722" y="1651" type="curve" smooth="yes"/>
      <point x="826" y="1651"/>
      <point x="909" y="1761"/>
      <point x="917" y="1878" type="curve"/>
      <point x="821" y="1882" type="line"/>
      <point x="813" y="1835"/>
      <point x="785" y="1774"/>
      <point x="729" y="1774" type="curve" smooth="yes"/>
      <point x="646" y="1774"/>
      <point x="573" y="1864"/>
      <point x="469" y="1864" type="curve" smooth="yes"/>
      <point x="374" y="1864"/>
      <point x="298" y="1763"/>
      <point x="287" y="1655" type="curve"/>
    </contour>
    <contour>
      <point x="624" y="-17" type="curve" smooth="yes"/>
      <point x="994" y="-17"/>
      <point x="1174" y="330"/>
      <point x="1174" y="750" type="curve" smooth="yes"/>
      <point x="1174" y="1170"/>
      <point x="984" y="1517"/>
      <point x="624" y="1517" type="curve" smooth="yes"/>
      <point x="254" y="1517"/>
      <point x="74" y="1170"/>
      <point x="74" y="750" type="curve" smooth="yes"/>
      <point x="74" y="330"/>
      <point x="264" y="-17"/>
    </contour>
    <contour>
      <point x="966" y="719" type="curve" smooth="yes"/>
      <point x="966" y="476"/>
      <point x="915" y="158"/>
      <point x="630" y="158" type="curve" smooth="yes"/>
      <point x="326" y="158"/>
      <point x="282" y="502"/>
      <point x="282" y="785" type="curve" smooth="yes"/>
      <point x="282" y="1030"/>
      <point x="330" y="1342"/>
      <point x="618" y="1342" type="curve" smooth="yes"/>
      <point x="922" y="1342"/>
      <point x="966" y="998"/>
    </contour>
  </outline>
</glyph>
<glyph name="multiply" format="2">
  <advance width="1300"/>
  <unicode hex="00D7"/>
  <outline>
    <contour>
      <point x="1175" y="1052" type="line"/>
      <point x="1051" y="1153" type="line"/>
      <point x="676" y="777" type="line"/>
      <point x="658" y="679" type="line"/>
      <point x="600" y="777" type="line"/>
      <point x="225" y="1153" type="line"/>
      <point x="100" y="1052" type="line"/>
      <point x="526" y="627" type="line"/>
      <point x="100" y="203" type="line"/>
      <point x="225" y="102" type="line"/>
      <point x="600" y="477" type="line"/>
      <point x="618" y="576" type="line"/>
      <point x="676" y="477" type="line"/>
      <point x="1051" y="102" type="line"/>
      <point x="1175" y="203" type="line"/>
      <point x="750" y="627" type="line"/>
    </contour>
  </outline>
</glyph>
<glyph name="Oslash" format="2">
  <advance width="1300"/>
  <unicode hex="00D8"/>
  <outline>
    <contour>
      <point x="1180" y="1600" type="line"/>
      <point x="980" y="1600" type="line"/>
      <point x="903" y="1447" type="line"/>
      <point x="876" y="1464"/>
      <point x="847" y="1479"/>
      <point x="816" y="1490" type="curve" smooth="yes"/>
      <point x="765" y="1508"/>
      <point x="710" y="1517"/>
      <point x="650" y="1517" type="curve" smooth="yes"/>
      <point x="280" y="1517"/>
      <point x="100" y="1170"/>
      <point x="100" y="750" type="curve" smooth="yes"/>
      <point x="100" y="539"/>
      <point x="148" y="349"/>
      <point x="240" y="209" type="curve" smooth="yes"/>
      <point x="247" y="198"/>
      <point x="254" y="188"/>
      <point x="262" y="178" type="curve"/>
      <point x="121" y="-100" type="line"/>
      <point x="331" y="-100" type="line"/>
      <point x="405" y="48" type="line"/>
      <point x="430" y="33"/>
      <point x="457" y="21"/>
      <point x="485" y="11" type="curve" smooth="yes"/>
      <point x="535" y="-8"/>
      <point x="590" y="-17"/>
      <point x="650" y="-17" type="curve" smooth="yes"/>
      <point x="1020" y="-17"/>
      <point x="1200" y="330"/>
      <point x="1200" y="750" type="curve" smooth="yes"/>
      <point x="1200" y="961"/>
      <point x="1152" y="1151"/>
      <point x="1060" y="1291" type="curve" smooth="yes"/>
      <point x="1053" y="1301"/>
      <point x="1047" y="1311"/>
      <point x="1040" y="1320" type="curve"/>
    </contour>
    <contour>
      <point x="363" y="379" type="line"/>
      <point x="350" y="416"/>
      <point x="339" y="455"/>
      <point x="331" y="497" type="curve" smooth="yes"/>
      <point x="312" y="589"/>
      <point x="308" y="690"/>
      <point x="308" y="785" type="curve" smooth="yes"/>
      <point x="308" y="1030"/>
      <point x="356" y="1342"/>
      <point x="644" y="1342" type="curve" smooth="yes"/>
      <point x="695" y="1342"/>
      <point x="739" y="1333"/>
      <point x="776" y="1315" type="curve" smooth="yes"/>
      <point x="792" y="1307"/>
      <point x="807" y="1298"/>
      <point x="822" y="1287" type="curve"/>
    </contour>
    <contour>
      <point x="992" y="719" type="curve" smooth="yes"/>
      <point x="992" y="476"/>
      <point x="941" y="158"/>
      <point x="656" y="158" type="curve" smooth="yes"/>
      <point x="605" y="158"/>
      <point x="562" y="167"/>
      <point x="525" y="185" type="curve" smooth="yes"/>
      <point x="511" y="192"/>
      <point x="498" y="200"/>
      <point x="485" y="209" type="curve"/>
      <point x="939" y="1117" type="line"/>
      <point x="952" y="1082"/>
      <point x="962" y="1044"/>
      <point x="970" y="1005" type="curve"/>
      <point x="987" y="912"/>
      <point x="992" y="812"/>
    </contour>
  </outline>
</glyph>
<glyph name="Uacute" format="2">
  <advance width="1300"/>
  <unicode hex="00DA"/>
  <outline>
    <contour>
      <point x="540" y="1600" type="line"/>
      <point x="690" y="1600" type="line"/>
      <point x="930" y="1920" type="line"/>
      <point x="700" y="1900" type="line"/>
    </contour>
    <contour>
      <point x="925" y="1500" type="line"/>
      <point x="925" y="504" type="line" smooth="yes"/>
      <point x="925" y="269"/>
      <point x="841" y="153"/>
      <point x="645" y="153" type="curve" smooth="yes"/>
      <point x="477" y="153"/>
      <point x="375" y="301"/>
      <point x="375" y="554" type="curve" smooth="yes"/>
      <point x="375" y="1520" type="line"/>
      <point x="155" y="1500" type="line"/>
      <point x="185" y="1290" type="line"/>
      <point x="185" y="573" type="line" smooth="yes"/>
      <point x="185" y="220"/>
      <point x="310" y="-17"/>
      <point x="635" y="-17" type="curve" smooth="yes"/>
      <point x="938" y="-17"/>
      <point x="1115" y="160"/>
      <point x="1115" y="523" type="curve" smooth="yes"/>
      <point x="1115" y="1500" type="line"/>
    </contour>
  </outline>
</glyph>
<glyph name="Udieresis" format="2">
  <advance width="1300"/>
  <unicode hex="00DC"/>
  <outline>
    <contour>
      <point x="350" y="1600" type="line"/>
      <point x="550" y="1600" type="line"/>
      <point x="550" y="1800" type="line"/>
      <point x="350" y="1800" type="line"/>
    </contour>
    <contour>
      <point x="750" y="1600" type="line"/>
      <point x="950" y="1600" type="line"/>
      <point x="950" y="1800" type="line"/>
      <point x="750" y="1800" type="line"/>
    </contour>
    <contour>
      <point x="925" y="1500" type="line"/>
      <point x="925" y="504" type="line" smooth="yes"/>
      <point x="925" y="269"/>
      <point x="841" y="153"/>
      <point x="645" y="153" type="curve" smooth="yes"/>
      <point x="477" y="153"/>
      <point x="375" y="301"/>
      <point x="375" y="554" type="curve" smooth="yes"/>
      <point x="375" y="1520" type="line"/>
      <point x="155" y="1500" type="line"/>
      <point x="185" y="1290" type="line"/>
      <point x="185" y="573" type="line" smooth="yes"/>
      <point x="185" y="220"/>
      <point x="310" y="-17"/>
      <point x="635" y="-17" type="curve" smooth="yes"/>
      <point x="938" y="-17"/>
      <point x="1115" y="160"/>
      <point x="1115" y="523" type="curve" smooth="yes"/>
      <point x="1115" y="1500" type="line"/>
    </contour>
  </outline>
</glyph>
<glyph name="Yacute" format="2">
  <advance width="1300"/>
  <unicode hex="00DD"/>
  <outline>
    <contour>
      <point x="630" y="705" type="line"/>
      <point x="551" y="954" type="line"/>
      <point x="263" y="1520" type="line"/>
      <point x="59" y="1500" type="line"/>
      <point x="495" y="645" type="line"/>
      <point x="495" y="0" type="line"/>
      <point x="705" y="0" type="line"/>
      <point x="705" y="646" type="line"/>
      <point x="1140" y="1500" type="line"/>
      <point x="948" y="1500" type="line"/>
      <point x="660" y="935" type="line"/>
    </contour>
    <contour>
      <point x="440" y="1600" type="line"/>
      <point x="590" y="1600" type="line"/>
      <point x="830" y="1920" type="line"/>
      <point x="600" y="1900" type="line"/>
    </contour>
  </outline>
</glyph>
<glyph name="Thorn" format="2">
  <advance width="1300"/>
  <unicode hex="00DE"/>
  <outline>
    <contour>
      <point x="200" y="1299" type="line"/>
      <point x="200" y="0" type="line"/>
      <point x="400" y="0" type="line"/>
      <point x="400" y="401" type="line"/>
      <point x="560" y="401" type="line" smooth="yes"/>
      <point x="684" y="401"/>
      <point x="763" y="425"/>
      <point x="830" y="457" type="curve" smooth="yes"/>
      <point x="1021" y="550"/>
      <point x="1050" y="734"/>
      <point x="1050" y="889" type="curve" smooth="yes"/>
      <point x="1050" y="1202"/>
      <point x="783" y="1301"/>
      <point x="600" y="1301" type="curve" smooth="yes"/>
      <point x="400" y="1301" type="line"/>
      <point x="400" y="1500" type="line"/>
      <point x="180" y="1500" type="line"/>
    </contour>
    <contour>
      <point x="569" y="1151" type="line" smooth="yes"/>
      <point x="753" y="1151"/>
      <point x="870" y="1055"/>
      <point x="870" y="889" type="curve" smooth="yes"/>
      <point x="870" y="701"/>
      <point x="784" y="557"/>
      <point x="589" y="557" type="curve" smooth="yes"/>
      <point x="400" y="557" type="line"/>
      <point x="400" y="1151" type="line"/>
    </contour>
  </outline>
</glyph>
<glyph name="germandbls" format="2">
  <advance width="1300"/>
  <unicode hex="00DF"/>
  <outline>
    <contour>
      <point x="790" y="1148" type="curve" smooth="yes"/>
      <point x="790" y="959"/>
      <point x="651" y="885"/>
      <point x="480" y="885" type="curve"/>
      <point x="550" y="730" type="line"/>
      <point x="767" y="730"/>
      <point x="882" y="650"/>
      <point x="882" y="450" type="curve" smooth="yes"/>
      <point x="882" y="230"/>
      <point x="774" y="160"/>
      <point x="510" y="160" type="curve"/>
      <point x="570" y="0" type="line"/>
      <point x="820" y="0"/>
      <point x="1082" y="120"/>
      <point x="1082" y="460" type="curve" smooth="yes"/>
      <point x="1082" y="655"/>
      <point x="947" y="754"/>
      <point x="783" y="802" type="curve"/>
      <point x="636" y="816" type="line"/>
      <point x="790" y="860" type="line"/>
      <point x="906" y="916"/>
      <point x="981" y="1024"/>
      <point x="981" y="1169" type="curve" smooth="yes"/>
      <point x="981" y="1279"/>
      <point x="940" y="1343"/>
      <point x="881" y="1405" type="curve" smooth="yes"/>
      <point x="809" y="1479"/>
      <point x="739" y="1517"/>
      <point x="603" y="1517" type="curve" smooth="yes"/>
      <point x="463" y="1517"/>
      <point x="384" y="1482"/>
      <point x="308" y="1412" type="curve" smooth="yes"/>
      <point x="231" y="1341"/>
      <point x="192" y="1240"/>
      <point x="192" y="1111" type="curve" smooth="yes"/>
      <point x="192" y="0" type="line"/>
      <point x="400" y="-17" type="line"/>
      <point x="400" y="1160" type="line" smooth="yes"/>
      <point x="400" y="1220"/>
      <point x="404" y="1268"/>
      <point x="440" y="1304" type="curve" smooth="yes"/>
      <point x="483" y="1347"/>
      <point x="516" y="1369"/>
      <point x="600" y="1369" type="curve" smooth="yes"/>
      <point x="715" y="1369"/>
      <point x="790" y="1270"/>
    </contour>
  </outline>
</glyph>
<glyph name="atilde" format="2">
  <advance width="1300"/>
  <unicode hex="00E3"/>
  <outline>
    <contour>
      <point x="473" y="1272" type="line"/>
      <point x="484" y="1312"/>
      <point x="516" y="1360"/>
      <point x="563" y="1360" type="curve" smooth="yes"/>
      <point x="657" y="1360"/>
      <point x="738" y="1271"/>
      <point x="822" y="1271" type="curve" smooth="yes"/>
      <point x="926" y="1271"/>
      <point x="1009" y="1381"/>
      <point x="1017" y="1498" type="curve"/>
      <point x="921" y="1502" type="line"/>
      <point x="913" y="1455"/>
      <point x="885" y="1394"/>
      <point x="829" y="1394" type="curve" smooth="yes"/>
      <point x="746" y="1394"/>
      <point x="673" y="1484"/>
      <point x="569" y="1484" type="curve" smooth="yes"/>
      <point x="474" y="1484"/>
      <point x="398" y="1383"/>
      <point x="387" y="1275" type="curve"/>
    </contour>
    <contour>
      <point x="1090" y="180" type="line"/>
      <point x="1090" y="690" type="line" smooth="yes"/>
      <point x="1090" y="945"/>
      <point x="973" y="1117"/>
      <point x="665" y="1117" type="curve" smooth="yes"/>
      <point x="546" y="1117"/>
      <point x="469" y="1099"/>
      <point x="405" y="1080" type="curve" smooth="yes"/>
      <point x="366" y="1069"/>
      <point x="333" y="1057"/>
      <point x="305" y="1044" type="curve"/>
      <point x="377" y="910" type="line"/>
      <point x="404" y="918"/>
      <point x="431" y="926"/>
      <point x="462" y="933" type="curve" smooth="yes"/>
      <point x="514" y="945"/>
      <point x="571" y="957"/>
      <point x="655" y="957" type="curve" smooth="yes"/>
      <point x="835" y="957"/>
      <point x="910" y="863"/>
      <point x="910" y="705" type="curve" smooth="yes"/>
      <point x="910" y="662" type="line"/>
      <point x="843" y="687"/>
      <point x="752" y="702"/>
      <point x="625" y="702" type="curve" smooth="yes"/>
      <point x="400" y="702"/>
      <point x="170" y="592"/>
      <point x="170" y="344" type="curve" smooth="yes"/>
      <point x="170" y="109"/>
      <point x="396" y="-17"/>
      <point x="596" y="-17" type="curve" smooth="yes"/>
      <point x="669" y="-17"/>
      <point x="770" y="15"/>
      <point x="816" y="50" type="curve"/>
      <point x="910" y="162" type="line"/>
      <point x="910" y="0" type="line"/>
      <point x="1110" y="0" type="line"/>
    </contour>
    <contour>
      <point x="910" y="274" type="line"/>
      <point x="823" y="194"/>
      <point x="728" y="143"/>
      <point x="604" y="143" type="curve" smooth="yes"/>
      <point x="479" y="143"/>
      <point x="363" y="225"/>
      <point x="363" y="345" type="curve" smooth="yes"/>
      <point x="363" y="493"/>
      <point x="517" y="542"/>
      <point x="665" y="542" type="curve" smooth="yes"/>
      <point x="678" y="542"/>
      <point x="693" y="542"/>
      <point x="711" y="541" type="curve"/>
      <point x="719" y="541" type="line"/>
      <point x="721" y="541" type="line"/>
      <point x="724" y="540"/>
      <point x="727" y="540"/>
      <point x="730" y="540" type="curve" smooth="yes"/>
      <point x="732" y="540" type="line"/>
      <point x="741" y="540" type="line"/>
      <point x="742" y="540" type="line"/>
      <point x="745" y="540"/>
      <point x="748" y="540"/>
      <point x="751" y="539" type="curve"/>
      <point x="753" y="539" type="line"/>
      <point x="762" y="539" type="line"/>
      <point x="764" y="539" type="line"/>
      <point x="799" y="538"/>
      <point x="831" y="534"/>
      <point x="850" y="533" type="curve"/>
      <point x="910" y="525" type="line"/>
    </contour>
  </outline>
</glyph>
<glyph name="aring" format="2">
  <advance width="1300"/>
  <unicode hex="00E5"/>
  <outline>
    <contour>
      <point x="700" y="1634" type="curve" smooth="yes"/>
      <point x="569" y="1634"/>
      <point x="462" y="1528"/>
      <point x="462" y="1397" type="curve" smooth="yes"/>
      <point x="462" y="1265"/>
      <point x="571" y="1156"/>
      <point x="702" y="1156" type="curve" smooth="yes"/>
      <point x="833" y="1156"/>
      <point x="937" y="1265"/>
      <point x="937" y="1397" type="curve" smooth="yes"/>
      <point x="937" y="1528"/>
      <point x="831" y="1634"/>
    </contour>
    <contour>
      <point x="701" y="1273" type="curve" smooth="yes"/>
      <point x="633" y="1273"/>
      <point x="579" y="1329"/>
      <point x="579" y="1396" type="curve" smooth="yes"/>
      <point x="579" y="1463"/>
      <point x="633" y="1517"/>
      <point x="700" y="1517" type="curve" smooth="yes"/>
      <point x="767" y="1517"/>
      <point x="821" y="1463"/>
      <point x="821" y="1396" type="curve" smooth="yes"/>
      <point x="821" y="1329"/>
      <point x="768" y="1273"/>
    </contour>
    <contour>
      <point x="1090" y="180" type="line"/>
      <point x="1090" y="690" type="line" smooth="yes"/>
      <point x="1090" y="945"/>
      <point x="973" y="1117"/>
      <point x="665" y="1117" type="curve" smooth="yes"/>
      <point x="546" y="1117"/>
      <point x="469" y="1099"/>
      <point x="405" y="1080" type="curve" smooth="yes"/>
      <point x="366" y="1069"/>
      <point x="333" y="1057"/>
      <point x="305" y="1044" type="curve"/>
      <point x="377" y="910" type="line"/>
      <point x="404" y="918"/>
      <point x="431" y="926"/>
      <point x="462" y="933" type="curve" smooth="yes"/>
      <point x="514" y="945"/>
      <point x="571" y="957"/>
      <point x="655" y="957" type="curve" smooth="yes"/>
      <point x="835" y="957"/>
      <point x="910" y="863"/>
      <point x="910" y="705" type="curve" smooth="yes"/>
      <point x="910" y="662" type="line"/>
      <point x="843" y="687"/>
      <point x="752" y="702"/>
      <point x="625" y="702" type="curve" smooth="yes"/>
      <point x="400" y="702"/>
      <point x="170" y="592"/>
      <point x="170" y="344" type="curve" smooth="yes"/>
      <point x="170" y="109"/>
      <point x="396" y="-17"/>
      <point x="596" y="-17" type="curve" smooth="yes"/>
      <point x="669" y="-17"/>
      <point x="770" y="15"/>
      <point x="816" y="50" type="curve"/>
      <point x="910" y="162" type="line"/>
      <point x="910" y="0" type="line"/>
      <point x="1110" y="0" type="line"/>
    </contour>
    <contour>
      <point x="910" y="274" type="line"/>
      <point x="823" y="194"/>
      <point x="728" y="143"/>
      <point x="604" y="143" type="curve" smooth="yes"/>
      <point x="479" y="143"/>
      <point x="363" y="225"/>
      <point x="363" y="345" type="curve" smooth="yes"/>
      <point x="363" y="493"/>
      <point x="517" y="542"/>
      <point x="665" y="542" type="curve" smooth="yes"/>
      <point x="678" y="542"/>
      <point x="693" y="542"/>
      <point x="711" y="541" type="curve"/>
      <point x="719" y="541" type="line"/>
      <point x="721" y="541" type="line"/>
      <point x="724" y="540"/>
      <point x="727" y="540"/>
      <point x="730" y="540" type="curve" smooth="yes"/>
      <point x="732" y="540" type="line"/>
      <point x="741" y="540" type="line"/>
      <point x="742" y="540" type="line"/>
      <point x="745" y="540"/>
      <point x="748" y="540"/>
      <point x="751" y="539" type="curve"/>
      <point x="753" y="539" type="line"/>
      <point x="762" y="539" type="line"/>
      <point x="764" y="539" type="line"/>
      <point x="799" y="538"/>
      <point x="831" y="534"/>
      <point x="850" y="533" type="curve"/>
      <point x="910" y="525" type="line"/>
    </contour>
  </outline>
</glyph>
<glyph name="ccedilla" format="2">
  <advance width="1300"/>
  <unicode hex="00E7"/>
  <outline>
    <contour>
      <point x="1105" y="991" type="line"/>
      <point x="1021" y="1083"/>
      <point x="888" y="1117"/>
      <point x="725" y="1117" type="curve" smooth="yes"/>
      <point x="381" y="1117"/>
      <point x="169" y="854"/>
      <point x="169" y="577" type="curve" smooth="yes"/>
      <point x="169" y="343"/>
      <point x="293" y="130"/>
      <point x="494" y="33" type="curve" smooth="yes"/>
      <point x="541" y="10"/>
      <point x="591" y="-5"/>
      <point x="646" y="-12" type="curve"/>
      <point x="661" y="-29"/>
      <point x="674" y="-45"/>
      <point x="687" y="-62" type="curve" smooth="yes"/>
      <point x="714" y="-98"/>
      <point x="740" y="-145"/>
      <point x="740" y="-189" type="curve" smooth="yes"/>
      <point x="740" y="-245"/>
      <point x="694" y="-279"/>
      <point x="645" y="-279" type="curve" smooth="yes"/>
      <point x="606" y="-279"/>
      <point x="565" y="-264"/>
      <point x="533" y="-249" type="curve" smooth="yes"/>
      <point x="514" y="-240"/>
      <point x="496" y="-230"/>
      <point x="479" y="-218" type="curve"/>
      <point x="408" y="-318" type="line"/>
      <point x="433" y="-335"/>
      <point x="460" y="-350"/>
      <point x="489" y="-363" type="curve" smooth="yes"/>
      <point x="538" y="-386"/>
      <point x="602" y="-407"/>
      <point x="669" y="-407" type="curve" smooth="yes"/>
      <point x="786" y="-407"/>
      <point x="893" y="-315"/>
      <point x="893" y="-198" type="curve" smooth="yes"/>
      <point x="893" y="-145"/>
      <point x="872" y="-95"/>
      <point x="851" y="-59" type="curve" smooth="yes"/>
      <point x="842" y="-42"/>
      <point x="831" y="-26"/>
      <point x="819" y="-11" type="curve"/>
      <point x="836" y="-8"/>
      <point x="853" y="-5"/>
      <point x="868" y="-2" type="curve" smooth="yes"/>
      <point x="995" y="28"/>
      <point x="1068" y="84"/>
      <point x="1099" y="111" type="curve"/>
      <point x="1027" y="252" type="line"/>
      <point x="996" y="226"/>
      <point x="873" y="152"/>
      <point x="734" y="152" type="curve" smooth="yes"/>
      <point x="490" y="152"/>
      <point x="364" y="345"/>
      <point x="364" y="564" type="curve" smooth="yes"/>
      <point x="364" y="776"/>
      <point x="499" y="957"/>
      <point x="723" y="957" type="curve" smooth="yes"/>
      <point x="864" y="957"/>
      <point x="954" y="925"/>
      <point x="1006" y="878" type="curve"/>
    </contour>
  </outline>
</glyph>
<glyph name="eacute" format="2">
  <advance width="1300"/>
  <unicode hex="00E9"/>
  <outline>
    <contour>
      <point x="540" y="1200" type="line"/>
      <point x="690" y="1200" type="line"/>
      <point x="930" y="1520" type="line"/>
      <point x="700" y="1500" type="line"/>
    </contour>
    <contour>
      <point x="925" y="236" type="line"/>
      <point x="886" y="199"/>
      <point x="820" y="143"/>
      <point x="650" y="143" type="curve" smooth="yes"/>
      <point x="475" y="143"/>
      <point x="340" y="295"/>
      <point x="340" y="500" type="curve"/>
      <point x="1100" y="500" type="line"/>
      <point x="1105" y="544"/>
      <point x="1108" y="597"/>
      <point x="1108" y="638" type="curve" smooth="yes"/>
      <point x="1108" y="922"/>
      <point x="926" y="1117"/>
      <point x="638" y="1117" type="curve" smooth="yes"/>
      <point x="323" y="1117"/>
      <point x="150" y="834"/>
      <point x="150" y="550" type="curve" smooth="yes"/>
      <point x="150" y="255"/>
      <point x="307" y="-17"/>
      <point x="663" y="-17" type="curve" smooth="yes"/>
      <point x="841" y="-17"/>
      <point x="951" y="43"/>
      <point x="1034" y="129" type="curve"/>
    </contour>
    <contour>
      <point x="485" y="650" type="line"/>
      <point x="300" y="618" type="line"/>
      <point x="359" y="732" type="line"/>
      <point x="386" y="829"/>
      <point x="474" y="958"/>
      <point x="653" y="958" type="curve" smooth="yes"/>
      <point x="802" y="958"/>
      <point x="932" y="845"/>
      <point x="932" y="694" type="curve" smooth="yes"/>
      <point x="932" y="650" type="line"/>
    </contour>
  </outline>
</glyph>
<glyph name="ecircumflex" format="2">
  <advance width="1300"/>
  <unicode hex="00EA"/>
  <outline>
    <contour>
      <point x="705" y="1520" type="line"/>
      <point x="505" y="1500" type="line"/>
      <point x="329" y="1220" type="line"/>
      <point x="479" y="1220" type="line"/>
      <point x="580" y="1373" type="line"/>
      <point x="610" y="1460" type="line"/>
      <point x="640" y="1372" type="line"/>
      <point x="740" y="1220" type="line"/>
      <point x="890" y="1220" type="line"/>
    </contour>
    <contour>
      <point x="925" y="236" type="line"/>
      <point x="886" y="199"/>
      <point x="820" y="143"/>
      <point x="650" y="143" type="curve" smooth="yes"/>
      <point x="475" y="143"/>
      <point x="340" y="295"/>
      <point x="340" y="500" type="curve"/>
      <point x="1100" y="500" type="line"/>
      <point x="1105" y="544"/>
      <point x="1108" y="597"/>
      <point x="1108" y="638" type="curve" smooth="yes"/>
      <point x="1108" y="922"/>
      <point x="926" y="1117"/>
      <point x="638" y="1117" type="curve" smooth="yes"/>
      <point x="323" y="1117"/>
      <point x="150" y="834"/>
      <point x="150" y="550" type="curve" smooth="yes"/>
      <point x="150" y="255"/>
      <point x="307" y="-17"/>
      <point x="663" y="-17" type="curve" smooth="yes"/>
      <point x="841" y="-17"/>
      <point x="951" y="43"/>
      <point x="1034" y="129" type="curve"/>
    </contour>
    <contour>
      <point x="485" y="650" type="line"/>
      <point x="300" y="618" type="line"/>
      <point x="359" y="732" type="line"/>
      <point x="386" y="829"/>
      <point x="474" y="958"/>
      <point x="653" y="958" type="curve" smooth="yes"/>
      <point x="802" y="958"/>
      <point x="932" y="845"/>
      <point x="932" y="694" type="curve" smooth="yes"/>
      <point x="932" y="650" type="line"/>
    </contour>
  </outline>
</glyph>
<glyph name="igrave" format="2">
  <advance width="1300"/>
  <unicode hex="00EC"/>
  <outline>
    <contour>
      <point x="711" y="1100" type="line"/>
      <point x="200" y="1100" type="line"/>
      <point x="220" y="940" type="line"/>
      <point x="421" y="940" type="line"/>
      <point x="521" y="970" type="line"/>
      <point x="521" y="403" type="line" smooth="yes"/>
      <point x="521" y="165"/>
      <point x="570" y="-17"/>
      <point x="831" y="-17" type="curve" smooth="yes"/>
      <point x="1007" y="-17"/>
      <point x="1136" y="48"/>
      <point x="1151" y="56" type="curve"/>
      <point x="1112" y="210" type="line"/>
      <point x="1097" y="205"/>
      <point x="973" y="153"/>
      <point x="841" y="153" type="curve" smooth="yes"/>
      <point x="742" y="153"/>
      <point x="711" y="254"/>
      <point x="711" y="393" type="curve" smooth="yes"/>
    </contour>
    <contour>
      <point x="489" y="1520" type="line"/>
      <point x="285" y="1500" type="line"/>
      <point x="510" y="1200" type="line"/>
      <point x="660" y="1200" type="line"/>
    </contour>
  </outline>
</glyph>
<glyph name="iacute" format="2">
  <advance width="1300"/>
  <unicode hex="00ED"/>
  <outline>
    <contour>
      <point x="711" y="1100" type="line"/>
      <point x="200" y="1100" type="line"/>
      <point x="220" y="940" type="line"/>
      <point x="421" y="940" type="line"/>
      <point x="521" y="970" type="line"/>
      <point x="521" y="403" type="line" smooth="yes"/>
      <point x="521" y="165"/>
      <point x="570" y="-17"/>
      <point x="831" y="-17" type="curve" smooth="yes"/>
      <point x="1007" y="-17"/>
      <point x="1136" y="48"/>
      <point x="1151" y="56" type="curve"/>
      <point x="1112" y="210" type="line"/>
      <point x="1097" y="205"/>
      <point x="973" y="153"/>
      <point x="841" y="153" type="curve" smooth="yes"/>
      <point x="742" y="153"/>
      <point x="711" y="254"/>
      <point x="711" y="393" type="curve" smooth="yes"/>
    </contour>
    <contour>
      <point x="560" y="1200" type="line"/>
      <point x="710" y="1200" type="line"/>
      <point x="950" y="1520" type="line"/>
      <point x="720" y="1500" type="line"/>
    </contour>
  </outline>
</glyph>
<glyph name="icircumflex" format="2">
  <advance width="1300"/>
  <unicode hex="00EE"/>
  <outline>
    <contour>
      <point x="711" y="1100" type="line"/>
      <point x="200" y="1100" type="line"/>
      <point x="220" y="940" type="line"/>
      <point x="421" y="940" type="line"/>
      <point x="521" y="970" type="line"/>
      <point x="521" y="403" type="line" smooth="yes"/>
      <point x="521" y="165"/>
      <point x="570" y="-17"/>
      <point x="831" y="-17" type="curve" smooth="yes"/>
      <point x="1007" y="-17"/>
      <point x="1136" y="48"/>
      <point x="1151" y="56" type="curve"/>
      <point x="1112" y="210" type="line"/>
      <point x="1097" y="205"/>
      <point x="973" y="153"/>
      <point x="841" y="153" type="curve" smooth="yes"/>
      <point x="742" y="153"/>
      <point x="711" y="254"/>
      <point x="711" y="393" type="curve" smooth="yes"/>
    </contour>
    <contour>
      <point x="696" y="1520" type="line"/>
      <point x="496" y="1500" type="line"/>
      <point x="320" y="1220" type="line"/>
      <point x="470" y="1220" type="line"/>
      <point x="571" y="1373" type="line"/>
      <point x="601" y="1460" type="line"/>
      <point x="631" y="1372" type="line"/>
      <point x="731" y="1220" type="line"/>
      <point x="881" y="1220" type="line"/>
    </contour>
  </outline>
</glyph>
<glyph name="idieresis" format="2">
  <advance width="1300"/>
  <unicode hex="00EF"/>
  <outline>
    <contour>
      <point x="711" y="1100" type="line"/>
      <point x="200" y="1100" type="line"/>
      <point x="220" y="940" type="line"/>
      <point x="421" y="940" type="line"/>
      <point x="521" y="970" type="line"/>
      <point x="521" y="403" type="line" smooth="yes"/>
      <point x="521" y="165"/>
      <point x="570" y="-17"/>
      <point x="831" y="-17" type="curve" smooth="yes"/>
      <point x="1007" y="-17"/>
      <point x="1136" y="48"/>
      <point x="1151" y="56" type="curve"/>
      <point x="1112" y="210" type="line"/>
      <point x="1097" y="205"/>
      <point x="973" y="153"/>
      <point x="841" y="153" type="curve" smooth="yes"/>
      <point x="742" y="153"/>
      <point x="711" y="254"/>
      <point x="711" y="393" type="curve" smooth="yes"/>
    </contour>
    <contour>
      <point x="300" y="1300" type="line"/>
      <point x="500" y="1300" type="line"/>
      <point x="500" y="1500" type="line"/>
      <point x="300" y="1500" type="line"/>
    </contour>
    <contour>
      <point x="700" y="1300" type="line"/>
      <point x="900" y="1300" type="line"/>
      <point x="900" y="1500" type="line"/>
      <point x="700" y="1500" type="line"/>
    </contour>
  </outline>
</glyph>
<glyph name="ntilde" format="2">
  <advance width="1300"/>
  <unicode hex="00F1"/>
  <outline>
    <contour>
      <point x="473" y="1272" type="line"/>
      <point x="484" y="1312"/>
      <point x="516" y="1360"/>
      <point x="563" y="1360" type="curve" smooth="yes"/>
      <point x="657" y="1360"/>
      <point x="738" y="1271"/>
      <point x="822" y="1271" type="curve" smooth="yes"/>
      <point x="926" y="1271"/>
      <point x="1009" y="1381"/>
      <point x="1017" y="1498" type="curve"/>
      <point x="921" y="1502" type="line"/>
      <point x="913" y="1455"/>
      <point x="885" y="1394"/>
      <point x="829" y="1394" type="curve" smooth="yes"/>
      <point x="746" y="1394"/>
      <point x="673" y="1484"/>
      <point x="569" y="1484" type="curve" smooth="yes"/>
      <point x="474" y="1484"/>
      <point x="398" y="1383"/>
      <point x="387" y="1275" type="curve"/>
    </contour>
    <contour>
      <point x="390" y="834" type="line"/>
      <point x="443" y="885"/>
      <point x="556" y="957"/>
      <point x="684" y="957" type="curve" smooth="yes"/>
      <point x="808" y="957"/>
      <point x="909" y="894"/>
      <point x="909" y="750" type="curve" smooth="yes"/>
      <point x="909" y="0" type="line"/>
      <point x="1089" y="0" type="line"/>
      <point x="1089" y="750" type="line" smooth="yes"/>
      <point x="1089" y="975"/>
      <point x="961" y="1117"/>
      <point x="749" y="1117" type="curve" smooth="yes"/>
      <point x="575" y="1117"/>
      <point x="499" y="1076"/>
      <point x="451" y="1044" type="curve"/>
      <point x="390" y="927" type="line"/>
      <point x="390" y="1120" type="line"/>
      <point x="210" y="1100" type="line"/>
      <point x="210" y="0" type="line"/>
      <point x="390" y="0" type="line"/>
    </contour>
  </outline>
</glyph>
<glyph name="ograve" format="2">
  <advance width="1300"/>
  <unicode hex="00F2"/>
  <outline>
    <contour>
      <point x="616" y="1520" type="line"/>
      <point x="412" y="1500" type="line"/>
      <point x="637" y="1200" type="line"/>
      <point x="787" y="1200" type="line"/>
    </contour>
    <contour>
      <point x="649" y="-17" type="curve" smooth="yes"/>
      <point x="954" y="-17"/>
      <point x="1145" y="229"/>
      <point x="1145" y="553" type="curve" smooth="yes"/>
      <point x="1145" y="877"/>
      <point x="944" y="1117"/>
      <point x="649" y="1117" type="curve" smooth="yes"/>
      <point x="344" y="1117"/>
      <point x="144" y="877"/>
      <point x="144" y="553" type="curve" smooth="yes"/>
      <point x="144" y="229"/>
      <point x="354" y="-17"/>
    </contour>
    <contour>
      <point x="955" y="526" type="curve" smooth="yes"/>
      <point x="955" y="330"/>
      <point x="865" y="138"/>
      <point x="653" y="138" type="curve" smooth="yes"/>
      <point x="429" y="138"/>
      <point x="334" y="356"/>
      <point x="334" y="572" type="curve" smooth="yes"/>
      <point x="334" y="769"/>
      <point x="431" y="962"/>
      <point x="645" y="962" type="curve" smooth="yes"/>
      <point x="869" y="962"/>
      <point x="955" y="741"/>
    </contour>
  </outline>
</glyph>
<glyph name="otilde" format="2">
  <advance width="1300"/>
  <unicode hex="00F5"/>
  <outline>
    <contour>
      <point x="423" y="1272" type="line"/>
      <point x="434" y="1312"/>
      <point x="466" y="1360"/>
      <point x="513" y="1360" type="curve" smooth="yes"/>
      <point x="607" y="1360"/>
      <point x="688" y="1271"/>
      <point x="772" y="1271" type="curve" smooth="yes"/>
      <point x="876" y="1271"/>
      <point x="959" y="1381"/>
      <point x="967" y="1498" type="curve"/>
      <point x="871" y="1502" type="line"/>
      <point x="863" y="1455"/>
      <point x="835" y="1394"/>
      <point x="779" y="1394" type="curve" smooth="yes"/>
      <point x="696" y="1394"/>
      <point x="623" y="1484"/>
      <point x="519" y="1484" type="curve" smooth="yes"/>
      <point x="424" y="1484"/>
      <point x="348" y="1383"/>
      <point x="337" y="1275" type="curve"/>
    </contour>
    <contour>
      <point x="649" y="-17" type="curve" smooth="yes"/>
      <point x="954" y="-17"/>
      <point x="1145" y="229"/>
      <point x="1145" y="553" type="curve" smooth="yes"/>
      <point x="1145" y="877"/>
      <point x="944" y="1117"/>
      <point x="649" y="1117" type="curve" smooth="yes"/>
      <point x="344" y="1117"/>
      <point x="144" y="877"/>
      <point x="144" y="553" type="curve" smooth="yes"/>
      <point x="144" y="229"/>
      <point x="354" y="-17"/>
    </contour>
    <contour>
      <point x="955" y="526" type="curve" smooth="yes"/>
      <point x="955" y="330"/>
      <point x="865" y="138"/>
      <point x="653" y="138" type="curve" smooth="yes"/>
      <point x="429" y="138"/>
      <point x="334" y="356"/>
      <point x="334" y="572" type="curve" smooth="yes"/>
      <point x="334" y="769"/>
      <point x="431" y="962"/>
      <point x="645" y="962" type="curve" smooth="yes"/>
      <point x="869" y="962"/>
      <point x="955" y="741"/>
    </contour>
  </outline>
</glyph>
<glyph name="divide" format="2">
  <advance width="1300"/>
  <unicode hex="00F7"/>
  <outline>
    <contour>
      <point x="541" y="920" type="curve" smooth="yes"/>
      <point x="541" y="861"/>
      <point x="590" y="810"/>
      <point x="650" y="810" type="curve" smooth="yes"/>
      <point x="709" y="810"/>
      <point x="757" y="861"/>
      <point x="757" y="920" type="curve" smooth="yes"/>
      <point x="757" y="979"/>
      <point x="708" y="1028"/>
      <point x="649" y="1028" type="curve" smooth="yes"/>
      <point x="590" y="1028"/>
      <point x="541" y="979"/>
    </contour>
    <contour>
      <point x="200" y="545" type="line"/>
      <point x="1100" y="545" type="line"/>
      <point x="1100" y="700" type="line"/>
      <point x="200" y="700" type="line"/>
    </contour>
    <contour>
      <point x="541" y="307" type="curve" smooth="yes"/>
      <point x="541" y="248"/>
      <point x="590" y="197"/>
      <point x="650" y="197" type="curve" smooth="yes"/>
      <point x="709" y="197"/>
      <point x="757" y="248"/>
      <point x="757" y="307" type="curve" smooth="yes"/>
      <point x="757" y="366"/>
      <point x="708" y="415"/>
      <point x="649" y="415" type="curve" smooth="yes"/>
      <point x="590" y="415"/>
      <point x="541" y="366"/>
    </contour>
  </outline>
</glyph>
<glyph name="oslash" format="2">
  <advance width="1300"/>
  <unicode hex="00F8"/>
  <outline>
    <contour>
      <point x="1041" y="1209" type="line"/>
      <point x="861" y="1209" type="line"/>
      <point x="792" y="1081" type="line"/>
      <point x="735" y="1105"/>
      <point x="673" y="1117"/>
      <point x="604" y="1117" type="curve" smooth="yes"/>
      <point x="299" y="1117"/>
      <point x="99" y="877"/>
      <point x="99" y="553" type="curve" smooth="yes"/>
      <point x="99" y="390"/>
      <point x="152" y="248"/>
      <point x="241" y="147" type="curve" smooth="yes"/>
      <point x="252" y="134"/>
      <point x="263" y="123"/>
      <point x="274" y="112" type="curve"/>
      <point x="161" y="-100" type="line"/>
      <point x="351" y="-100" type="line"/>
      <point x="414" y="20" type="line"/>
      <point x="472" y="-5"/>
      <point x="535" y="-17"/>
      <point x="604" y="-17" type="curve" smooth="yes"/>
      <point x="909" y="-17"/>
      <point x="1100" y="229"/>
      <point x="1100" y="553" type="curve" smooth="yes"/>
      <point x="1100" y="714"/>
      <point x="1050" y="856"/>
      <point x="963" y="957" type="curve" smooth="yes"/>
      <point x="952" y="970"/>
      <point x="940" y="982"/>
      <point x="927" y="993" type="curve"/>
    </contour>
    <contour>
      <point x="363" y="277" type="line"/>
      <point x="338" y="317"/>
      <point x="320" y="362"/>
      <point x="308" y="413" type="curve" smooth="yes"/>
      <point x="295" y="465"/>
      <point x="289" y="518"/>
      <point x="289" y="572" type="curve" smooth="yes"/>
      <point x="289" y="769"/>
      <point x="386" y="962"/>
      <point x="600" y="962" type="curve" smooth="yes"/>
      <point x="644" y="962"/>
      <point x="683" y="954"/>
      <point x="716" y="939" type="curve"/>
    </contour>
    <contour>
      <point x="910" y="526" type="curve" smooth="yes"/>
      <point x="910" y="330"/>
      <point x="820" y="138"/>
      <point x="608" y="138" type="curve" smooth="yes"/>
      <point x="563" y="138"/>
      <point x="524" y="146"/>
      <point x="489" y="162" type="curve"/>
      <point x="839" y="825" type="line"/>
      <point x="839" y="825" type="line"/>
      <point x="888" y="742"/>
      <point x="910" y="634"/>
    </contour>
  </outline>
</glyph>
<glyph name="ucircumflex" format="2">
  <advance width="1300"/>
  <unicode hex="00FB"/>
  <outline>
    <contour>
      <point x="745" y="1520" type="line"/>
      <point x="545" y="1500" type="line"/>
      <point x="369" y="1220" type="line"/>
      <point x="519" y="1220" type="line"/>
      <point x="620" y="1373" type="line"/>
      <point x="650" y="1460" type="line"/>
      <point x="680" y="1372" type="line"/>
      <point x="780" y="1220" type="line"/>
      <point x="930" y="1220" type="line"/>
    </contour>
    <contour>
      <point x="930" y="300" type="line"/>
      <point x="904" y="248"/>
      <point x="815" y="148"/>
      <point x="662" y="148" type="curve" smooth="yes"/>
      <point x="453" y="148"/>
      <point x="390" y="257"/>
      <point x="390" y="430" type="curve" smooth="yes"/>
      <point x="390" y="1120" type="line"/>
      <point x="210" y="1100" type="line"/>
      <point x="210" y="430" type="line" smooth="yes"/>
      <point x="210" y="200"/>
      <point x="311" y="-17"/>
      <point x="634" y="-17" type="curve" smooth="yes"/>
      <point x="760" y="-17"/>
      <point x="846" y="44"/>
      <point x="869" y="73" type="curve"/>
      <point x="930" y="180" type="line"/>
      <point x="930" y="0" type="line"/>
      <point x="1110" y="0" type="line"/>
      <point x="1110" y="1120" type="line"/>
      <point x="930" y="1100" type="line"/>
    </contour>
  </outline>
</glyph>
<glyph name="yacute" format="2">
  <advance width="1300"/>
  <unicode hex="00FD"/>
  <outline>
    <contour>
      <point x="555" y="1200" type="line"/>
      <point x="705" y="1200" type="line"/>
      <point x="945" y="1520" type="line"/>
      <point x="715" y="1500" type="line"/>
    </contour>
    <contour>
      <point x="679" y="132" type="line"/>
      <point x="627" y="364" type="line"/>
      <point x="363" y="1120" type="line"/>
      <point x="173" y="1100" type="line"/>
      <point x="580" y="-47" type="line"/>
      <point x="527" y="-179"/>
      <point x="467" y="-330"/>
      <point x="371" y="-330" type="curve" smooth="yes"/>
      <point x="334" y="-330"/>
      <point x="298" y="-299"/>
      <point x="282" y="-283" type="curve"/>
      <point x="209" y="-400" type="line"/>
      <point x="265" y="-448"/>
      <point x="326" y="-480"/>
      <point x="401" y="-480" type="curve" smooth="yes"/>
      <point x="588" y="-480"/>
      <point x="686" y="-242"/>
      <point x="766" y="-17" type="curve" smooth="yes"/>
      <point x="1170" y="1120" type="line"/>
      <point x="990" y="1100" type="line"/>
      <point x="721" y="364" type="line"/>
    </contour>
  </outline>
</glyph>
<glyph name="thorn" format="2">
  <advance width="1300"/>
  <unicode hex="00FE"/>
  <outline>
    <contour>
      <point x="669" y="-17" type="curve" smooth="yes"/>
      <point x="974" y="-17"/>
      <point x="1165" y="229"/>
      <point x="1165" y="553" type="curve" smooth="yes"/>
      <point x="1165" y="877"/>
      <point x="964" y="1117"/>
      <point x="669" y="1117" type="curve" smooth="yes"/>
      <point x="593" y="1117"/>
      <point x="524" y="1103"/>
      <point x="462" y="1075" type="curve" smooth="yes"/>
      <point x="420" y="1056"/>
      <point x="382" y="1032"/>
      <point x="349" y="1003" type="curve"/>
      <point x="349" y="1520" type="line"/>
      <point x="149" y="1500" type="line"/>
      <point x="149" y="-400" type="line"/>
      <point x="349" y="-400" type="line"/>
      <point x="349" y="103" type="line"/>
      <point x="384" y="72"/>
      <point x="423" y="47"/>
      <point x="466" y="27" type="curve" smooth="yes"/>
      <point x="527" y="-2"/>
      <point x="595" y="-17"/>
    </contour>
    <contour>
      <point x="975" y="526" type="curve" smooth="yes"/>
      <point x="975" y="330"/>
      <point x="885" y="138"/>
      <point x="673" y="138" type="curve" smooth="yes"/>
      <point x="449" y="138"/>
      <point x="354" y="356"/>
      <point x="354" y="572" type="curve" smooth="yes"/>
      <point x="354" y="769"/>
      <point x="451" y="962"/>
      <point x="665" y="962" type="curve" smooth="yes"/>
      <point x="889" y="962"/>
      <point x="975" y="741"/>
    </contour>
  </outline>
</glyph>
<glyph name="ydieresis" format="2">
  <advance width="1300"/>
  <unicode hex="00FF"/>
  <outline>
    <contour>
      <point x="379" y="1300" type="line"/>
      <point x="579" y="1300" type="line"/>
      <point x="579" y="1500" type="line"/>
      <point x="379" y="1500" type="line"/>
    </contour>
    <contour>
      <point x="779" y="1300" type="line"/>
      <point x="979" y="1300" type="line"/>
      <point x="979" y="1500" type="line"/>
      <point x="779" y="1500" type="line"/>
    </contour>
    <contour>
      <point x="679" y="132" type="line"/>
      <point x="627" y="364" type="line"/>
      <point x="363" y="1120" type="line"/>
      <point x="173" y="1100" type="line"/>
      <point x="580" y="-47" type="line"/>
      <point x="527" y="-179"/>
      <point x="467" y="-330"/>
      <point x="371" y="-330" type="curve" smooth="yes"/>
      <point x="334" y="-330"/>
      <point x="298" y="-299"/>
      <point x="282" y="-283" type="curve"/>
      <point x="209" y="-400" type="line"/>
      <point x="265" y="-448"/>
      <point x="326" y="-480"/>
      <point x="401" y="-480" type="curve" smooth="yes"/>
      <point x="588" y="-480"/>
      <point x="686" y="-242"/>
      <point x="766" y="-17" type="curve" smooth="yes"/>
      <point x="1170" y="1120" type="line"/>
      <point x="990" y="1100" type="line"/>
      <point x="721" y="364" type="line"/>
    </contour>
  </outline>
</glyph>
<glyph name="oe" format="2">
  <advance width="1300"/>
  <unicode hex="0153"/>
  <outline>
    <contour>
      <point x="378" y="1117" type="curve" smooth="yes"/>
      <point x="82" y="1117"/>
      <point x="30" y="777"/>
      <point x="30" y="553" type="curve" smooth="yes"/>
      <point x="30" y="288"/>
      <point x="92" y="-5"/>
      <point x="387" y="-17" type="curve"/>
      <point x="525" y="-14"/>
      <point x="602" y="66"/>
      <point x="650" y="189" type="curve"/>
      <point x="695" y="61"/>
      <point x="813" y="-17"/>
      <point x="939" y="-17" type="curve" smooth="yes"/>
      <point x="1118" y="-17"/>
      <point x="1186" y="49"/>
      <point x="1252" y="129" type="curve"/>
      <point x="1123" y="225" type="line"/>
      <point x="1107" y="201"/>
      <point x="1042" y="143"/>
      <point x="941" y="143" type="curve" smooth="yes"/>
      <point x="820" y="143"/>
      <point x="761" y="300"/>
      <point x="761" y="500" type="curve"/>
      <point x="1241" y="500" type="line"/>
      <point x="1252" y="527"/>
      <point x="1261" y="601"/>
      <point x="1261" y="650" type="curve" smooth="yes"/>
      <point x="1261" y="955"/>
      <point x="1209" y="1117"/>
      <point x="921" y="1117" type="curve" smooth="yes"/>
      <point x="777" y="1117"/>
      <point x="658" y="1000"/>
      <point x="631" y="900" type="curve"/>
      <point x="591" y="1000"/>
      <point x="515" y="1117"/>
    </contour>
    <contour>
      <point x="691" y="623" type="line"/>
      <point x="760" y="732" type="line"/>
      <point x="760" y="844"/>
      <point x="817" y="957"/>
      <point x="927" y="957" type="curve" smooth="yes"/>
      <point x="1047" y="957"/>
      <point x="1083" y="854"/>
      <point x="1083" y="730" type="curve" smooth="yes"/>
      <point x="1083" y="650" type="line"/>
      <point x="813" y="650" type="line"/>
    </contour>
    <contour>
      <point x="379" y="178" type="curve" smooth="yes"/>
      <point x="238" y="178"/>
      <point x="200" y="370"/>
      <point x="200" y="570" type="curve" smooth="yes"/>
      <point x="200" y="716"/>
      <point x="232" y="922"/>
      <point x="372" y="922" type="curve" smooth="yes"/>
      <point x="534" y="922"/>
      <point x="545" y="682"/>
      <point x="545" y="528" type="curve" smooth="yes"/>
      <point x="545" y="360"/>
      <point x="520" y="178"/>
    </contour>
  </outline>
</glyph>
<glyph name="Scaron" format="2">
  <advance width="1300"/>
  <unicode hex="0160"/>
  <outline>
    <contour>
      <point x="981" y="1900" type="line"/>
      <point x="831" y="1900" type="line"/>
      <point x="721" y="1768" type="line"/>
      <point x="701" y="1690" type="line"/>
      <point x="681" y="1767" type="line"/>
      <point x="570" y="1900" type="line"/>
      <point x="420" y="1900" type="line"/>
      <point x="596" y="1620" type="line"/>
      <point x="796" y="1600" type="line"/>
    </contour>
    <contour>
      <point x="195" y="94" type="line"/>
      <point x="309" y="22"/>
      <point x="432" y="-17"/>
      <point x="601" y="-17" type="curve" smooth="yes"/>
      <point x="869" y="-17"/>
      <point x="1133" y="131"/>
      <point x="1133" y="429" type="curve" smooth="yes"/>
      <point x="1133" y="909"/>
      <point x="428" y="846"/>
      <point x="428" y="1145" type="curve" smooth="yes"/>
      <point x="428" y="1297"/>
      <point x="589" y="1352"/>
      <point x="733" y="1352" type="curve" smooth="yes"/>
      <point x="836" y="1352"/>
      <point x="912" y="1327"/>
      <point x="1003" y="1274" type="curve"/>
      <point x="1100" y="1397" type="line"/>
      <point x="980" y="1477"/>
      <point x="849" y="1517"/>
      <point x="707" y="1517" type="curve" smooth="yes"/>
      <point x="478" y="1517"/>
      <point x="239" y="1384"/>
      <point x="239" y="1126" type="curve" smooth="yes"/>
      <point x="239" y="727"/>
      <point x="938" y="761"/>
      <point x="938" y="413" type="curve" smooth="yes"/>
      <point x="938" y="229"/>
      <point x="752" y="148"/>
      <point x="587" y="148" type="curve" smooth="yes"/>
      <point x="465" y="148"/>
      <point x="339" y="209"/>
      <point x="286" y="244" type="curve"/>
    </contour>
  </outline>
</glyph>
<glyph name="scaron" format="2">
  <advance width="1300"/>
  <unicode hex="0161"/>
  <outline>
    <contour>
      <point x="981" y="1520" type="line"/>
      <point x="831" y="1520" type="line"/>
      <point x="721" y="1388" type="line"/>
      <point x="701" y="1310" type="line"/>
      <point x="681" y="1387" type="line"/>
      <point x="570" y="1520" type="line"/>
      <point x="420" y="1520" type="line"/>
      <point x="596" y="1240" type="line"/>
      <point x="796" y="1220" type="line"/>
    </contour>
    <contour>
      <point x="1078" y="1047" type="line"/>
      <point x="1025" y="1082"/>
      <point x="889" y="1117"/>
      <point x="752" y="1117" type="curve" smooth="yes"/>
      <point x="497" y="1117"/>
      <point x="263" y="1031"/>
      <point x="263" y="842" type="curve" smooth="yes"/>
      <point x="263" y="735"/>
      <point x="306" y="638"/>
      <point x="458" y="566" type="curve"/>
      <point x="613" y="490"/>
      <point x="958" y="499"/>
      <point x="958" y="340" type="curve" smooth="yes"/>
      <point x="958" y="180"/>
      <point x="717" y="143"/>
      <point x="595" y="143" type="curve" smooth="yes"/>
      <point x="523" y="143"/>
      <point x="363" y="179"/>
      <point x="299" y="211" type="curve"/>
      <point x="233" y="69" type="line"/>
      <point x="303" y="20"/>
      <point x="503" y="-17"/>
      <point x="593" y="-17" type="curve" smooth="yes"/>
      <point x="830" y="-17"/>
      <point x="1153" y="83"/>
      <point x="1153" y="341" type="curve" smooth="yes"/>
      <point x="1153" y="469"/>
      <point x="1058" y="565"/>
      <point x="941" y="610" type="curve"/>
      <point x="790" y="666"/>
      <point x="436" y="681"/>
      <point x="436" y="822" type="curve" smooth="yes"/>
      <point x="436" y="936"/>
      <point x="595" y="963"/>
      <point x="758" y="963" type="curve" smooth="yes"/>
      <point x="879" y="963"/>
      <point x="968" y="923"/>
      <point x="1020" y="899" type="curve"/>
    </contour>
  </outline>
</glyph>
<glyph name="Ydieresis" format="2">
  <advance width="1300"/>
  <unicode hex="0178"/>
  <outline>
    <contour>
      <point x="730" y="705" type="line"/>
      <point x="651" y="954" type="line"/>
      <point x="363" y="1520" type="line"/>
      <point x="159" y="1500" type="line"/>
      <point x="595" y="645" type="line"/>
      <point x="595" y="0" type="line"/>
      <point x="805" y="0" type="line"/>
      <point x="805" y="646" type="line"/>
      <point x="1240" y="1500" type="line"/>
      <point x="1048" y="1500" type="line"/>
      <point x="760" y="935" type="line"/>
    </contour>
    <contour>
      <point x="400" y="1600" type="line"/>
      <point x="600" y="1600" type="line"/>
      <point x="600" y="1800" type="line"/>
      <point x="400" y="1800" type="line"/>
    </contour>
    <contour>
      <point x="800" y="1600" type="line"/>
      <point x="1000" y="1600" type="line"/>
      <point x="1000" y="1800" type="line"/>
      <point x="800" y="1800" type="line"/>
    </contour>
  </outline>
</glyph>
<glyph name="florin" format="2">
  <advance width="1300"/>
  <unicode hex="0192"/>
  <outline>
    <contour>
      <point x="829" y="828" type="line"/>
      <point x="911" y="1246" type="line" smooth="yes"/>
      <point x="927" y="1327"/>
      <point x="981" y="1364"/>
      <point x="1060" y="1364" type="curve" smooth="yes"/>
      <point x="1099" y="1364"/>
      <point x="1140" y="1349"/>
      <point x="1200" y="1310" type="curve"/>
      <point x="1225" y="1453" type="line"/>
      <point x="1156" y="1511"/>
      <point x="1044" y="1517"/>
      <point x="978" y="1517" type="curve" smooth="yes"/>
      <point x="860" y="1517"/>
      <point x="746" y="1428"/>
      <point x="703" y="1200" type="curve" smooth="yes"/>
      <point x="623" y="771" type="line"/>
      <point x="576" y="828" type="line"/>
      <point x="407" y="828" type="line"/>
      <point x="367" y="674" type="line"/>
      <point x="608" y="674" type="line"/>
      <point x="465" y="-21" type="line"/>
      <point x="436" y="-133"/>
      <point x="416" y="-278"/>
      <point x="283" y="-278" type="curve" smooth="yes"/>
      <point x="250" y="-278"/>
      <point x="201" y="-257"/>
      <point x="174" y="-235" type="curve"/>
      <point x="127" y="-365" type="line"/>
      <point x="190" y="-407"/>
      <point x="243" y="-431"/>
      <point x="335" y="-431" type="curve" smooth="yes"/>
      <point x="589" y="-431"/>
      <point x="609" y="-237"/>
      <point x="665" y="-21" type="curve"/>
      <point x="813" y="730" type="line"/>
      <point x="855" y="674" type="line"/>
      <point x="1025" y="674" type="line"/>
      <point x="1065" y="828" type="line"/>
    </contour>
  </outline>
</glyph>
<glyph name="circumflex" format="2">
  <advance width="1300"/>
  <unicode hex="02C6"/>
  <outline>
    <contour>
      <point x="695" y="1520" type="line"/>
      <point x="495" y="1500" type="line"/>
      <point x="319" y="1220" type="line"/>
      <point x="469" y="1220" type="line"/>
      <point x="570" y="1373" type="line"/>
      <point x="600" y="1460" type="line"/>
      <point x="630" y="1372" type="line"/>
      <point x="730" y="1220" type="line"/>
      <point x="880" y="1220" type="line"/>
    </contour>
  </outline>
</glyph>
<glyph name="caron" format="2">
  <advance width="1300"/>
  <unicode hex="02C7"/>
  <outline>
    <contour>
      <point x="880" y="1520" type="line"/>
      <point x="730" y="1520" type="line"/>
      <point x="620" y="1388" type="line"/>
      <point x="600" y="1310" type="line"/>
      <point x="580" y="1387" type="line"/>
      <point x="469" y="1520" type="line"/>
      <point x="319" y="1520" type="line"/>
      <point x="495" y="1240" type="line"/>
      <point x="695" y="1220" type="line"/>
    </contour>
  </outline>
</glyph>
<glyph name="breve" format="2">
  <advance width="1300"/>
  <unicode hex="02D8"/>
  <outline>
    <contour>
      <point x="319" y="1520" type="line"/>
      <point x="319" y="1506" type="line" smooth="yes"/>
      <point x="319" y="1451"/>
      <point x="334" y="1254"/>
      <point x="597" y="1254" type="curve" smooth="yes"/>
      <point x="862" y="1254"/>
      <point x="880" y="1453"/>
      <point x="880" y="1507" type="curve" smooth="yes"/>
      <point x="880" y="1520" type="line"/>
      <point x="774" y="1520" type="line"/>
      <point x="771" y="1495"/>
      <point x="763" y="1472"/>
      <point x="750" y="1452" type="curve" smooth="yes"/>
      <point x="727" y="1417"/>
      <point x="682" y="1384"/>
      <point x="597" y="1384" type="curve" smooth="yes"/>
      <point x="513" y="1384"/>
      <point x="472" y="1417"/>
      <point x="449" y="1452" type="curve" smooth="yes"/>
      <point x="436" y="1472"/>
      <point x="429" y="1495"/>
      <point x="426" y="1520" type="curve"/>
    </contour>
  </outline>
</glyph>
<glyph name="dotaccent" format="2">
  <advance width="1300"/>
  <unicode hex="02D9"/>
  <outline>
    <contour>
      <point x="494" y="1300" type="line"/>
      <point x="696" y="1300" type="line"/>
      <point x="696" y="1500" type="line"/>
      <point x="494" y="1500" type="line"/>
    </contour>
  </outline>
</glyph>
<glyph name="ring" format="2">
  <advance width="1300"/>
  <unicode hex="02DA"/>
  <outline>
    <contour>
      <point x="600" y="1634" type="curve" smooth="yes"/>
      <point x="469" y="1634"/>
      <point x="362" y="1528"/>
      <point x="362" y="1397" type="curve" smooth="yes"/>
      <point x="362" y="1265"/>
      <point x="471" y="1156"/>
      <point x="602" y="1156" type="curve" smooth="yes"/>
      <point x="733" y="1156"/>
      <point x="837" y="1265"/>
      <point x="837" y="1397" type="curve" smooth="yes"/>
      <point x="837" y="1528"/>
      <point x="731" y="1634"/>
    </contour>
    <contour>
      <point x="601" y="1273" type="curve" smooth="yes"/>
      <point x="533" y="1273"/>
      <point x="479" y="1329"/>
      <point x="479" y="1396" type="curve" smooth="yes"/>
      <point x="479" y="1463"/>
      <point x="533" y="1517"/>
      <point x="600" y="1517" type="curve" smooth="yes"/>
      <point x="667" y="1517"/>
      <point x="721" y="1463"/>
      <point x="721" y="1396" type="curve" smooth="yes"/>
      <point x="721" y="1329"/>
      <point x="668" y="1273"/>
    </contour>
  </outline>
</glyph>
<glyph name="ogonek" format="2">
  <advance width="1300"/>
  <unicode hex="02DB"/>
  <outline>
    <contour>
      <point x="476" y="0" type="line"/>
      <point x="461" y="-18"/>
      <point x="447" y="-38"/>
      <point x="435" y="-59" type="curve" smooth="yes"/>
      <point x="414" y="-95"/>
      <point x="393" y="-145"/>
      <point x="393" y="-198" type="curve" smooth="yes"/>
      <point x="393" y="-315"/>
      <point x="500" y="-407"/>
      <point x="617" y="-407" type="curve" smooth="yes"/>
      <point x="684" y="-407"/>
      <point x="748" y="-386"/>
      <point x="797" y="-363" type="curve" smooth="yes"/>
      <point x="826" y="-350"/>
      <point x="853" y="-335"/>
      <point x="878" y="-318" type="curve"/>
      <point x="807" y="-218" type="line"/>
      <point x="790" y="-230"/>
      <point x="772" y="-240"/>
      <point x="753" y="-249" type="curve" smooth="yes"/>
      <point x="721" y="-264"/>
      <point x="680" y="-279"/>
      <point x="641" y="-279" type="curve" smooth="yes"/>
      <point x="592" y="-279"/>
      <point x="546" y="-245"/>
      <point x="546" y="-189" type="curve" smooth="yes"/>
      <point x="546" y="-145"/>
      <point x="572" y="-98"/>
      <point x="599" y="-62" type="curve" smooth="yes"/>
      <point x="615" y="-41"/>
      <point x="633" y="-20"/>
      <point x="652" y="0" type="curve"/>
    </contour>
  </outline>
</glyph>
<glyph name="tilde" format="2">
  <advance width="1300"/>
  <unicode hex="02DC"/>
  <outline>
    <contour>
      <point x="473" y="1332" type="line"/>
      <point x="484" y="1372"/>
      <point x="516" y="1420"/>
      <point x="563" y="1420" type="curve" smooth="yes"/>
      <point x="657" y="1420"/>
      <point x="738" y="1331"/>
      <point x="822" y="1331" type="curve" smooth="yes"/>
      <point x="926" y="1331"/>
      <point x="1009" y="1441"/>
      <point x="1017" y="1558" type="curve"/>
      <point x="921" y="1562" type="line"/>
      <point x="913" y="1515"/>
      <point x="885" y="1454"/>
      <point x="829" y="1454" type="curve" smooth="yes"/>
      <point x="746" y="1454"/>
      <point x="673" y="1544"/>
      <point x="569" y="1544" type="curve" smooth="yes"/>
      <point x="474" y="1544"/>
      <point x="398" y="1443"/>
      <point x="387" y="1335" type="curve"/>
    </contour>
  </outline>
</glyph>
<glyph name="hungarumlaut" format="2">
  <advance width="1300"/>
  <unicode hex="02DD"/>
  <outline>
    <contour>
      <point x="156" y="1117" type="line"/>
      <point x="306" y="1117" type="line"/>
      <point x="608" y="1520" type="line"/>
      <point x="378" y="1500" type="line"/>
    </contour>
    <contour>
      <point x="519" y="1117" type="line"/>
      <point x="669" y="1117" type="line"/>
      <point x="971" y="1520" type="line"/>
      <point x="741" y="1500" type="line"/>
    </contour>
  </outline>
</glyph>
<glyph name="Gamma" format="2">
  <advance width="1300"/>
  <unicode hex="0393"/>
  <outline>
    <contour>
      <point x="385" y="1350" type="line"/>
      <point x="1020" y="1350" type="line"/>
      <point x="1020" y="1500" type="line"/>
      <point x="183" y="1500" type="line"/>
      <point x="200" y="1300" type="line"/>
      <point x="200" y="0" type="line"/>
      <point x="400" y="0" type="line"/>
      <point x="400" y="1150" type="line"/>
    </contour>
  </outline>
</glyph>
<glyph name="uni0394" format="2">
  <advance width="1300"/>
  <unicode hex="0394"/>
  <outline>
    <contour>
      <point x="213" y="108" type="line"/>
      <point x="295" y="200" type="line"/>
      <point x="606" y="1258" type="line"/>
      <point x="636" y="1425" type="line"/>
      <point x="666" y="1258" type="line"/>
      <point x="977" y="200" type="line"/>
      <point x="1062" y="108" type="line"/>
      <point x="936" y="160" type="line"/>
      <point x="336" y="160" type="line"/>
    </contour>
    <contour>
      <point x="1221" y="0" type="line"/>
      <point x="738" y="1520" type="line"/>
      <point x="521" y="1500" type="line"/>
      <point x="49" y="0" type="line"/>
    </contour>
  </outline>
</glyph>
<glyph name="Zeta" format="2">
  <advance width="1300"/>
  <unicode hex="0396"/>
  <outline>
    <contour>
      <point x="547" y="160" type="line"/>
      <point x="282" y="120" type="line"/>
      <point x="460" y="300" type="line"/>
      <point x="1031" y="1478" type="line"/>
      <point x="1016" y="1500" type="line"/>
      <point x="190" y="1500" type="line"/>
      <point x="210" y="1340" type="line"/>
      <point x="605" y="1340" type="line"/>
      <point x="870" y="1380" type="line"/>
      <point x="686" y="1200" type="line"/>
      <point x="121" y="50" type="line"/>
      <point x="141" y="0" type="line"/>
      <point x="1081" y="0" type="line"/>
      <point x="1061" y="160" type="line"/>
    </contour>
  </outline>
</glyph>
<glyph name="Eta" format="2">
  <advance width="1300"/>
  <unicode hex="0397"/>
  <outline>
    <contour>
      <point x="1065" y="0" type="line"/>
      <point x="1065" y="1520" type="line"/>
      <point x="875" y="1500" type="line"/>
      <point x="875" y="885" type="line"/>
      <point x="307" y="885" type="line"/>
      <point x="307" y="1520" type="line"/>
      <point x="88" y="1500" type="line"/>
      <point x="117" y="1290" type="line"/>
      <point x="117" y="0" type="line"/>
      <point x="307" y="0" type="line"/>
      <point x="307" y="725" type="line"/>
      <point x="875" y="725" type="line"/>
      <point x="875" y="0" type="line"/>
    </contour>
  </outline>
</glyph>
<glyph name="Theta" format="2">
  <advance width="1200"/>
  <unicode hex="0398"/>
  <outline>
    <contour>
      <point x="624" y="-17" type="curve" smooth="yes"/>
      <point x="994" y="-17"/>
      <point x="1174" y="330"/>
      <point x="1174" y="750" type="curve" smooth="yes"/>
      <point x="1174" y="1170"/>
      <point x="984" y="1517"/>
      <point x="624" y="1517" type="curve" smooth="yes"/>
      <point x="254" y="1517"/>
      <point x="74" y="1170"/>
      <point x="74" y="750" type="curve" smooth="yes"/>
      <point x="74" y="330"/>
      <point x="264" y="-17"/>
    </contour>
    <contour>
      <point x="966" y="719" type="curve" smooth="yes"/>
      <point x="966" y="476"/>
      <point x="915" y="158"/>
      <point x="630" y="158" type="curve" smooth="yes"/>
      <point x="326" y="158"/>
      <point x="282" y="502"/>
      <point x="282" y="785" type="curve" smooth="yes"/>
      <point x="282" y="1030"/>
      <point x="330" y="1342"/>
      <point x="618" y="1342" type="curve" smooth="yes"/>
      <point x="922" y="1342"/>
      <point x="966" y="998"/>
    </contour>
    <contour>
      <point x="340" y="665" type="line"/>
      <point x="880" y="665" type="line"/>
      <point x="900" y="835" type="line"/>
      <point x="360" y="835" type="line"/>
    </contour>
  </outline>
</glyph>
<glyph name="Kappa" format="2">
  <advance width="1300"/>
  <unicode hex="039A"/>
  <outline>
    <contour>
      <point x="395" y="0" type="line"/>
      <point x="395" y="746" type="line"/>
      <point x="953" y="0" type="line"/>
      <point x="1190" y="0" type="line"/>
      <point x="637" y="744" type="line"/>
      <point x="463" y="802" type="line"/>
      <point x="632" y="865" type="line"/>
      <point x="1163" y="1500" type="line"/>
      <point x="941" y="1500" type="line"/>
      <point x="395" y="856" type="line"/>
      <point x="395" y="1520" type="line"/>
      <point x="174" y="1500" type="line"/>
      <point x="204" y="1290" type="line"/>
      <point x="204" y="0" type="line"/>
    </contour>
  </outline>
</glyph>
<glyph name="Lambda" format="2">
  <advance width="1300"/>
  <unicode hex="039B"/>
  <outline>
    <contour>
      <point x="1035" y="0" type="line"/>
      <point x="1235" y="0" type="line"/>
      <point x="737" y="1520" type="line"/>
      <point x="520" y="1500" type="line"/>
      <point x="485" y="1300" type="line"/>
      <point x="62" y="0" type="line"/>
      <point x="246" y="0" type="line"/>
      <point x="603" y="1100" type="line"/>
      <point x="639" y="1360" type="line"/>
      <point x="675" y="1100" type="line"/>
    </contour>
  </outline>
</glyph>
